<svg width="130" height="130" viewBox="0 0 130 130" fill="none" xmlns="http://www.w3.org/2000/svg">
<path d="M68.3456 8.48077C67.0145 8.48077 65.68 8.99967 64.6506 10.0045C64.6349 10.0198 64.6154 10.027 64.5997 10.0426L29.998 30.0414L64.5108 64.5543V64.5797L105.994 106.063L113.905 91.8164L85.3861 23.3497L72.079 10.0426C71.0435 9.00705 69.6972 8.48071 68.3458 8.48071L68.3456 8.48077Z" fill="#66C3FA"/>
<path d="M30.0807 29.9609L10.0894 64.5323C10.0738 64.548 10.0669 64.5675 10.0513 64.5832C9.04633 65.6125 8.52459 66.9586 8.52438 68.2896C8.52414 69.641 9.04763 70.9757 10.083 72.0114L26.652 88.5967L91.4516 114.087L106.099 105.948L105.706 105.554L105.604 105.567L64.9816 64.8732L64.9307 64.8732L30.0804 29.9617L30.0807 29.9609Z" fill="#215896"/>
<path d="M29.9902 29.978L65.2971 65.3218L65.348 65.3218L105.985 106.002L121.452 103.051L121.476 57.2884L105.142 41.2805C101.565 37.7741 96.0676 35.5144 90.5437 34.7718L90.5567 34.594L29.9929 29.9785L29.9902 29.978Z" fill="#235997"/>
<path d="M30.0363 30.0189L65.3616 65.3442V65.3952L106.02 106.053L103.061 121.519H57.2984L41.2992 105.177C37.7946 101.598 35.538 96.0984 34.7981 90.574L34.6204 90.587L30.0365 30.0178L30.0363 30.0189Z" fill="#58B6F0"/>
</svg>
