<svg width="130" height="130" fill="none" xmlns="http://www.w3.org/2000/svg"><path d="M42.187 94.993l19.988 20 54.993-55.006H77.181L42.187 94.993zM77.18 0h39.988l-84.98 84.993-20-20L77.18 0z" fill="#39CEFD"/><path d="M62.175 114.993l15.006 14.994h39.987L82.174 94.993l-20 20z" fill="#03569B"/><path d="M91.836 104.718l-9.662-9.725-20 20 29.662-10.275z" fill="url(#paint0_linear)"/><path d="M42.185 94.986l20-20 20.002 20-20.002 20.001-20-20z" fill="#16B9FD"/><path d="M117.168 59.987L82.174 94.993l34.994 35.006H77.181L42.175 94.993 77.18 59.987h39.987zM77.181 0L12.187 64.993l20 20L117.168 0H77.181z" fill="url(#paint1_radial)"/><defs><radialGradient id="paint1_radial" cx="0" cy="0" r="1" gradientUnits="userSpaceOnUse" gradientTransform="translate(15.137 8.86) scale(159.038)"><stop stop-color="#fff" stop-opacity=".1"/><stop offset="1" stop-color="#fff" stop-opacity="0"/></radialGradient><linearGradient id="paint0_linear" x1="68.011" y1="118.853" x2="82.906" y2="103.957" gradientUnits="userSpaceOnUse"><stop stop-color="#1A237E" stop-opacity=".4"/><stop offset="1" stop-color="#1A237E" stop-opacity="0"/></linearGradient></defs></svg>