<svg width="130" height="130" viewBox="0 0 130 130" fill="none" xmlns="http://www.w3.org/2000/svg">
<path d="M42.1871 94.9928L62.1745 114.993L117.168 59.9868H77.1806L42.1871 94.9928Z" fill="#39CEFD"/>
<path d="M77.1806 0H117.168L32.1872 84.9931L12.1874 64.9932L77.1806 0Z" fill="#39CEFD"/>
<path d="M62.1745 114.993L77.1806 129.987H117.168L82.1743 94.9932L62.1745 114.993Z" fill="#03569B"/>
<path d="M91.8363 104.718L82.1743 94.9932L62.1745 114.993L91.8363 104.718Z" fill="url(#paint0_linear)"/>
<path d="M42.1849 94.9861L62.1852 74.9856L82.1868 94.9861L62.1852 114.987L42.1849 94.9861Z" fill="#16B9FD"/>
<path d="M117.168 59.987L82.1743 94.993L117.168 129.999H77.1806L42.1746 94.993L77.1806 59.987H117.168ZM77.1806 0L12.1874 64.9932L32.1872 84.9931L117.168 0H77.1806V0Z" fill="url(#paint1_radial)"/>
<defs>
<linearGradient id="paint0_linear" x1="68.0111" y1="118.853" x2="82.9065" y2="103.957" gradientUnits="userSpaceOnUse">
<stop stop-color="#1A237E" stop-opacity="0.4"/>
<stop offset="1" stop-color="#1A237E" stop-opacity="0"/>
</linearGradient>
<radialGradient id="paint1_radial" cx="0" cy="0" r="1" gradientUnits="userSpaceOnUse" gradientTransform="translate(15.1366 8.86035) scale(159.038)">
<stop stop-color="white" stop-opacity="0.1"/>
<stop offset="1" stop-color="white" stop-opacity="0"/>
</radialGradient>
</defs>
</svg>
