<svg width="130" height="130" fill="none" xmlns="http://www.w3.org/2000/svg"><path d="M14.083 57.363L45.392 26l9.154 9.209c-1.3 4.604.812 9.641 5.037 12.079v30.008c-3.25 1.842-5.416 5.363-5.416 9.371a10.833 10.833 0 0021.666 0c0-4.008-2.166-7.53-5.416-9.37V50.97l11.212 11.321c-.379.813-.379 1.733-.379 2.708a10.833 10.833 0 1010.833-10.833c-.975 0-1.895 0-2.708.38l-13.92-13.922c1.407-5.037-1.192-10.562-6.23-12.675-2.33-.866-4.767-1.083-6.933-.487l-9.209-9.154 4.28-4.225a10.692 10.692 0 0115.275 0l43.279 43.279a10.693 10.693 0 010 15.275l-43.28 43.279a10.693 10.693 0 01-15.275 0l-43.279-43.28a10.692 10.692 0 010-15.274z" fill="#E64A19"/></svg>