<svg width="130" height="130" fill="none" xmlns="http://www.w3.org/2000/svg"><path d="M27.083 16.25h10.834v10.833H27.083v27.084A10.833 10.833 0 0116.25 65a10.833 10.833 0 0110.833 10.833v27.084h10.834v10.833H27.083c-5.795-1.463-10.833-4.875-10.833-10.833V81.25A10.833 10.833 0 005.417 70.417H0V59.583h5.417A10.833 10.833 0 0016.25 48.75V27.083A10.834 10.834 0 0127.083 16.25zm75.834 0a10.834 10.834 0 0110.833 10.833V48.75a10.832 10.832 0 0010.833 10.833H130v10.834h-5.417A10.833 10.833 0 00113.75 81.25v21.667a10.832 10.832 0 01-10.833 10.833H92.083v-10.833h10.834V75.833A10.832 10.832 0 01113.75 65a10.832 10.832 0 01-10.833-10.833V27.083H92.083V16.25h10.834zM65 81.25a5.417 5.417 0 110 10.834 5.417 5.417 0 010-10.834zm-21.667 0a5.417 5.417 0 110 10.834 5.417 5.417 0 010-10.834zm43.334 0a5.417 5.417 0 110 10.833 5.417 5.417 0 010-10.833z" fill="#FBC02D"/></svg>