<svg fill="none" height="130" width="130" xmlns="http://www.w3.org/2000/svg" xmlns:xlink="http://www.w3.org/1999/xlink"><filter id="h" color-interpolation-filters="sRGB" filterUnits="userSpaceOnUse" height="18.201" width="29.579" x="49.964" y="35.705"><feFlood flood-opacity="0" result="BackgroundImageFix"/><feBlend in="SourceGraphic" in2="BackgroundImageFix" result="shape"/><feGaussianBlur result="effect1_foregroundBlur" stdDeviation=".436"/></filter><filter id="i" color-interpolation-filters="sRGB" filterUnits="userSpaceOnUse" height="12.871" width="27.405" x="50.211" y="34.98"><feFlood flood-opacity="0" result="BackgroundImageFix"/><feBlend in="SourceGraphic" in2="BackgroundImageFix" result="shape"/><feGaussianBlur result="effect1_foregroundBlur" stdDeviation=".192"/></filter><filter id="l" color-interpolation-filters="sRGB" filterUnits="userSpaceOnUse" height="14.4" width="27.402" x="50.052" y="27.975"><feFlood flood-opacity="0" result="BackgroundImageFix"/><feBlend in="SourceGraphic" in2="BackgroundImageFix" result="shape"/><feGaussianBlur result="effect1_foregroundBlur" stdDeviation=".292"/></filter><filter id="n" color-interpolation-filters="sRGB" filterUnits="userSpaceOnUse" height="8.512" width="8.886" x="71" y="5.531"><feFlood flood-opacity="0" result="BackgroundImageFix"/><feBlend in="SourceGraphic" in2="BackgroundImageFix" result="shape"/><feGaussianBlur result="effect1_foregroundBlur" stdDeviation=".429"/></filter><filter id="o" color-interpolation-filters="sRGB" filterUnits="userSpaceOnUse" height="1.457" width="1.859" x="70.676" y="26.613"><feFlood flood-opacity="0" result="BackgroundImageFix"/><feBlend in="SourceGraphic" in2="BackgroundImageFix" result="shape"/><feGaussianBlur result="effect1_foregroundBlur" stdDeviation=".053"/></filter><filter id="p" color-interpolation-filters="sRGB" filterUnits="userSpaceOnUse" height="3.437" width="3.481" x="70.573" y="24.614"><feFlood flood-opacity="0" result="BackgroundImageFix"/><feBlend in="SourceGraphic" in2="BackgroundImageFix" result="shape"/><feGaussianBlur result="effect1_foregroundBlur" stdDeviation=".111"/></filter><filter id="r" color-interpolation-filters="sRGB" filterUnits="userSpaceOnUse" height="6.288" width="6.803" x="71.672" y="16.532"><feFlood flood-opacity="0" result="BackgroundImageFix"/><feBlend in="SourceGraphic" in2="BackgroundImageFix" result="shape"/><feGaussianBlur result="effect1_foregroundBlur" stdDeviation=".032"/></filter><filter id="t" color-interpolation-filters="sRGB" filterUnits="userSpaceOnUse" height="5.602" width="6.357" x="53.699" y="17.388"><feFlood flood-opacity="0" result="BackgroundImageFix"/><feBlend in="SourceGraphic" in2="BackgroundImageFix" result="shape"/><feGaussianBlur result="effect1_foregroundBlur" stdDeviation=".029"/></filter><filter id="v" color-interpolation-filters="sRGB" filterUnits="userSpaceOnUse" height="4.104" width="2.723" x="54.291" y="25.03"><feFlood flood-opacity="0" result="BackgroundImageFix"/><feBlend in="SourceGraphic" in2="BackgroundImageFix" result="shape"/><feGaussianBlur result="effect1_foregroundBlur" stdDeviation=".11"/></filter><filter id="y" color-interpolation-filters="sRGB" filterUnits="userSpaceOnUse" height="5.022" width="6.812" x="56.655" y="39.445"><feFlood flood-opacity="0" result="BackgroundImageFix"/><feBlend in="SourceGraphic" in2="BackgroundImageFix" result="shape"/><feGaussianBlur result="effect1_foregroundBlur" stdDeviation=".193"/></filter><filter id="z" color-interpolation-filters="sRGB" filterUnits="userSpaceOnUse" height="10.624" width="23.67" x="51.312" y="32.503"><feFlood flood-opacity="0" result="BackgroundImageFix"/><feBlend in="SourceGraphic" in2="BackgroundImageFix" result="shape"/><feGaussianBlur result="effect1_foregroundBlur" stdDeviation=".162"/></filter><filter id="B" color-interpolation-filters="sRGB" filterUnits="userSpaceOnUse" height="7.529" width="6.235" x="61.288" y="32.89"><feFlood flood-opacity="0" result="BackgroundImageFix"/><feBlend in="SourceGraphic" in2="BackgroundImageFix" result="shape"/><feGaussianBlur result="effect1_foregroundBlur" stdDeviation=".182"/></filter><filter id="C" color-interpolation-filters="sRGB" filterUnits="userSpaceOnUse" height="1.388" width="2.559" x="63.457" y="30.384"><feFlood flood-opacity="0" result="BackgroundImageFix"/><feBlend in="SourceGraphic" in2="BackgroundImageFix" result="shape"/><feGaussianBlur result="effect1_foregroundBlur" stdDeviation=".024"/></filter><filter id="E" color-interpolation-filters="sRGB" filterUnits="userSpaceOnUse" height="1.185" width="1.084" x="57.633" y="30.608"><feFlood flood-opacity="0" result="BackgroundImageFix"/><feBlend in="SourceGraphic" in2="BackgroundImageFix" result="shape"/><feGaussianBlur result="effect1_foregroundBlur" stdDeviation=".024"/></filter><filter id="G" color-interpolation-filters="sRGB" filterUnits="userSpaceOnUse" height="3.369" width="2.804" x="74.348" y="34.081"><feFlood flood-opacity="0" result="BackgroundImageFix"/><feBlend in="SourceGraphic" in2="BackgroundImageFix" result="shape"/><feGaussianBlur result="effect1_foregroundBlur" stdDeviation=".073"/></filter><filter id="I" color-interpolation-filters="sRGB" filterUnits="userSpaceOnUse" height="36.43" width="13.401" x="87.088" y="60.35"><feFlood flood-opacity="0" result="BackgroundImageFix"/><feBlend in="SourceGraphic" in2="BackgroundImageFix" result="shape"/><feGaussianBlur result="effect1_foregroundBlur" stdDeviation=".292"/></filter><filter id="J" color-interpolation-filters="sRGB" filterUnits="userSpaceOnUse" height="15.13" width="16.13" x="40.587" y="54.267"><feFlood flood-opacity="0" result="BackgroundImageFix"/><feBlend in="SourceGraphic" in2="BackgroundImageFix" result="shape"/><feGaussianBlur result="effect1_foregroundBlur" stdDeviation=".148"/></filter><filter id="L" color-interpolation-filters="sRGB" filterUnits="userSpaceOnUse" height="17.199" width="24.379" x="63.715" y="52.933"><feFlood flood-opacity="0" result="BackgroundImageFix"/><feBlend in="SourceGraphic" in2="BackgroundImageFix" result="shape"/><feGaussianBlur result="effect1_foregroundBlur" stdDeviation=".244"/></filter><filter id="N" color-interpolation-filters="sRGB" filterUnits="userSpaceOnUse" height="10.765" width="10.112" x="54.58" y="54.946"><feFlood flood-opacity="0" result="BackgroundImageFix"/><feBlend in="SourceGraphic" in2="BackgroundImageFix" result="shape"/><feGaussianBlur result="effect1_foregroundBlur" stdDeviation=".168"/></filter><filter id="P" color-interpolation-filters="sRGB" filterUnits="userSpaceOnUse" height="27.362" width="3.087" x="54.779" y="69.48"><feFlood flood-opacity="0" result="BackgroundImageFix"/><feBlend in="SourceGraphic" in2="BackgroundImageFix" result="shape"/><feGaussianBlur result="effect1_foregroundBlur" stdDeviation=".31"/></filter><filter id="Q" color-interpolation-filters="sRGB" filterUnits="userSpaceOnUse" height="6.673" width="6.071" x="80.836" y="38.99"><feFlood flood-opacity="0" result="BackgroundImageFix"/><feBlend in="SourceGraphic" in2="BackgroundImageFix" result="shape"/><feGaussianBlur result="effect1_foregroundBlur" stdDeviation=".193"/></filter><filter id="R" color-interpolation-filters="sRGB" filterUnits="userSpaceOnUse" height="35.741" width="32.994" x="79.722" y="95.056"><feFlood flood-opacity="0" result="BackgroundImageFix"/><feBlend in="SourceGraphic" in2="BackgroundImageFix" result="shape"/><feGaussianBlur result="effect1_foregroundBlur" stdDeviation=".48"/></filter><filter id="U" color-interpolation-filters="sRGB" filterUnits="userSpaceOnUse" height="38.995" width="38.511" x="82.705" y="89.903"><feFlood flood-opacity="0" result="BackgroundImageFix"/><feBlend in="SourceGraphic" in2="BackgroundImageFix" result="shape"/><feGaussianBlur result="effect1_foregroundBlur" stdDeviation="1.024"/></filter><filter id="V" color-interpolation-filters="sRGB" filterUnits="userSpaceOnUse" height="35.905" width="36.07" x="84.548" y="87.713"><feFlood flood-opacity="0" result="BackgroundImageFix"/><feBlend in="SourceGraphic" in2="BackgroundImageFix" result="shape"/><feGaussianBlur result="effect1_foregroundBlur" stdDeviation=".807"/></filter><filter id="W" color-interpolation-filters="sRGB" filterUnits="userSpaceOnUse" height="4.284" width="24.356" x="85.571" y="92.191"><feFlood flood-opacity="0" result="BackgroundImageFix"/><feBlend in="SourceGraphic" in2="BackgroundImageFix" result="shape"/><feGaussianBlur result="effect1_foregroundBlur" stdDeviation=".103"/></filter><filter id="Y" color-interpolation-filters="sRGB" filterUnits="userSpaceOnUse" height="6.443" width="6.35" x="90.497" y="66.131"><feFlood flood-opacity="0" result="BackgroundImageFix"/><feBlend in="SourceGraphic" in2="BackgroundImageFix" result="shape"/><feGaussianBlur result="effect1_foregroundBlur" stdDeviation=".491"/></filter><filter id="Z" color-interpolation-filters="sRGB" filterUnits="userSpaceOnUse" height="2.424" width="2.368" x="45.458" y="49.195"><feFlood flood-opacity="0" result="BackgroundImageFix"/><feBlend in="SourceGraphic" in2="BackgroundImageFix" result="shape"/><feGaussianBlur result="effect1_foregroundBlur" stdDeviation=".137"/></filter><filter id="aa" color-interpolation-filters="sRGB" filterUnits="userSpaceOnUse" height="15.124" width="17.253" x="89.584" y="92.402"><feFlood flood-opacity="0" result="BackgroundImageFix"/><feBlend in="SourceGraphic" in2="BackgroundImageFix" result="shape"/><feGaussianBlur result="effect1_foregroundBlur" stdDeviation=".609"/></filter><filter id="ac" color-interpolation-filters="sRGB" filterUnits="userSpaceOnUse" height="10.117" width="15.761" x="90.33" y="93.188"><feFlood flood-opacity="0" result="BackgroundImageFix"/><feBlend in="SourceGraphic" in2="BackgroundImageFix" result="shape"/><feGaussianBlur result="effect1_foregroundBlur" stdDeviation=".236"/></filter><filter id="ae" color-interpolation-filters="sRGB" filterUnits="userSpaceOnUse" height="7.988" width="16.076" x="91.449" y="86.783"><feFlood flood-opacity="0" result="BackgroundImageFix"/><feBlend in="SourceGraphic" in2="BackgroundImageFix" result="shape"/><feGaussianBlur result="effect1_foregroundBlur" stdDeviation=".22"/></filter><filter id="ag" color-interpolation-filters="sRGB" filterUnits="userSpaceOnUse" height="7.988" width="16.076" x="91.449" y="86.783"><feFlood flood-opacity="0" result="BackgroundImageFix"/><feBlend in="SourceGraphic" in2="BackgroundImageFix" result="shape"/><feGaussianBlur result="effect1_foregroundBlur" stdDeviation=".22"/></filter><filter id="ai" color-interpolation-filters="sRGB" filterUnits="userSpaceOnUse" height="19.68" width="8.67" x="31.278" y="71.123"><feFlood flood-opacity="0" result="BackgroundImageFix"/><feBlend in="SourceGraphic" in2="BackgroundImageFix" result="shape"/><feGaussianBlur result="effect1_foregroundBlur" stdDeviation=".243"/></filter><filter id="ak" color-interpolation-filters="sRGB" filterUnits="userSpaceOnUse" height="41.132" width="41.478" x="12.018" y="88.515"><feFlood flood-opacity="0" result="BackgroundImageFix"/><feBlend in="SourceGraphic" in2="BackgroundImageFix" result="shape"/><feGaussianBlur result="effect1_foregroundBlur" stdDeviation=".841"/></filter><filter id="al" color-interpolation-filters="sRGB" filterUnits="userSpaceOnUse" height="37.91" width="35.833" x="13.983" y="87.506"><feFlood flood-opacity="0" result="BackgroundImageFix"/><feBlend in="SourceGraphic" in2="BackgroundImageFix" result="shape"/><feGaussianBlur result="effect1_foregroundBlur" stdDeviation=".517"/></filter><filter id="am" color-interpolation-filters="sRGB" filterUnits="userSpaceOnUse" height="21.088" width="11.769" x="37.745" y="95.567"><feFlood flood-opacity="0" result="BackgroundImageFix"/><feBlend in="SourceGraphic" in2="BackgroundImageFix" result="shape"/><feGaussianBlur result="effect1_foregroundBlur" stdDeviation=".079"/></filter><linearGradient id="a"><stop offset="0" stop-color="#fefefc"/><stop offset=".757" stop-color="#fefefc"/><stop offset="1" stop-color="#d4d4d4"/></linearGradient><radialGradient id="j" cx="0" cy="0" gradientTransform="matrix(108.2042 -4.55402 11.14662 264.84554 1680.851 2451.56)" gradientUnits="userSpaceOnUse" r="1" xlink:href="#a"/><radialGradient id="k" cx="0" cy="0" gradientTransform="matrix(193.79826 -6.12425 8.85013 280.0572 3017.24 2567.63)" gradientUnits="userSpaceOnUse" r="1" xlink:href="#a"/><radialGradient id="m" cx="0" cy="0" gradientTransform="matrix(143.69829 -104.4355 69.2811 95.32752 3218.78 -847.014)" gradientUnits="userSpaceOnUse" r="1"><stop offset="0" stop-color="#020204"/><stop offset=".734" stop-color="#020204"/><stop offset="1" stop-color="#5c5c5c"/></radialGradient><radialGradient id="x" cx="0" cy="0" gradientTransform="matrix(773.65764 -319.32107 110.93825 268.78346 7972.95 -1287.07)" gradientUnits="userSpaceOnUse" r="1"><stop offset="0" stop-color="#d2940a"/><stop offset=".751" stop-color="#d89c08"/><stop offset=".866" stop-color="#b67e07"/><stop offset="1" stop-color="#946106"/></radialGradient><linearGradient id="b"><stop offset="0" stop-color="#3a2903"/><stop offset=".555" stop-color="#735208"/><stop offset="1" stop-color="#ac8c04"/></linearGradient><radialGradient id="D" cx="0" cy="0" gradientTransform="matrix(7.96145 0 0 2.43737 254.954 141.696)" gradientUnits="userSpaceOnUse" r="1" xlink:href="#b"/><radialGradient id="F" cx="0" cy="0" gradientTransform="matrix(1.51911 0 0 1.80083 120.151 203.589)" gradientUnits="userSpaceOnUse" r="1" xlink:href="#b"/><linearGradient id="c"><stop offset="0"/><stop offset="1" stop-opacity=".25"/></linearGradient><radialGradient id="K" cx="0" cy="0" gradientTransform="matrix(-297.249 0 0 -303.967 -3462.91 2503.06)" gradientUnits="userSpaceOnUse" r="1" xlink:href="#c"/><radialGradient id="M" cx="0" cy="0" gradientTransform="matrix(641.048 0 0 339.233 7243.76 2979.17)" gradientUnits="userSpaceOnUse" r="1" xlink:href="#c"/><radialGradient id="O" cx="0" cy="0" gradientTransform="matrix(102.374 0 0 117.026 2530.31 2480.12)" gradientUnits="userSpaceOnUse" r="1" xlink:href="#c"/><linearGradient id="d"><stop offset="0" stop-color="#110800"/><stop offset=".591" stop-color="#a65a00" stop-opacity=".8"/><stop offset="1" stop-color="#ff921e" stop-opacity="0"/></linearGradient><radialGradient id="ab" cx="0" cy="0" gradientTransform="matrix(326.52543 87.49223 -78.64294 293.49946 5540.33 7215.42)" gradientUnits="userSpaceOnUse" r="1" xlink:href="#d"/><radialGradient id="ad" cx="0" cy="0" gradientTransform="matrix(326.52641 63.25032 -42.4581 219.18766 5540.33 5242.19)" gradientUnits="userSpaceOnUse" r="1" xlink:href="#d"/><linearGradient id="e"><stop offset="0" stop-color="#7c7c7c"/><stop offset="1" stop-color="#7c7c7c" stop-opacity=".33"/></linearGradient><radialGradient id="af" cx="0" cy="0" gradientTransform="matrix(112.44788 48.94438 -10.58164 24.31092 2064.6 1293.16)" gradientUnits="userSpaceOnUse" r="1" xlink:href="#e"/><linearGradient id="q" gradientUnits="userSpaceOnUse" x1="990.785" x2="1010.83" y1="422.095" y2="446.185"><stop offset="0" stop-color="#949494" stop-opacity=".392"/><stop offset=".5" stop-color="#949494"/><stop offset="1" stop-color="#949494" stop-opacity=".392"/></linearGradient><linearGradient id="f"><stop offset="0" stop-color="#646464" stop-opacity="0"/><stop offset=".306" stop-color="#646464" stop-opacity=".583"/><stop offset=".47" stop-color="#646464"/><stop offset=".728" stop-color="#646464" stop-opacity=".257"/><stop offset="1" stop-color="#646464" stop-opacity="0"/></linearGradient><linearGradient id="s" gradientUnits="userSpaceOnUse" x1="175.288" x2="263.086" xlink:href="#f" y1="666.948" y2="756.772"/><linearGradient id="u" gradientUnits="userSpaceOnUse" x1="-107.113" x2="-33.856" xlink:href="#f" y1="602.609" y2="682.881"/><linearGradient id="w" gradientUnits="userSpaceOnUse" x1="429.11" x2="454.053" y1="509.225" y2="537.015"><stop offset="0" stop-color="#757574" stop-opacity="0"/><stop offset=".263" stop-color="#757574"/><stop offset=".5" stop-color="#757574"/><stop offset="1" stop-color="#757574" stop-opacity="0"/></linearGradient><linearGradient id="A" gradientUnits="userSpaceOnUse" x1="1280.34" x2="2762.33" y1="2123.76" y2="2100.76"><stop offset="0" stop-color="#ad780a"/><stop offset=".12" stop-color="#d89e08"/><stop offset=".255" stop-color="#edb80b"/><stop offset=".392" stop-color="#ebc80d"/><stop offset=".527" stop-color="#f5d838"/><stop offset=".769" stop-color="#f6d811"/><stop offset="1" stop-color="#f5cd31"/></linearGradient><linearGradient id="H" gradientUnits="userSpaceOnUse" x1="624.906" x2="626.483" y1="517.189" y2="525.37"><stop offset="0" stop-color="#f5ce2d"/><stop offset="1" stop-color="#d79b08"/></linearGradient><linearGradient id="S" gradientUnits="userSpaceOnUse" x1="959.695" x2="1095.31" y1="11051.3" y2="11981.4"><stop offset="0"/><stop offset="1" stop-opacity="0"/></linearGradient><linearGradient id="T" gradientUnits="userSpaceOnUse" x1="16718.3" x2="18609.9" y1="14512.5" y2="11538.8"><stop offset="0" stop-color="#3e2a06"/><stop offset="1" stop-color="#ad780a"/></linearGradient><linearGradient id="X" gradientUnits="userSpaceOnUse" x1="1167.27" x2="1166.37" y1="1214.22" y2="1264.12"><stop offset="0" stop-color="#f3cd0c"/><stop offset="1" stop-color="#f3cd0c" stop-opacity="0"/></linearGradient><linearGradient id="ah" gradientUnits="userSpaceOnUse" x1="5540.35" x2="5585.67" xlink:href="#e" y1="2073.39" y2="2069.36"/><linearGradient id="aj" gradientUnits="userSpaceOnUse" x1="5118.5" x2="7066.12" y1="12458" y2="15761.6"><stop offset="0" stop-color="#b98309"/><stop offset="1" stop-color="#382605"/></linearGradient><linearGradient id="an" gradientUnits="userSpaceOnUse" x1="1996.63" x2="2373.03" y1="6788.78" y2="7179.42"><stop offset="0" stop-color="#ebc40c"/><stop offset="1" stop-color="#ebc40c" stop-opacity="0"/></linearGradient><clipPath id="g"><path d="M0 0h130v130H0z"/></clipPath><g clip-path="url(#g)"><g fill="#020204"><path d="M91.913 46.016c1.416 3.085 2.998 6.093 4.403 9.184 2.705 5.948 4.76 12.229 5.613 18.707s.482 13.168-1.541 19.379c-2.288 7.012-6.632 13.25-11.954 18.355-6.296 6.04-14.377 10.696-23.095 11.039-5.68.224-11.336-1.4-16.366-4.048-4.228-2.225-8.087-5.19-11.166-8.842-3.08-3.652-5.366-8.001-6.424-12.66-1.304-5.736-.714-11.826 1.26-17.368 1.41-3.964 3.502-7.654 4.991-11.588 1.628-4.3 2.536-8.89 4.692-12.95 1.954-3.682 4.885-6.826 6.442-10.692.93-2.31 1.334-4.79 1.934-7.205.6-2.416 1.441-4.85 3.077-6.726 1.97-2.262 4.936-3.487 7.915-3.832 2.98-.344 5.995.12 8.92.788a60.96 60.96 0 016.877 1.99c1.92.683 3.823 1.479 5.484 2.66 2.263 1.61 3.986 3.878 5.359 6.292s2.424 4.994 3.583 7.517z"/><path d="M66.897 122.735a78.75 78.75 0 017.154.73c2.085.317 4.155.725 6.205 1.224 3.21.778 6.409 1.77 9.71 1.864.87.025 1.741-.014 2.594-.203s1.672-.533 2.352-1.075c1.014-.808 1.654-2.027 1.896-3.301.242-1.275.09-2.601-.283-3.843-.746-2.482-2.35-4.601-3.671-6.83-.76-1.275-1.436-2.602-2.259-3.838-.822-1.235-1.805-2.393-3.054-3.198-1.727-1.113-3.868-1.476-5.912-1.272-2.044.203-4.003.942-5.827 1.886-2.557 1.324-4.964 3.142-6.358 5.662-.485.877-.838 1.819-1.25 2.732-.412.914-.894 1.813-1.592 2.532-.78.802-1.79 1.342-2.595 2.116-.403.392-.755.838-.958 1.357-.202.519-.257 1.112-.07 1.638.13.362.366.678.658.927.291.249.636.431.998.557.722.254 1.501.292 2.266.336z"/><path d="M59.782 122.581c-1.994.046-3.968.403-5.918.807a107.59 107.59 0 00-5.571 1.3c-3.113.817-6.23 1.796-9.448 1.864-.847.017-1.7-.028-2.525-.219-.826-.191-1.625-.531-2.287-1.06-1.012-.806-1.655-2.023-1.893-3.294-.238-1.272-.093-2.596.276-3.836.739-2.48 2.322-4.604 3.619-6.843.737-1.273 1.387-2.596 2.184-3.832.796-1.237 1.756-2.397 2.985-3.205 1.674-1.101 3.762-1.474 5.757-1.278 1.994.197 3.905.932 5.664 1.893 2.483 1.356 4.75 3.222 6.186 5.656 1.008 1.711 1.589 3.667 2.766 5.265.634.861 1.436 1.604 1.958 2.534.264.465.457.977.502 1.51s-.065 1.087-.366 1.529a2.31 2.31 0 01-.78.704 3.4 3.4 0 01-.992.362c-.696.144-1.406.121-2.113.139zM48.637 39.517c-.28-3.372-.218-6.764-.34-10.146-.12-3.251-.42-6.502-.311-9.754.111-3.307.666-6.658 2.138-9.63 1.473-2.972 3.864-5.486 6.782-7.059C59.648 1.448 62.81.816 65.93.85c4.23.047 8.47 1.324 11.894 3.805C79.97 6.21 81.776 8.214 83.2 10.45a22.48 22.48 0 012.752 6.18c1.216 4.481.927 9.202 1.164 13.835.224 4.392.927 8.773.687 13.163-.052.958-.154 1.93-.58 2.785-.414.834-1.117 1.504-1.925 1.966s-1.718.725-2.637.867c-1.84.284-3.72.096-5.574.268-2.689.25-5.254 1.247-7.923 1.66-3.176.492-6.421.144-9.638.015-1.288-.052-2.58-.068-3.858-.228-1.279-.16-2.555-.47-3.692-1.077a6.65 6.65 0 01-1.87-1.458 5.116 5.116 0 01-1.12-2.078c-.3-1.155-.142-2.37-.138-3.563.005-1.09-.122-2.177-.217-3.264l.005-.003z"/></g><path d="M53.698 38.218c-.456.57-.752 1.256-.931 1.964-.18.708-.245 1.44-.273 2.169-.056 1.459.033 2.946-.353 4.354-.413 1.506-1.338 2.81-2.244 4.08-1.57 2.203-3.155 4.461-3.928 7.051a12.517 12.517 0 00-.456 4.859 51.339 51.339 0 00-4.536 8.172c-1.909 4.326-3.218 8.932-3.68 13.637-.563 5.763.174 11.69 2.45 17.013 1.644 3.85 4.098 7.374 7.26 10.116a24.726 24.726 0 005.31 3.524c6.619 3.253 14.8 3.259 21.31-.209 3.402-1.813 6.274-4.464 9.042-7.146 1.668-1.615 3.327-3.269 4.598-5.211 2.449-3.74 3.302-8.284 3.832-12.722.927-7.76.956-15.957-2.446-22.992a25.366 25.366 0 00-4.604-6.589 36.095 36.095 0 00-2.912-9.809c-1.031-2.243-2.292-4.378-3.25-6.653-.394-.935-.74-1.891-1.172-2.806-.433-.915-.975-1.795-1.708-2.495-.75-.718-1.684-1.227-2.67-1.552-.986-.326-2.023-.473-3.06-.525-2.073-.105-4.15.166-6.224.084-1.652-.065-3.298-.355-4.948-.257-.825.048-1.65.195-2.415.506-.766.312-1.472.791-1.987 1.436h-.005z" fill="#fdfdfb"/><g filter="url(#h)"><path d="M52.681 45.957c.741 2.149 2.233 3.983 3.998 5.415.587.477 1.21.916 1.9 1.226.689.31 1.45.487 2.202.423.738-.063 1.44-.352 2.084-.716.646-.364 1.243-.804 1.869-1.2 1.071-.679 2.219-1.227 3.332-1.836 1.34-.734 2.64-1.567 3.77-2.594.517-.472 1-.987 1.57-1.392.571-.406 1.255-.7 1.953-.652.524.036 1.015.259 1.528.37.261.055.522.082.782.042s.514-.15.696-.34c.222-.231.32-.565.304-.887a2.206 2.206 0 00-.274-.917c-.3-.57-.755-1.06-.957-1.67-.18-.544-.144-1.132-.128-1.703.016-.572.003-1.17-.261-1.679a2.176 2.176 0 00-.924-.898c-.385-.204-.818-.304-1.251-.35-.868-.081-1.738.087-2.608.137-1.156.065-2.316-.08-3.472-.01-1.44.087-2.853.505-4.296.507-1.648.003-3.294-.536-4.921-.278-.698.11-1.364.364-2.035.588-.67.224-1.363.42-2.07.41-.802-.01-1.58-.289-2.38-.346-.4-.029-.81 0-1.186.14-.376.141-.716.403-.9.76a1.595 1.595 0 00-.168.663c-.01.23.022.46.077.683.111.446.315.863.479 1.291.606 1.547.736 3.241 1.278 4.811l.01.002z" fill="#000" fill-opacity=".26"/></g><g filter="url(#i)" opacity=".3"><path d="M50.615 39.833c1.44.89 2.732 1.982 3.816 3.228 1.007 1.156 1.863 2.466 3.177 3.323.928.604 2.043.945 3.174 1.048 1.328.122 2.672-.075 3.952-.422a14.6 14.6 0 003.386-1.37c2.001-1.137 3.673-2.803 5.875-3.55.482-.164.983-.28 1.448-.481.464-.202.9-.503 1.122-.93.218-.41.205-.882.275-1.332.073-.481.24-.947.332-1.425.091-.48.102-.991-.122-1.431-.186-.365-.524-.653-.914-.836s-.826-.266-1.263-.286c-.873-.04-1.736.166-2.606.24-1.153.096-2.314-.04-3.471-.009-1.44.04-2.858.341-4.297.403-1.641.072-3.278-.167-4.92-.22-.71-.024-1.426-.012-2.126.101-.7.114-1.387.33-1.98.692-.574.351-1.043.828-1.57 1.238a4.514 4.514 0 01-.85.54 2.617 2.617 0 01-.987.257c-.178.008-.357-.006-.531.02a1.185 1.185 0 00-.413.144 1.094 1.094 0 00-.321.28 1 1 0 00-.18.373.959.959 0 00-.01.407z" fill="#000"/></g><path d="M54.363 20.18c-.775.042-1.517.4-2.084.93s-.966 1.223-1.212 1.96c-.492 1.472-.381 3.068-.27 4.612.101 1.402.205 2.83.73 4.135a5.43 5.43 0 001.122 1.769c.492.506 1.11.888 1.792 1.059.64.16 1.322.127 1.951-.07a4.227 4.227 0 001.674-1.018c.687-.673 1.15-1.552 1.415-2.476.266-.924.341-1.894.328-2.855-.018-1.203-.174-2.41-.551-3.552s-.978-2.221-1.816-3.084a5.124 5.124 0 00-1.393-1.043 3.431 3.431 0 00-1.688-.371z" fill="url(#j)"/><path d="M68.078 20.18c-1.21.826-2.224 1.99-2.72 3.372-.625 1.742-.386 3.69.218 5.44.618 1.791 1.65 3.498 3.211 4.574.78.538 1.683.906 2.624 1.018.94.112 1.919-.041 2.759-.479 1.024-.533 1.805-1.467 2.29-2.515.484-1.047.691-2.206.756-3.36.087-1.468-.061-2.96-.544-4.35-.524-1.51-1.48-2.903-2.817-3.772a5.5 5.5 0 00-2.223-.842 4.746 4.746 0 00-2.357.262 5.94 5.94 0 00-1.197.653z" fill="url(#k)"/><g filter="url(#l)" opacity=".3"><path d="M54.105 32.709l-2.235 2.038c-.393.397-.787.82-.964 1.35-.156.47-.127.98-.204 1.47-.026.168-.066.335-.066.505a.86.86 0 00.033.252.554.554 0 00.125.22.69.69 0 00.372.187c.138.028.28.031.421.047.634.068 1.218.375 1.743.737l1.544 1.125c1.188.755 2.608 1.09 4.015 1.143 1.407.054 2.81-.16 4.19-.437 1.097-.22 2.191-.478 3.232-.89 1.593-.628 3.03-1.595 4.402-2.62.624-.465 1.239-.945 1.799-1.486.19-.183.374-.374.578-.542a2.1 2.1 0 01.681-.395c.383-.123.8-.088 1.196-.022.299.05.599.118.902.105.151-.007.303-.033.444-.09a.91.91 0 00.366-.26.879.879 0 00.193-.554c0-.2-.061-.396-.161-.568-.203-.343-.552-.575-.916-.737-.499-.222-1.039-.331-1.57-.46a22.466 22.466 0 01-4.715-1.72c-.747-.371-1.472-.782-2.207-1.175-.755-.405-1.525-.794-2.345-1.042-1.834-.556-3.838-.374-5.647.255a12.075 12.075 0 00-5.207 3.563h.001z" fill="#000"/></g><path d="M58.004 30.406c.769-.865 1.295-1.92 2.034-2.81.37-.445.795-.85 1.298-1.139.502-.288 1.084-.452 1.66-.403.642.056 1.243.375 1.712.816.47.44.818 1 1.097 1.578.266.556.478 1.148.861 1.631.41.515.984.867 1.502 1.272.26.203.508.422.712.68.206.256.366.554.431.877.064.33.037.671-.08.986a2.21 2.21 0 01-.548.829c-.482.463-1.138.714-1.8.807-1.322.187-2.66-.207-3.996-.17-1.352.037-2.672.516-4.024.466-.676-.025-1.361-.19-1.916-.576a2.423 2.423 0 01-.695-.73 2 2 0 01-.293-.959c-.01-.322.065-.644.193-.94.13-.296.31-.567.515-.816.409-.5.908-.917 1.337-1.399z" fill="url(#m)"/><g filter="url(#n)"><path d="M73.079 6.467c-1.116.787-.629 1.77-.149 2.757s-1.055 3.83-1.071 3.953c-.017.122 3.02-1.442 3.848-2.458.978-1.2 3.448 1.623 3.315 1.193 0-.768-4.827-6.232-5.943-5.445z" fill="#7c7c7c"/></g><path d="M70.868 23.833a2.76 2.76 0 00-1.284.435 3.43 3.43 0 00-.973.948c-.517.752-.744 1.675-.78 2.585-.028.684.047 1.378.275 2.024.227.646.609 1.244 1.137 1.68.54.448 1.225.716 1.925.75.7.032 1.41-.17 1.984-.57a3.568 3.568 0 001.091-1.25 4.636 4.636 0 00.494-1.59c.128-.978-.016-1.999-.468-2.875-.453-.877-1.219-1.598-2.144-1.94a3.024 3.024 0 00-1.257-.193z" fill="#020204"/><g filter="url(#o)"><path d="M71.953 26.816c-.377.149-.973.055-1.138.425-.098.22.04.58.262.67.45.183 1.145-.148 1.327-.598.079-.196-.04-.505-.234-.588-.072-.03-.144.061-.216.09z" fill="#141413"/></g><g filter="url(#p)"><path d="M73.68 27.795c.505-.505-.36-1.845-1.033-2.394-.489-.397-1.91-.813-1.85-.38.061.433.697.986 1.13 1.408.527.52 1.514 1.606 1.753 1.366z" fill="url(#q)"/></g><g filter="url(#r)"><path d="M72.28 16.596a4.47 4.47 0 00-.544.857 7.674 7.674 0 012.623 1.115c1.543 1.024 2.715 2.522 3.536 4.188.192-.212.367-.44.517-.693-.826-1.736-2.02-3.305-3.617-4.365a7.727 7.727 0 00-2.515-1.1z" fill="url(#s)"/></g><g filter="url(#t)"><path d="M54.275 17.446c-.106-.002-.208.008-.314.012l-.204.013a5.639 5.639 0 011.781.47c.758.339 1.425.823 2.013 1.375 1.09 1.02 1.9 2.28 2.448 3.616a9.052 9.052 0 00-.898-2.898 9.406 9.406 0 00-.68-.718c-.587-.55-1.255-1.035-2.012-1.375a5.506 5.506 0 00-2.135-.495z" fill="url(#u)"/></g><path d="M52.495 26.598c-.162.978-.168 2.003.168 2.934.218.616.587 1.174 1.032 1.654.292.314.621.6 1.008.785.386.185.834.263 1.249.16.383-.096.719-.344.966-.652s.412-.676.53-1.053c.347-1.114.291-2.333-.053-3.448-.251-.813-.667-1.596-1.318-2.144a2.63 2.63 0 00-1.068-.56 1.86 1.86 0 00-1.191.095c-.41.187-.728.541-.936.94-.208.4-.314.845-.388 1.288v.001z" fill="#020204"/><g filter="url(#v)"><path d="M54.561 25.891c.105.276.459.376.653.599.188.216.386.439.49.707.197.511-.197 1.27.217 1.631.13.114.39.116.517 0 .498-.453.387-1.368.19-2.012-.178-.585-.62-1.139-1.166-1.417-.252-.128-.63-.235-.847-.052-.139.118-.119.374-.054.544z" fill="url(#w)"/></g><path d="M50.672 38.748c.027.128.076.252.143.365.116.194.284.351.467.483.182.133.38.244.57.364 1.016.638 1.844 1.536 2.579 2.483.986 1.272 1.859 2.683 3.177 3.608.93.652 2.043 1.024 3.174 1.138 1.327.133 2.671-.081 3.952-.458 1.186-.35 2.333-.84 3.386-1.488 2.002-1.234 3.673-3.043 5.874-3.854.482-.177.984-.304 1.448-.522.464-.219.9-.546 1.122-1.009.218-.445.205-.958.275-1.447.074-.522.24-1.028.332-1.547.091-.52.102-1.076-.122-1.554-.186-.396-.524-.708-.914-.907s-.826-.289-1.263-.31c-.873-.044-1.736.18-2.606.26-1.153.105-2.314-.043-3.471-.01-1.44.044-2.858.368-4.297.438-1.641.08-3.279-.174-4.92-.24-.712-.028-1.428-.021-2.13.099-.7.12-1.39.358-1.975.763-.57.394-1.025.93-1.549 1.385a3.967 3.967 0 01-.855.586 2.212 2.212 0 01-1.003.238c-.174-.004-.361-.033-.531.02a.72.72 0 00-.28.177c-.08.078-.146.169-.208.261a4.577 4.577 0 00-.377.678z" fill="url(#x)"/><g filter="url(#y)"><path d="M57.115 40.517a2.915 2.915 0 001.891 3.414c.86.288 1.83.147 2.635-.273.466-.244.892-.586 1.162-1.037.136-.226.226-.477.263-.738a1.627 1.627 0 00-.08-.777c-.1-.27-.279-.508-.5-.695a2.267 2.267 0 00-.753-.411c-.548-.181-1.136-.185-1.712-.157-.873.042-1.742.152-2.598.328" fill="#d9b30d"/></g><g filter="url(#z)"><path d="M54.29 35.114l-1.696 1.115c-.286.203-.58.422-.73.738-.108.224-.132.479-.131.727 0 .248.013.497-.02.74-.022.167-.068.333-.075.502a.811.811 0 00.024.252.522.522 0 00.12.222.64.64 0 00.283.16c.105.033.213.049.32.075.511.12.956.434 1.346.785l1.149 1.077c1.104.899 2.567 1.27 3.986 1.294 1.419.023 2.83-.274 4.219-.587l3.23-.89a14.242 14.242 0 004.404-2.62c.587-.511 1.138-1.073 1.798-1.486.583-.367 1.237-.609 1.83-.96a1.11 1.11 0 00.154-.102.452.452 0 00.117-.142.427.427 0 00.017-.311.812.812 0 00-.156-.276 1.914 1.914 0 00-.248-.252c-.62-.53-1.461-.723-2.274-.787-.814-.065-1.636-.019-2.437-.153-.757-.13-1.477-.41-2.207-.643a16.245 16.245 0 00-2.345-.57 15.538 15.538 0 00-5.647.14 16.504 16.504 0 00-5.022 1.949z" fill="#604405"/></g><path d="M54.105 33.144a10.351 10.351 0 00-2.235 2.039c-.365.448-.698.935-.882 1.484-.145.432-.194.89-.285 1.335-.035.167-.074.335-.074.505 0 .085.01.17.037.252a.562.562 0 00.128.22.71.71 0 00.373.184c.139.03.28.033.42.05.634.071 1.216.379 1.741.74l1.547 1.122c1.19.752 2.608 1.087 4.015 1.141 1.406.054 2.81-.16 4.19-.435 1.097-.219 2.191-.479 3.231-.89 1.594-.628 3.03-1.595 4.403-2.62.624-.466 1.239-.946 1.799-1.486.19-.184.374-.374.578-.542a2.1 2.1 0 01.681-.395c.383-.123.799-.088 1.196-.022.299.05.599.117.901.104.152-.006.304-.032.444-.088a.911.911 0 00.367-.261.88.88 0 00.193-.554c0-.2-.061-.396-.162-.568-.202-.344-.551-.576-.915-.737-.5-.222-1.039-.331-1.57-.46a22.46 22.46 0 01-4.715-1.72c-.747-.371-1.472-.782-2.207-1.176-.755-.404-1.525-.793-2.345-1.042-1.834-.555-3.839-.373-5.647.255a12.074 12.074 0 00-5.207 3.563z" fill="url(#A)"/><g filter="url(#B)"><path d="M66.986 33.547a.775.775 0 00-.392-.257 1.133 1.133 0 00-.472-.021c-.313.053-.593.217-.855.402a9.677 9.677 0 00-1.975 1.84c-.759.923-1.386 1.99-1.596 3.166a2.05 2.05 0 00-.034.6c.025.201.102.4.244.542a.829.829 0 00.47.227c.174.025.354 0 .521-.056.335-.113.614-.348.877-.583 1.451-1.299 2.764-2.858 3.29-4.734.052-.189.097-.382.095-.577a.897.897 0 00-.173-.549z" fill="#f6da4a"/></g><g filter="url(#C)" opacity=".8"><path d="M63.509 30.858c.1.323.621.27.922.424.264.136.476.434.773.442.283.01.725-.097.762-.378.049-.371-.493-.607-.842-.743-.448-.175-1.024-.264-1.445-.03-.096.054-.202.18-.169.285z" fill="url(#D)"/></g><g filter="url(#E)" opacity=".8"><path d="M58.538 30.67c-.386-.126-1.026.556-.817.906.057.096.233.217.35.152.179-.098.324-.448.517-.585.129-.092.1-.423-.05-.472z" fill="url(#F)"/></g><g filter="url(#G)"><path d="M75.577 37.303c.687 0 1.32-.688 1.416-1.537.095-.85-.384-1.538-1.07-1.538-.688 0-1.322.688-1.417 1.538-.095.849.385 1.537 1.071 1.537z" fill="url(#H)"/></g><path d="M93.905 65.039c2.648 2.13 4.328 5.346 4.847 8.704.406 2.62.142 5.307-.448 7.89-.59 2.584-1.502 5.08-2.407 7.572-.361.993-.723 1.996-.867 3.043s-.052 2.155.453 3.084c.578 1.064 1.659 1.797 2.82 2.142 1.147.341 2.385.334 3.546.045 1.161-.29 2.244-.855 3.189-1.589 2.4-1.863 3.848-4.765 4.409-7.75.56-2.987.302-6.07-.218-9.065-.711-4.081-1.907-8.072-3.429-11.926-1.12-2.835-2.43-5.622-4.26-8.06-1.792-2.384-4.05-4.391-5.805-6.803-1.22-1.675-2.197-3.546-3.658-5.015-.73-.735-1.584-1.363-2.55-1.739-.966-.375-2.05-.486-3.048-.204-1.314.37-2.393 1.405-2.96 2.646s-.672 2.665-.45 4.012c.288 1.739 1.082 3.352 1.979 4.87 1.012 1.713 2.185 3.362 3.714 4.636 1.596 1.33 3.526 2.206 5.144 3.507z" fill="#020204"/><g filter="url(#I)"><path d="M87.672 60.934l.665.599c1.625 1.329 2.49 2.822 4.137 4.124 2.696 2.13 5.431 5.806 5.96 9.164.413 2.62-.133 4.042-.8 7.131-.666 3.089-2.556 7.462-3.576 10.44-.408 1.188.824.698.662 1.95a7.566 7.566 0 00-.015 1.853l.031-.358c.196-1.707.719-3.348 1.29-4.958 1.095-3.1 2.353-6.136 3.22-9.316.868-3.18.772-5.467.32-8.2-.57-3.436-2.568-6.609-5.4-8.703-2.002-1.48-4.362-2.43-6.492-3.726z" fill="#838384"/></g><g filter="url(#J)" opacity=".25"><path d="M46.393 59.009c.442.663-.275 2.95 10.027 1.486 0 0-1.809.199-3.593.61-2.772.929-5.188 1.966-7.052 3.34-1.846 1.359-3.198 3.132-4.892 4.655 0 0 2.743-5.013 3.427-6.521.684-1.509-.114-1.436.427-3.662.541-2.225 1.865-4.354 1.865-4.354s-1.08 3.137-.21 4.445z" fill="url(#K)"/></g><g filter="url(#L)" opacity=".42"><path d="M79.522 58.41c-2.1 1.463-3.33 1.29-5.877 1.576-2.548.286-9.442.183-9.442.183s.998-.02 3.21.393c2.213.412 6.725.806 9.266 1.773 2.54.967 3.467 1.243 5.011 2.22 2.198 1.39 3.811 3.566 5.913 5.09 0 0 .101-2.021-.747-3.53-.849-1.51-3.133-3.889-3.8-6.11-.667-2.222-.99-6.585-.99-6.585s-.443 3.527-2.543 4.99z" fill="url(#M)"/></g><g filter="url(#N)" opacity=".2"><path d="M59.775 55.287l-.303 1.89c-.061.31-.129.618-.244.911s-.28.571-.513.782c-.205.184-.455.311-.705.426-.979.448-2.026.745-3.093.88l1.277.116c.267.029.536.061.797.128.261.068.516.175.733.33.238.173.425.412.565.672.279.519.372 1.115.424 1.697.065.75.07 1.505.014 2.256.05-.502.156-1 .314-1.479a6.424 6.424 0 011.357-2.344c.245-.265.514-.509.81-.717a4.478 4.478 0 013.148-.766 4.89 4.89 0 01-3.13-.972 4.06 4.06 0 01-1.123-1.264 3.53 3.53 0 01-.327-2.55z" fill="url(#O)"/></g><g filter="url(#P)" opacity=".1"><path d="M57.09 70.1a38.604 38.604 0 00-1.1 6.212c-.276 2.965-.21 5.95-.369 8.923-.13 2.523-.43 5.072.007 7.56a12.985 12.985 0 001.112 3.427c.084-.413.145-.831.183-1.251.186-2.018-.154-4.042-.269-6.064-.2-3.545.29-7.093.49-10.634a64.975 64.975 0 00-.054-8.173z" fill="#000"/></g><g filter="url(#Q)"><path d="M81.54 39.544c-.94.857.442 2.145 1.097 3.657.407.94 1.535 2.265 2.625 2.053.82-.16 1.329-1.34 1.251-2.171-.15-1.606-1.504-1.982-2.488-2.533-.778-.437-1.824-1.607-2.484-1.005v-.001z" fill="#838384"/></g><g filter="url(#R)" opacity=".2"><path d="M111.726 109.721a7.146 7.146 0 01-.916 1.919c-.885 1.311-2.169 2.298-3.453 3.207-2.189 1.552-4.47 2.976-6.507 4.743-1.366 1.182-2.61 2.507-3.764 3.902-.987 1.192-1.915 2.445-3.039 3.506-1.135 1.07-2.47 1.935-3.91 2.406-1.751.573-3.601.545-5.288.113-1.182-.303-2.334-.83-3.066-1.783-.735-.956-.973-2.242-1.058-3.504-.15-2.232.116-4.512.359-6.777.202-1.882.388-3.766.464-5.645.135-3.417-.088-6.804-.55-10.127-.077-.557-.162-1.117-.115-1.691.047-.573.24-1.17.642-1.612.371-.41.89-.651 1.407-.77.517-.12 1.041-.131 1.561-.14 1.225-.032 2.456-.104 3.662.003.761.068 1.507.207 2.267.28 1.268.121 2.583.058 3.855-.315 1.37-.402 2.675-1.154 4.066-1.361a5.931 5.931 0 011.698.003c.566.079 1.13.235 1.565.58.331.264.573.624.762 1.01.282.572.456 1.204.555 1.853.088.574.118 1.166.267 1.722.243.914.795 1.691 1.46 2.324.664.632 1.441 1.132 2.216 1.624.773.491 1.55.978 2.375 1.382.387.19.786.362 1.156.58.37.219.715.488.96.842.334.481.468 1.111.368 1.73" fill="url(#S)"/></g><path d="M120.407 111.35a7.333 7.333 0 01-1.225 2.062c-1.142 1.355-2.728 2.25-4.306 3.055-2.694 1.372-5.484 2.577-8.016 4.228-1.696 1.106-3.262 2.405-4.726 3.804-1.252 1.197-2.44 2.475-3.843 3.489-1.417 1.023-3.055 1.764-4.782 2.024-2.102.315-4.273-.093-6.223-.942-1.365-.595-2.679-1.446-3.465-2.711-.79-1.27-.97-2.823-.972-4.319-.003-2.644.487-5.265.948-7.864.383-2.164.749-4.332.984-6.516.427-3.973.424-7.987.139-11.973-.044-.667-.104-1.341-.004-2.003s.372-1.322.88-1.758c.468-.404 1.096-.582 1.714-.615.618-.034 1.233.064 1.845.153 1.441.21 2.894.376 4.303.747.89.234 1.755.548 2.643.788 1.48.4 3.031.591 4.554.414 1.641-.192 3.234-.808 4.885-.768a7.24 7.24 0 011.995.348c.659.208 1.31.506 1.794.999.368.374.625.846.818 1.335.288.729.442 1.505.508 2.285.059.691.049 1.39.18 2.071.216 1.121.804 2.143 1.536 3.018.731.876 1.61 1.619 2.478 2.353.87.731 1.745 1.46 2.684 2.101.44.301.894.583 1.313.914.418.331.802.717 1.064 1.182.354.631.463 1.396.297 2.1z" fill="url(#T)"/><g filter="url(#U)"><path d="M119.051 109.979a6.654 6.654 0 01-1.119 1.853c-1.045 1.225-2.493 2.025-3.932 2.746-2.46 1.232-5.006 2.314-7.32 3.801-1.546.994-2.976 2.161-4.315 3.42-1.145 1.077-2.231 2.227-3.51 3.137-1.297.922-2.793 1.587-4.368 1.819-1.919.283-3.899-.084-5.682-.847-1.243-.532-2.444-1.292-3.165-2.437-.716-1.139-.883-2.537-.887-3.882-.006-2.378.443-4.73.866-7.07.35-1.946.685-3.894.898-5.859.387-3.572.369-7.179.127-10.763-.04-.6-.087-1.208.005-1.802s.339-1.187.795-1.58c.427-.368 1.002-.53 1.566-.56.565-.029 1.126.063 1.684.145 1.316.193 2.642.339 3.93.67.811.21 1.603.493 2.413.71 1.353.36 2.768.532 4.16.372 1.497-.173 2.953-.727 4.46-.69.618.014 1.231.13 1.823.313.602.185 1.197.45 1.639.897.333.338.563.763.746 1.201.273.652.45 1.348.464 2.054.015.737-.146 1.478-.046 2.208.081.593.332 1.152.653 1.658.32.505.711.961 1.098 1.418.747.884 1.496 1.783 2.433 2.461 1.067.772 2.334 1.223 3.436 1.944.328.215.647.458.878.774a2.075 2.075 0 01.272 1.889z" fill="#cd8907"/></g><g filter="url(#V)"><path d="M118.898 109.218a8.052 8.052 0 01-1.149 1.872c-1.071 1.302-2.516 2.198-4.04 2.773-2.508.948-5.245 1.075-7.707 2.154-1.5.657-2.849 1.648-4.217 2.585-1.105.756-2.234 1.485-3.448 2.014-1.37.598-2.828.933-4.29 1.169-.93.15-1.872.259-2.811.207-.94-.052-1.882-.272-2.71-.751-.63-.363-1.195-.886-1.53-1.564-.374-.754-.438-1.639-.43-2.494.023-2.277.51-4.529.496-6.806-.013-1.982-.406-3.938-.518-5.917-.218-3.804.599-7.675-.12-11.407-.114-.597-.27-1.194-.262-1.804a2.62 2.62 0 01.157-.894 1.64 1.64 0 01.51-.718c.194-.15.422-.241.658-.282.235-.042.476-.034.712.003.471.074.92.259 1.38.395 1.314.392 2.702.383 4.037.679.838.185 1.65.488 2.479.715 1.393.376 2.845.543 4.273.376 1.537-.18 3.038-.738 4.583-.697a7.198 7.198 0 011.872.316c.611.182 1.221.44 1.683.906.333.337.572.767.767 1.212.284.65.481 1.357.477 2.074-.003.374-.06.744-.093 1.115-.034.372-.044.753.044 1.114.089.361.276.69.489.987.214.297.455.568.676.859.617.813 1.059 1.762 1.54 2.676s1.021 1.819 1.781 2.477c1.034.897 2.376 1.255 3.529 1.963.338.207.665.45.902.783a2.165 2.165 0 01.279 1.907z" fill="#f5c021"/></g><g filter="url(#W)"><path d="M86.163 93.41c1.425-.385 2.64.695 3.673 1.511.668.57 1.633.427 2.453.454 1.358-.05 2.709.227 4.067.059 2.674-.226 5.295-.883 7.982-1 1.284-.082 2.724-.156 3.833.593.449.312 1.108 1.627 1.551 1.134-.182-1.383-1.208-2.723-2.584-3.09-1.077-.17-2.176.125-3.26.03-3.23-.077-6.437-.677-9.675-.505-2.252.02-4.502-.085-6.751-.173-.883-.18-1.195.605-1.675.905" fill="url(#X)"/></g><g filter="url(#Y)" opacity=".75"><path d="M92.554 67.115c.516-.08 3.706 2.632 3.27 3.644-.436 1.011-1.255.4-1.841.407-.586.006-2.19.734-2.458.275-.269-.46.71-1.532 1.22-2.428.413-.722-.708-1.813-.191-1.893z" fill="#7c7c7c"/></g><g filter="url(#Z)" opacity=".25"><path d="M47.549 50.049c-.052-.625-.944-.718-1.342-.407-.336.263-.65 1.162-.36 1.514.47.57 1.772-.25 1.702-1.106z" fill="#7c7c7c"/></g><g filter="url(#aa)" opacity=".35"><path d="M105.385 95.582c-.245-.48-.691-.838-1.188-1.046-.497-.207-1.043-.274-1.581-.27-1.077.01-2.148.29-3.22.196-.907-.078-1.767-.419-2.655-.634-.912-.217-1.88-.304-2.787-.062a4.1 4.1 0 00-2.359 1.76c-.471.749-.696 1.633-.766 2.515s.006 1.77.095 2.65c.065.637.137 1.275.291 1.898.154.622.394 1.228.769 1.747.54.746 1.341 1.279 2.206 1.599 1.428.522 3 .494 4.409-.077a12.16 12.16 0 005.818-5.352c.454-.847.808-1.75 1.036-2.683.091-.371.162-.75.166-1.132a2.393 2.393 0 00-.238-1.11h.004z" fill="url(#ab)"/></g><g filter="url(#ac)" opacity=".35"><path d="M105.385 95.079c-.245-.347-.691-.606-1.188-.756s-1.043-.198-1.581-.195c-1.077.006-2.148.209-3.22.141-.907-.056-1.767-.303-2.655-.458-.912-.157-1.88-.22-2.787-.045-.969.19-1.823.659-2.359 1.272-.471.542-.696 1.181-.766 1.819s.006 1.279.095 1.916c.065.46.137.921.291 1.371s.394.888.769 1.263c.54.54 1.341.925 2.206 1.156a8.34 8.34 0 004.409-.055c2.463-.773 4.547-2.16 5.818-3.87a7.083 7.083 0 001.036-1.94 2.69 2.69 0 00.166-.817 1.34 1.34 0 00-.238-.802z" fill="url(#ad)"/></g><path d="M107.432 91.095a3.186 3.186 0 00-.866-1.25 4.627 4.627 0 00-1.298-.805c-.942-.4-1.967-.549-2.973-.738l-2.84-.556c-.989-.168-2.01-.275-2.988-.054-.856.193-1.647.635-2.294 1.227a6.52 6.52 0 00-1.517 2.132c-.64 1.406-.842 2.987-.72 4.527.092 1.146.381 2.326 1.136 3.194.61.7 1.474 1.138 2.365 1.401a8.008 8.008 0 004.726-.067 12.442 12.442 0 006.235-4.69c.496-.719.919-1.501 1.111-2.352.147-.653.152-1.34-.077-1.965z" fill="#020204"/><g filter="url(#ae)"><path d="M97.002 87.234a5.43 5.43 0 00-4.379 2.625 5.386 5.386 0 00-.72 3.114c.032-.758.23-1.5.598-2.163.624-1.124 1.755-1.971 3.02-2.203.783-.142 1.58-.056 2.366.041.754.094 1.514.193 2.257.354 1.149.249 2.287.63 3.251 1.305.225.157.435.335.612.544.176.21.314.452.367.72.078.394-.035.807-.231 1.157-.195.349-.463.655-.748.938-.231.229-.477.45-.721.666 1.114-.216 2.242-.522 3.168-1.17.392-.274.747-.602.979-1.02.233-.417.332-.922.218-1.386a2.02 2.02 0 00-.462-.843 4.123 4.123 0 00-.734-.626 8.719 8.719 0 00-3.944-1.51 48.659 48.659 0 00-2.732-.422c-.715-.09-1.445-.162-2.163-.122h-.002z" fill="url(#af)"/></g><g filter="url(#ag)"><path d="M97.002 87.234a5.43 5.43 0 00-4.379 2.625 5.386 5.386 0 00-.72 3.114c.032-.758.23-1.5.598-2.163.624-1.124 1.755-1.971 3.02-2.203.783-.142 1.58-.056 2.366.041.754.094 1.514.193 2.257.354 1.149.249 2.287.63 3.251 1.305.225.157.435.335.612.544.176.21.314.452.367.72.078.394-.035.807-.231 1.157-.195.349-.463.655-.748.938-.231.229-.477.45-.721.666 1.114-.216 2.242-.522 3.168-1.17.392-.274.747-.602.979-1.02.233-.417.332-.922.218-1.386a2.02 2.02 0 00-.462-.843 4.123 4.123 0 00-.734-.626 8.719 8.719 0 00-3.944-1.51 48.659 48.659 0 00-2.732-.422c-.715-.09-1.445-.162-2.163-.122h-.002z" fill="url(#ah)"/></g><path d="M47.516 47.187l-7.364 9.219c-1.537 1.906-3.111 3.826-4.112 6.061-.86 1.92-1.266 4.007-1.856 6.027-.669 2.294-1.578 4.513-2.598 6.674-.942 1.995-1.98 3.943-3.02 5.89-.756 1.416-1.525 2.863-1.787 4.447-.207 1.252-.087 2.543.232 3.771.32 1.228.827 2.398 1.41 3.527 2.465 4.82 6.165 8.974 10.548 12.152a37.104 37.104 0 006.354 3.71c1.21.553 2.487 1.046 3.817 1.069a4.648 4.648 0 001.947-.365c.61-.268 1.153-.698 1.516-1.257.445-.686.596-1.539.507-2.352-.09-.814-.407-1.59-.833-2.289-1.044-1.707-2.682-2.942-4.262-4.166a142.608 142.608 0 01-9.87-8.372c-.893-.832-1.784-1.688-2.407-2.735-.606-1.02-.934-2.182-1.157-3.347-.609-3.199-.452-6.564.636-9.632.425-1.2.988-2.346 1.53-3.498.94-1.998 1.831-4.032 3.069-5.86 1.54-2.276 3.597-4.204 4.851-6.649 1.06-2.062 1.489-4.383 1.899-6.665z" fill="#020204"/><g filter="url(#ai)" opacity=".95"><path d="M37.499 72.227a9.65 9.65 0 00-1.705 2.15c-.764 1.31-1.214 2.782-1.769 4.199-.413 1.055-.894 2.114-.952 3.249-.03.582.054 1.165.073 1.748.02.584-.033 1.19-.315 1.7-.232.426-.62.76-1.068.924.61.21 1.142.606 1.527 1.135.32.44.523.956.8 1.425.226.382.503.735.843 1.012.341.278.748.476 1.18.533a2.057 2.057 0 001.65-.541 40.744 40.744 0 011.474-15.808c.096-.322.197-.645.22-.981.024-.336-.036-.69-.235-.957a.988.988 0 00-1.403-.203c-.14.107-.253.252-.323.416h.003z" fill="#7c7c7c"/></g><path d="M29.71 89.22c.695-.289 1.478-.341 2.218-.205.741.137 1.44.457 2.064.88 1.247.847 2.17 2.08 3.056 3.299 2.033 2.8 3.99 5.657 5.764 8.629 1.439 2.409 2.76 4.898 4.423 7.159 1.085 1.476 2.31 2.846 3.4 4.318 1.09 1.471 2.057 3.07 2.541 4.837.628 2.297.385 4.827-.708 6.942a9.17 9.17 0 01-3.382 3.629 8.715 8.715 0 01-4.794 1.249c-2.66-.1-5.09-1.429-7.564-2.415-5.04-2.007-10.514-2.637-15.708-4.2-1.597-.48-3.166-1.049-4.773-1.491-.714-.196-1.44-.369-2.115-.674-.675-.306-1.306-.762-1.68-1.4-.29-.494-.413-1.075-.406-1.648.008-.572.142-1.137.337-1.676.39-1.076 1.02-2.051 1.445-3.114.694-1.736.819-3.65.725-5.518-.093-1.867-.396-3.718-.524-5.583-.057-.833-.078-1.676.08-2.496.16-.82.512-1.62 1.114-2.2.554-.533 1.29-.85 2.043-1.008.753-.157 1.53-.164 2.3-.147s1.54.058 2.307-.004c.768-.063 1.538-.235 2.207-.617.635-.363 1.155-.903 1.585-1.495.431-.59.78-1.238 1.136-1.877.357-.639.726-1.276 1.193-1.839.468-.563 1.04-1.054 1.716-1.334z" fill="url(#aj)"/><g filter="url(#ak)"><path d="M30.807 90.42c.633-.254 1.346-.282 2.012-.132.665.151 1.283.48 1.822.891 1.078.833 1.828 2.008 2.547 3.164 1.728 2.8 3.416 5.628 5.012 8.514 1.208 2.173 2.36 4.392 3.845 6.388.985 1.324 2.11 2.537 3.115 3.846 1.006 1.308 1.902 2.733 2.347 4.322a8.518 8.518 0 01-.65 6.194 8.266 8.266 0 01-3.128 3.269 8.055 8.055 0 01-4.39 1.083c-2.435-.113-4.66-1.329-6.953-2.154-4.396-1.596-9.161-1.81-13.67-3.055-1.617-.439-3.193-1.024-4.818-1.434-.719-.181-1.45-.329-2.133-.617-.683-.289-1.326-.736-1.696-1.378-.276-.477-.386-1.039-.369-1.59s.157-1.088.349-1.607c.392-1.03 1.01-1.958 1.405-2.992.6-1.555.675-3.265.563-4.928-.111-1.664-.4-3.312-.502-4.976-.045-.744-.052-1.497.099-2.226.15-.729.468-1.436.998-1.963.575-.57 1.367-.881 2.166-1.003.8-.122 1.613-.069 2.418.003.804.072 1.612.162 2.419.114s1.626-.245 2.293-.7c.608-.41 1.064-1.01 1.412-1.652.347-.642.595-1.33.86-2.01.264-.679.551-1.358.966-1.957.416-.6.973-1.134 1.657-1.408" fill="#d99a03"/></g><g filter="url(#al)"><path d="M30.22 88.84c.614-.305 1.337-.368 2.01-.23.672.137 1.295.465 1.825.895 1.06.855 1.732 2.084 2.359 3.284 1.438 2.759 2.777 5.577 4.498 8.175 1.25 1.88 2.69 3.639 3.953 5.514 1.712 2.543 3.105 5.34 3.68 8.336.386 2.016.373 4.188-.598 6.008a6.673 6.673 0 01-2.9 2.788 7.548 7.548 0 01-3.998.741c-2.156-.19-4.114-1.25-6.143-1.989-3.601-1.312-7.493-1.625-11.198-2.615-1.563-.418-3.09-.955-4.678-1.282-.7-.146-1.412-.252-2.079-.504-.667-.253-1.3-.67-1.64-1.287-.24-.434-.321-.942-.285-1.434.036-.493.183-.973.376-1.429.387-.911.958-1.747 1.262-2.69.441-1.385.26-2.888-.071-4.302-.331-1.415-.808-2.804-.955-4.248-.065-.643-.064-1.299.083-1.93.146-.63.447-1.236.918-1.688.606-.582 1.455-.871 2.299-.953.844-.08 1.694.03 2.533.15.838.12 1.683.256 2.53.214.847-.043 1.71-.261 2.373-.78.656-.513 1.069-1.276 1.305-2.066.237-.79.314-1.617.41-2.435.098-.817.218-1.643.536-2.406.317-.762.853-1.464 1.601-1.836l-.005-.002z" fill="#f5bd0c"/></g><g filter="url(#am)"><path d="M37.903 95.725c1.134 2.051 1.826 4.405 2.95 6.473 1.035 1.903 2.213 3.862 3.264 5.616.468.781 1.56 1.982 2.663 3.846 1 1.688 2.01 4.045 2.575 4.837-.325-.927-.992-3.415-1.788-5.188-.74-1.658-1.61-2.604-2.145-3.495-1.05-1.754-2.183-3.331-3.263-5.004-1.49-2.307-2.627-4.889-4.256-7.084z" fill="url(#an)"/></g></g></svg>