<svg width="130" height="130" viewBox="0 0 130 130" fill="none" xmlns="http://www.w3.org/2000/svg">
<g clip-path="url(#clip0)">
<path d="M91.9126 46.0156C93.3295 49.1008 94.9108 52.109 96.3164 55.1999C99.0213 61.1484 101.076 67.429 101.929 73.907C102.782 80.3851 102.411 87.0747 100.388 93.286C98.0996 100.298 93.7559 106.536 88.4341 111.641C82.1383 117.681 74.0567 122.337 65.3389 122.68C59.6584 122.904 54.0032 121.28 48.9729 118.632C44.7454 116.407 40.886 113.442 37.8069 109.79C34.7278 106.138 32.4415 101.789 31.3828 97.1302C30.079 91.3936 30.6691 85.3036 32.6421 79.7616C34.0533 75.7982 36.145 72.1081 37.6341 68.1735C39.2616 63.8742 40.1702 59.2834 42.3264 55.2234C44.2802 51.542 47.2114 48.3976 48.7683 44.5318C49.6982 42.2229 50.1016 39.7429 50.7021 37.327C51.3026 34.911 52.1434 32.4777 53.7787 30.6009C55.7499 28.3394 58.7146 27.1136 61.694 26.7694C64.6735 26.4251 67.6895 26.8899 70.6138 27.557C72.9418 28.0879 75.2416 28.7471 77.4913 29.5474C79.4116 30.2305 81.3145 31.026 82.9751 32.2079C85.2379 33.8179 86.9611 36.0851 88.334 38.4993C89.7069 40.9135 90.7578 43.4926 91.917 46.0161L91.9126 46.0156Z" fill="#020204"/>
<path d="M66.8967 122.735C69.29 122.875 71.679 123.107 74.0506 123.465C76.1359 123.782 78.2063 124.19 80.2558 124.689C83.4659 125.467 86.6647 126.459 89.9666 126.553C90.8356 126.578 91.7073 126.539 92.5601 126.35C93.413 126.161 94.232 125.817 94.9121 125.275C95.926 124.467 96.5657 123.248 96.8081 121.974C97.0505 120.699 96.8986 119.373 96.5252 118.131C95.779 115.649 94.1754 113.53 92.8539 111.301C92.0945 110.026 91.4179 108.699 90.5954 107.463C89.773 106.228 88.7896 105.07 87.5407 104.265C85.814 103.152 83.6731 102.789 81.6292 102.993C79.5853 103.196 77.6258 103.935 75.8016 104.879C73.2447 106.203 70.8379 108.021 69.4441 110.541C68.9589 111.418 68.6064 112.36 68.1943 113.273C67.7822 114.187 67.2997 115.086 66.6017 115.805C65.8228 116.607 64.8123 117.147 64.0069 117.921C63.6044 118.313 63.2519 118.759 63.0495 119.278C62.8472 119.797 62.7919 120.39 62.9799 120.916C63.1092 121.278 63.3454 121.594 63.637 121.843C63.9285 122.092 64.2732 122.274 64.6348 122.4C65.3571 122.654 66.1361 122.692 66.9006 122.736L66.8967 122.735Z" fill="#020204"/>
<path d="M59.7824 122.581C57.7877 122.627 55.8139 122.984 53.8644 123.388C51.9967 123.774 50.1378 124.203 48.2927 124.688C45.1797 125.505 42.0627 126.484 38.8447 126.552C37.9979 126.569 37.145 126.524 36.3196 126.333C35.4941 126.142 34.6951 125.802 34.0328 125.273C33.0211 124.467 32.378 123.25 32.1399 121.979C31.9019 120.707 32.0473 119.383 32.4163 118.143C33.1547 115.663 34.7382 113.539 36.035 111.3C36.7717 110.027 37.4218 108.704 38.2186 107.468C39.0153 106.231 39.9748 105.071 41.2037 104.263C42.8782 103.162 44.9664 102.789 46.9607 102.985C48.955 103.182 50.8662 103.917 52.6251 104.878C55.1081 106.234 57.3756 108.1 58.8112 110.534C59.8186 112.245 60.3995 114.201 61.577 115.799C62.211 116.66 63.013 117.403 63.5352 118.333C63.7989 118.798 63.9921 119.31 64.0369 119.843C64.0817 120.376 63.9716 120.93 63.6714 121.372C63.4734 121.665 63.1984 121.902 62.8912 122.076C62.5839 122.251 62.245 122.366 61.899 122.438C61.2028 122.582 60.4935 122.559 59.7864 122.577L59.7824 122.581ZM48.6365 39.517C48.3563 36.1446 48.4189 32.7535 48.2971 29.3715C48.1761 26.1196 47.8767 22.8695 47.9859 19.6172C48.0973 16.31 48.6517 12.9594 50.1243 9.98727C51.5968 7.01519 53.9884 4.50089 56.9061 2.92826C59.6476 1.44875 62.8094 0.816473 65.9285 0.850415C70.1582 0.896541 74.3983 2.17414 77.8229 4.65537C79.9704 6.20973 81.7763 8.2136 83.2009 10.449C84.4163 12.3571 85.3606 14.441 85.9533 16.6281C87.1686 21.1102 86.8801 25.8307 87.1169 30.4642C87.341 34.8557 88.0437 39.2368 87.8044 43.6275C87.7522 44.5848 87.6495 45.5569 87.2244 46.4124C86.8101 47.2457 86.1069 47.9159 85.2988 48.378C84.4907 48.8401 83.5813 49.103 82.6618 49.2448C80.8224 49.5285 78.9413 49.3414 77.0884 49.5133C74.3992 49.7627 71.8339 50.76 69.1652 51.173C65.9886 51.6647 62.7436 51.3166 59.5274 51.1878C58.2394 51.1364 56.947 51.1203 55.6685 50.9597C54.3901 50.7992 53.1142 50.4898 51.9767 49.8832C51.2805 49.5098 50.6308 49.0238 50.1077 48.4254C49.5847 47.8271 49.1852 47.12 48.9864 46.3467C48.6874 45.1923 48.8449 43.9769 48.8493 42.7841C48.8536 41.6937 48.7266 40.6071 48.6317 39.5205L48.6365 39.517Z" fill="#020204"/>
<path d="M53.6977 38.2179C53.2425 38.7879 52.9458 39.4741 52.7665 40.1821C52.5872 40.8901 52.5219 41.6216 52.4936 42.3509C52.4379 43.81 52.5267 45.2969 52.1412 46.705C51.7278 48.2107 50.8026 49.5144 49.8967 50.7859C48.3279 52.9877 46.7418 55.2462 45.9686 57.8362C45.4999 59.4049 45.3437 61.0663 45.5125 62.6947C43.7567 65.2734 42.2358 68.0122 40.9769 70.8668C39.0684 75.1931 37.7586 79.7991 37.2977 84.5044C36.7338 90.2667 37.4709 96.1934 39.7463 101.517C41.3912 105.367 43.8446 108.891 47.0073 111.633C48.6151 113.028 50.4014 114.218 52.3161 115.157C58.936 118.41 67.1169 118.416 73.6267 114.948C77.0287 113.135 79.9007 110.484 82.6692 107.802C84.3367 106.187 85.9955 104.533 87.2674 102.591C89.716 98.8518 90.5689 94.307 91.0989 89.8694C92.0258 82.1093 92.0554 73.9124 88.6534 66.8769C87.4785 64.4499 85.9242 62.2258 84.049 60.2883C83.5508 56.9028 82.5669 53.5883 81.137 50.4791C80.1057 48.2359 78.8446 46.1006 77.8864 43.8257C77.493 42.8914 77.1467 41.9349 76.7146 41.0202C76.2825 40.1055 75.7398 39.2252 75.007 38.5246C74.2573 37.8066 73.323 37.2984 72.3369 36.9729C71.3509 36.6474 70.3135 36.4999 69.2778 36.4477C67.2043 36.3432 65.1265 36.6143 63.0526 36.5321C61.4012 36.4668 59.755 36.177 58.1049 36.2745C57.2799 36.3232 56.4557 36.4703 55.6898 36.7814C54.924 37.0926 54.2181 37.5721 53.7029 38.2174L53.6977 38.2179Z" fill="#FDFDFB"/>
<g filter="url(#filter0_f)">
<path d="M52.6812 45.9572C53.4222 48.1059 54.9135 49.9397 56.6785 51.3722C57.2659 51.8487 57.8891 52.2877 58.5783 52.598C59.2676 52.9083 60.0283 53.0854 60.7811 53.021C61.5187 52.9583 62.2201 52.6685 62.8654 52.3047C63.5108 51.9409 64.1082 51.501 64.7336 51.105C65.8053 50.4262 66.9528 49.8779 68.0655 49.2687C69.4066 48.5346 70.7069 47.7021 71.8361 46.6752C72.353 46.203 72.8352 45.6882 73.4061 45.2827C73.977 44.8771 74.6606 44.5838 75.3591 44.6313C75.883 44.6669 76.3743 44.8897 76.8873 45.0003C77.1484 45.0555 77.4095 45.0829 77.6693 45.0429C77.9291 45.0029 78.1827 44.8932 78.3646 44.7035C78.5874 44.4716 78.6849 44.1378 78.6692 43.8158C78.6536 43.4938 78.5457 43.1835 78.3951 42.8989C78.0948 42.3298 77.6401 41.8393 77.4378 41.2288C77.2576 40.6849 77.2942 40.0974 77.3098 39.5256C77.3255 38.9539 77.3133 38.3551 77.0487 37.8473C76.8477 37.46 76.5109 37.1532 76.1254 36.9491C75.7398 36.745 75.3073 36.6445 74.8739 36.5993C74.0057 36.5179 73.1359 36.6863 72.2656 36.7355C71.1098 36.8007 69.9497 36.6563 68.7944 36.7259C67.354 36.8129 65.9411 37.2307 64.4977 37.2333C62.8502 37.2363 61.2045 36.6972 59.577 36.9548C58.8786 37.0653 58.2128 37.3194 57.5423 37.5431C56.8717 37.7668 56.1789 37.9639 55.4722 37.9539C54.6698 37.9421 53.8926 37.6645 53.092 37.6071C52.6916 37.5783 52.2817 37.6071 51.9057 37.7476C51.5298 37.8882 51.1899 38.1497 51.0059 38.5061C50.9001 38.7106 50.8479 38.9399 50.8379 39.1697C50.8279 39.3994 50.8596 39.6296 50.9153 39.8529C51.0263 40.2993 51.2304 40.7158 51.394 41.144C52.0002 42.6905 52.1303 44.385 52.672 45.955L52.6812 45.9572Z" fill="black" fill-opacity="0.26"/>
</g>
<g opacity="0.3" filter="url(#filter1_f)">
<path d="M50.6151 39.8334C52.0546 40.7232 53.3466 41.815 54.4314 43.0608C55.4379 44.2167 56.2938 45.5274 57.608 46.3836C58.5362 46.988 59.651 47.3287 60.782 47.4321C62.1101 47.5536 63.4538 47.3572 64.734 47.0105C65.9207 46.689 67.0677 46.2369 68.1204 45.6396C70.1212 44.5029 71.793 42.8367 73.9949 42.0896C74.4766 41.9264 74.9783 41.8098 75.4426 41.6086C75.9069 41.4074 76.3434 41.106 76.5653 40.6795C76.7829 40.2699 76.7698 39.7969 76.8395 39.3468C76.9134 38.8658 77.0805 38.4 77.1719 37.9215C77.2633 37.4429 77.2742 36.9306 77.0501 36.4905C76.8638 36.1258 76.5257 35.838 76.1363 35.6548C75.7468 35.4716 75.3095 35.3887 74.8726 35.3686C73.9997 35.3286 73.1372 35.535 72.2669 35.6083C71.1138 35.7053 69.9528 35.5682 68.7957 35.6003C67.3562 35.6404 65.9376 35.941 64.499 36.0031C62.8576 36.0745 61.2206 35.8356 59.5783 35.7827C58.8682 35.7594 58.1532 35.7707 57.4531 35.8841C56.7529 35.9975 56.0658 36.2136 55.4731 36.5759C54.8987 36.9274 54.4301 37.4044 53.9035 37.8144C53.6403 38.0197 53.3605 38.2092 53.0533 38.3535C52.746 38.4978 52.4092 38.596 52.0655 38.6113C51.8884 38.6193 51.7095 38.6053 51.5346 38.6301C51.3878 38.6528 51.2474 38.7021 51.1215 38.7751C50.9955 38.848 50.8865 38.9433 50.8007 39.0552C50.7149 39.1672 50.654 39.2937 50.6215 39.4275C50.5891 39.5612 50.5857 39.6996 50.6116 39.8346L50.6151 39.8334Z" fill="black"/>
</g>
<path d="M54.3626 20.1798C53.5881 20.222 52.8461 20.5801 52.2791 21.1097C51.7121 21.6393 51.3131 22.3333 51.0668 23.0696C50.5751 24.5422 50.686 26.1383 50.797 27.6822C50.8984 29.0843 51.0015 30.5129 51.5268 31.817C51.7892 32.4689 52.1577 33.0789 52.6494 33.5855C53.1412 34.092 53.7599 34.474 54.4414 34.6446C55.0811 34.8047 55.7634 34.7717 56.3922 34.5741C57.021 34.3766 57.5949 34.0171 58.0658 33.5567C58.7533 32.8844 59.2159 32.005 59.4813 31.0807C59.7467 30.1565 59.8225 29.187 59.8085 28.2261C59.7911 27.0234 59.6345 25.8154 59.2576 24.6736C58.8808 23.5317 58.2803 22.453 57.4418 21.5901C57.0358 21.1723 56.5723 20.8046 56.0493 20.547C55.5262 20.2894 54.9427 20.1445 54.3609 20.1759L54.3626 20.1798Z" fill="url(#paint0_radial)"/>
<path d="M68.0777 20.1798C66.868 21.0065 65.8541 22.1706 65.358 23.5522C64.7331 25.2936 64.9724 27.2423 65.5756 28.9916C66.1935 30.7831 67.2265 32.4902 68.787 33.5659C69.5672 34.1037 70.4701 34.4723 71.4109 34.5841C72.3517 34.6959 73.33 34.5428 74.1698 34.1054C75.1937 33.572 75.9748 32.6377 76.4596 31.5903C76.9443 30.5429 77.1514 29.3841 77.2159 28.2309C77.3029 26.7623 77.1549 25.2693 76.6719 23.8794C76.1476 22.3694 75.1924 20.977 73.8552 20.108C73.185 19.6737 72.4227 19.3752 71.6316 19.2659C70.8405 19.1567 70.0193 19.2385 69.2748 19.5279C68.8505 19.6933 68.4537 19.9226 68.0781 20.1806L68.0777 20.1798Z" fill="url(#paint1_radial)"/>
<g opacity="0.3" filter="url(#filter2_f)">
<path d="M54.105 32.7089L51.8701 34.7475C51.4767 35.1435 51.0825 35.5674 50.9062 36.0965C50.7496 36.5665 50.7792 37.0769 50.7017 37.5673C50.6756 37.7353 50.6364 37.9024 50.6356 38.0721C50.6341 38.1572 50.6456 38.242 50.6695 38.3236C50.6943 38.405 50.7348 38.4816 50.7935 38.5438C50.8901 38.6469 51.0276 38.7031 51.166 38.7309C51.3044 38.7588 51.4467 38.7622 51.5872 38.7775C52.2208 38.8458 52.8048 39.153 53.3296 39.5151L54.8744 40.6399C56.0623 41.3945 57.4822 41.73 58.8891 41.7835C60.2959 41.837 61.6993 41.6225 63.0796 41.3462C64.1762 41.1269 65.2701 40.8675 66.3106 40.4567C67.9045 39.8284 69.341 38.861 70.7134 37.8362C71.337 37.3706 71.9519 36.8907 72.5119 36.3502C72.7021 36.1666 72.8861 35.976 73.0898 35.808C73.2934 35.64 73.5197 35.4938 73.7712 35.4129C74.1542 35.2897 74.5702 35.325 74.967 35.3911C75.266 35.4412 75.5658 35.5086 75.8686 35.4956C76.0201 35.4895 76.1719 35.4634 76.3125 35.4068C76.4531 35.3502 76.5832 35.2632 76.6793 35.1457C76.8049 34.9886 76.8728 34.7933 76.8717 34.5922C76.8725 34.3929 76.8107 34.1962 76.7107 34.0243C76.5083 33.6806 76.1589 33.4486 75.7947 33.2867C75.296 33.0648 74.7564 32.956 74.2255 32.8272C72.5959 32.4338 71.0119 31.8525 69.5102 31.1066C68.7635 30.7359 68.0377 30.3251 67.3031 29.9317C66.5477 29.527 65.7779 29.138 64.9577 28.8895C63.1244 28.3339 61.1197 28.5162 59.3107 29.1445C57.3003 29.8425 55.4827 31.0866 54.1037 32.7076L54.105 32.7089Z" fill="black"/>
</g>
<path d="M58.0039 30.4057C58.7729 29.541 59.299 28.4867 60.0378 27.5959C60.4077 27.1508 60.8333 26.7452 61.3355 26.4571C61.8376 26.1691 62.4199 26.0046 62.9964 26.0542C63.6378 26.1099 64.2388 26.4293 64.7083 26.8701C65.1778 27.3109 65.5264 27.8709 65.8049 28.4475C66.0712 29.0036 66.2827 29.5963 66.6665 30.0793C67.0755 30.5945 67.6499 30.9461 68.1678 31.3513C68.4271 31.5536 68.6756 31.7734 68.8805 32.0301C69.0855 32.2868 69.2461 32.5854 69.3113 32.9078C69.3755 33.2378 69.3477 33.5791 69.2308 33.8943C69.1168 34.2076 68.9232 34.4913 68.6825 34.7228C68.2013 35.1863 67.5451 35.4365 66.8836 35.53C65.5608 35.7171 64.2227 35.3229 62.8872 35.3603C61.5352 35.3973 60.2145 35.8755 58.8629 35.8259C58.1871 35.8011 57.5018 35.6362 56.9465 35.2502C56.6665 35.0584 56.4299 34.81 56.252 34.5209C56.0771 34.2315 55.9705 33.8986 55.9592 33.561C55.9483 33.239 56.0236 32.9169 56.1524 32.621C56.2812 32.3251 56.4626 32.0545 56.6667 31.8047C57.0758 31.3051 57.5749 30.8883 58.0035 30.4061L58.0039 30.4057Z" fill="url(#paint2_radial)"/>
<g filter="url(#filter3_f)">
<path d="M73.0786 6.46723C71.963 7.25441 72.4504 8.23712 72.9302 9.22385C73.41 10.2106 71.8753 13.0544 71.8587 13.1768C71.8422 13.2991 74.8796 11.7353 75.7074 10.719C76.6851 9.51917 79.1554 12.3425 79.0215 11.9123C79.0225 11.1437 74.1947 5.68005 73.0791 6.46723H73.0786Z" fill="#7C7C7C"/>
</g>
<path d="M70.8679 23.8328C70.4131 23.8654 69.9697 24.0208 69.5842 24.2679C69.1986 24.5151 68.8692 24.8401 68.6108 25.2165C68.0942 25.9685 67.8666 26.8906 67.8305 27.8013C67.8031 28.4854 67.8784 29.1786 68.1055 29.8248C68.3327 30.471 68.7148 31.0693 69.2426 31.5058C69.7822 31.9527 70.468 32.2212 71.1681 32.2542C71.8683 32.2873 72.578 32.0858 73.1524 31.6855C73.6106 31.3665 73.9801 30.9275 74.2433 30.4353C74.5066 29.9431 74.6654 29.3983 74.7372 28.8448C74.8652 27.867 74.7207 26.8462 74.2686 25.9698C73.8165 25.0934 73.0502 24.3715 72.1246 24.0308C71.7242 23.8828 71.2934 23.8062 70.8679 23.8367V23.8328Z" fill="#020204"/>
<g filter="url(#filter4_f)">
<path d="M71.9532 26.8159C71.5763 26.9647 70.9797 26.8711 70.8148 27.241C70.7169 27.4603 70.8553 27.8211 71.0772 27.9112C71.5263 28.0939 72.2225 27.7632 72.4044 27.3128C72.4827 27.117 72.364 26.8081 72.1695 26.7254C72.0977 26.6949 72.0259 26.7863 71.9536 26.815L71.9532 26.8159Z" fill="#141413"/>
</g>
<g filter="url(#filter5_f)">
<path d="M73.6803 27.7948C74.185 27.29 73.3208 25.9498 72.6468 25.4015C72.1585 25.0042 70.7365 24.5877 70.7974 25.0207C70.8583 25.4537 71.4936 26.0068 71.9266 26.4293C72.454 26.9493 73.4409 28.035 73.6803 27.7948Z" fill="url(#paint3_linear)"/>
</g>
<g filter="url(#filter6_f)">
<path d="M72.2795 16.5955C72.072 16.8565 71.8844 17.1403 71.7356 17.4527C72.6694 17.6537 73.5632 18.0384 74.3595 18.568C75.9021 19.5923 77.0736 21.0901 77.8951 22.7563C78.0866 22.544 78.2615 22.3159 78.4121 22.0627C77.5862 20.3273 76.3913 18.7577 74.7951 17.6981C74.0284 17.189 73.1742 16.8043 72.28 16.5972L72.2795 16.5955Z" fill="url(#paint4_linear)"/>
</g>
<g filter="url(#filter7_f)">
<path d="M54.2747 17.4462C54.1694 17.4441 54.0672 17.4536 53.9614 17.4584L53.7569 17.4706C54.3718 17.5263 54.9832 17.6917 55.5384 17.9406C56.2956 18.28 56.9631 18.7643 57.551 19.3156C58.6406 20.3361 59.4504 21.5958 59.9987 22.9317C59.8647 21.9223 59.5614 20.9426 59.1014 20.0341C58.8865 19.786 58.6637 19.5424 58.4217 19.3161C57.8343 18.7652 57.1659 18.2813 56.4091 17.941C55.7477 17.6438 55.0106 17.4589 54.2743 17.4458L54.2747 17.4462Z" fill="url(#paint5_linear)"/>
</g>
<path d="M52.4949 26.5983C52.3331 27.5756 52.327 28.6008 52.6629 29.5325C52.8805 30.1478 53.2504 30.7061 53.6951 31.1861C53.9866 31.5002 54.3165 31.7857 54.7029 31.9706C55.0893 32.1556 55.5366 32.2343 55.9518 32.1303C56.3347 32.0346 56.6706 31.7866 56.9178 31.4789C57.165 31.1713 57.3303 30.8031 57.4478 30.4258C57.7946 29.3119 57.7394 28.0926 57.3947 26.9777C57.1437 26.1653 56.7281 25.3816 56.0775 24.8337C55.7673 24.5726 55.4039 24.3681 55.0092 24.2737C54.6146 24.1793 54.1868 24.2019 53.8178 24.3694C53.4079 24.5557 53.0902 24.9103 52.8822 25.3093C52.6742 25.7084 52.5676 26.1535 52.4941 26.5974L52.4949 26.5983Z" fill="#020204"/>
<g filter="url(#filter8_f)">
<path d="M54.5611 25.8911C54.6664 26.167 55.0197 26.2671 55.2138 26.4895C55.4022 26.7057 55.5998 26.929 55.7033 27.1966C55.9013 27.7083 55.5075 28.4672 55.9209 28.8284C56.0506 28.9415 56.3104 28.9442 56.4379 28.8284C56.9361 28.375 56.8251 27.4603 56.6285 26.8158C56.45 26.231 56.0075 25.6775 55.4623 25.3994C55.2099 25.271 54.8313 25.1644 54.6155 25.3472C54.4762 25.4647 54.4962 25.7214 54.5611 25.8911V25.8911Z" fill="url(#paint6_linear)"/>
</g>
<path d="M50.6725 38.7479C50.6986 38.8763 50.7478 39.0003 50.8148 39.1134C50.9306 39.3071 51.0994 39.4642 51.2818 39.5964C51.4641 39.7287 51.6616 39.8401 51.8527 39.9598C52.8683 40.5982 53.6955 41.4959 54.4309 42.4432C55.4174 43.7147 56.2899 45.1259 57.6075 46.0506C58.5379 46.7033 59.651 47.0754 60.7815 47.189C62.1087 47.3225 63.4533 47.108 64.7336 46.7312C65.9198 46.3818 67.0673 45.8913 68.1199 45.243C70.1216 44.0089 71.7926 42.2 73.9944 41.3888C74.4761 41.2117 74.9779 41.0851 75.4417 40.8667C75.9056 40.6482 76.3425 40.321 76.5644 39.858C76.782 39.4132 76.769 38.8998 76.8386 38.4111C76.9126 37.8889 77.0797 37.3833 77.171 36.8637C77.2624 36.3441 77.2733 35.788 77.0492 35.3102C76.8629 34.9142 76.5248 34.6018 76.1354 34.4029C75.7459 34.2041 75.3086 34.114 74.8717 34.0922C73.9988 34.0487 73.1363 34.2728 72.266 34.3524C71.1129 34.4578 69.9519 34.3098 68.7948 34.3437C67.3553 34.3873 65.9368 34.7114 64.4981 34.7811C62.8568 34.8607 61.2193 34.607 59.5775 34.5417C58.8664 34.513 58.1502 34.52 57.4487 34.6396C56.7472 34.7593 56.0584 34.9982 55.4731 35.4025C54.9031 35.7967 54.4479 36.3337 53.924 36.788C53.662 37.0151 53.38 37.2231 53.0685 37.3741C52.7569 37.5251 52.4127 37.6196 52.0659 37.6122C51.8918 37.6078 51.7047 37.5786 51.535 37.6326C51.4288 37.6661 51.3348 37.7314 51.2548 37.8093C51.1747 37.8872 51.109 37.9777 51.0468 38.0704C50.9021 38.2853 50.7758 38.5121 50.6695 38.7483L50.6725 38.7479Z" fill="url(#paint7_radial)"/>
<g filter="url(#filter9_f)">
<path d="M57.115 40.5168C56.9523 41.219 57.0555 41.9567 57.4048 42.5873C57.7541 43.2179 58.3245 43.6967 59.0061 43.9314C59.8669 44.2186 60.8368 44.0776 61.641 43.6581C62.1066 43.4144 62.533 43.0724 62.8028 42.6207C62.9393 42.3949 63.0288 42.1439 63.0661 41.8827C63.1009 41.6216 63.077 41.3518 62.9856 41.106C62.8855 40.8362 62.7071 40.5977 62.4869 40.4115C62.2667 40.2252 62.0061 40.0903 61.7328 39.9998C61.1854 39.8188 60.597 39.8153 60.0209 39.8432C59.1479 39.8851 58.2795 39.9946 57.4235 40.1708" fill="#D9B30D"/>
</g>
<g filter="url(#filter10_f)">
<path d="M54.2904 35.1136L52.5942 36.2289C52.3083 36.4317 52.0137 36.651 51.8631 36.9669C51.7561 37.191 51.7317 37.4456 51.7326 37.6936C51.7334 37.9417 51.7456 38.1915 51.7126 38.4334C51.6908 38.6014 51.6455 38.7667 51.6377 38.936C51.6334 39.0209 51.6399 39.1057 51.6621 39.1884C51.6833 39.2709 51.7244 39.3469 51.7817 39.4099C51.857 39.4895 51.9593 39.5387 52.0646 39.5709C52.1699 39.6031 52.2778 39.6187 52.3849 39.6449C52.8962 39.765 53.3409 40.0787 53.7312 40.4299L54.88 41.5073C55.984 42.4055 57.4474 42.7779 58.866 42.801C60.2846 42.8241 61.6962 42.5269 63.0848 42.2136L66.3158 41.3241C67.9271 40.7301 69.4228 39.8307 70.7186 38.7036C71.3061 38.1928 71.8574 37.6314 72.5171 37.2176C73.1002 36.8512 73.7542 36.6092 74.3474 36.2589C74.4004 36.2276 74.4531 36.1954 74.5005 36.1558C74.548 36.1162 74.5902 36.0697 74.618 36.0144C74.6659 35.9187 74.6659 35.8055 74.6354 35.7028C74.605 35.6001 74.5458 35.5096 74.4788 35.4269C74.4048 35.3356 74.3208 35.252 74.2307 35.1754C73.6111 34.6445 72.7699 34.4522 71.9566 34.3878C71.1433 34.3234 70.3205 34.3691 69.5198 34.2346C68.7626 34.1041 68.0433 33.8256 67.3127 33.5919C66.5462 33.344 65.7624 33.1535 64.9677 33.0219C63.0987 32.7173 61.1745 32.7756 59.3207 33.1611C57.5549 33.5288 55.8526 34.1924 54.2991 35.1106L54.2904 35.1136Z" fill="#604405"/>
</g>
<path d="M54.105 33.1441C53.2652 33.7098 52.5098 34.3986 51.8701 35.1828C51.5046 35.631 51.1721 36.1184 50.9881 36.6675C50.8431 37.0992 50.794 37.5561 50.7026 38.0021C50.6678 38.1692 50.6286 38.3372 50.6286 38.5069C50.6291 38.5922 50.6399 38.6779 50.666 38.7593C50.6921 38.8407 50.7348 38.9168 50.794 38.9782C50.8919 39.08 51.029 39.1348 51.1673 39.1635C51.3057 39.1923 51.4476 39.1962 51.5877 39.2123C52.2208 39.2841 52.8035 39.5917 53.3283 39.9529L54.8748 41.0747C56.0645 41.8275 57.4835 42.1617 58.89 42.2161C60.2964 42.2705 61.6997 42.0569 63.0805 41.781C64.177 41.5621 65.271 41.3023 66.3114 40.8915C67.905 40.2632 69.3418 39.2958 70.7143 38.2711C71.3379 37.8054 71.9527 37.3255 72.5128 36.785C72.7029 36.6014 72.887 36.4108 73.0907 36.2428C73.2943 36.0748 73.5206 35.9286 73.7721 35.8477C74.155 35.7246 74.571 35.7598 74.9679 35.8259C75.2668 35.876 75.5667 35.9434 75.8695 35.9304C76.021 35.9243 76.1728 35.8982 76.3134 35.8416C76.4539 35.785 76.584 35.698 76.6802 35.5805C76.8057 35.4234 76.8736 35.2281 76.8726 35.027C76.8734 34.8277 76.8116 34.631 76.7115 34.4591C76.5092 34.1154 76.1598 33.8834 75.7956 33.7216C75.2969 33.4996 74.7573 33.3908 74.2264 33.262C72.5968 32.8687 71.0128 32.2873 69.5111 31.5414C68.7644 31.1707 68.0386 30.7599 67.304 30.3665C66.5486 29.9618 65.7788 29.5728 64.9586 29.3244C63.1253 28.7687 61.1205 28.951 59.3116 29.5794C57.3012 30.2773 55.4836 31.5214 54.1046 33.1424L54.105 33.1441Z" fill="url(#paint8_linear)"/>
<g filter="url(#filter11_f)">
<path d="M66.9855 33.547C66.8872 33.4225 66.7462 33.3346 66.5939 33.2902C66.4416 33.2458 66.2784 33.2467 66.1222 33.2685C65.8089 33.322 65.5286 33.486 65.2667 33.671C64.5226 34.1827 63.8655 34.8146 63.2924 35.5117C62.533 36.4342 61.9064 37.5012 61.6962 38.6774C61.6614 38.8754 61.6375 39.0777 61.6623 39.2779C61.6871 39.4781 61.7637 39.6761 61.906 39.8188C62.0304 39.9441 62.2002 40.0207 62.3751 40.0459C62.55 40.0712 62.7302 40.0468 62.8973 39.9902C63.2323 39.8771 63.5108 39.6421 63.7737 39.4071C65.2253 38.1082 66.5382 36.5491 67.0634 34.6727C67.1156 34.4843 67.1609 34.2915 67.1591 34.0961C67.1574 33.9007 67.1069 33.7001 66.9859 33.547H66.9855Z" fill="#F6DA4A"/>
</g>
<g opacity="0.8" filter="url(#filter12_f)">
<path d="M63.5086 30.8577C63.6087 31.1806 64.13 31.1275 64.4311 31.282C64.6953 31.4177 64.9072 31.7158 65.2044 31.7245C65.4873 31.7332 65.9285 31.6266 65.9659 31.3459C66.0147 30.9748 65.4725 30.7389 65.1239 30.6027C64.6757 30.4278 64.1 30.339 63.6792 30.5731C63.5826 30.6266 63.4773 30.7524 63.5104 30.8581L63.5086 30.8577Z" fill="url(#paint9_radial)"/>
</g>
<g opacity="0.8" filter="url(#filter13_f)">
<path d="M58.5379 30.6706C58.1515 30.5445 57.5123 31.2263 57.7207 31.5758C57.7781 31.6715 57.9535 31.7933 58.0714 31.7281C58.2498 31.6302 58.3952 31.2799 58.5879 31.1428C58.7168 31.0514 58.688 30.7198 58.5375 30.6711L58.5379 30.6706Z" fill="url(#paint10_radial)"/>
</g>
<g filter="url(#filter14_f)">
<path d="M75.5773 37.3034C76.264 37.3034 76.8979 36.6148 76.9931 35.7655C77.0883 34.9161 76.6088 34.2275 75.9221 34.2275C75.2354 34.2275 74.6015 34.9161 74.5063 35.7655C74.4111 36.6148 74.8906 37.3034 75.5773 37.3034Z" fill="url(#paint11_linear)"/>
</g>
<path d="M93.9048 65.0386C96.5527 67.1687 98.2328 70.3849 98.7523 73.7429C99.1579 76.3625 98.8942 79.0496 98.3041 81.6331C97.7141 84.2166 96.802 86.7139 95.8969 89.2047C95.5357 90.1981 95.1737 91.2007 95.0301 92.2477C94.8865 93.2947 94.9779 94.4034 95.4826 95.3321C96.0614 96.3964 97.1419 97.1292 98.3033 97.4743C99.4499 97.815 100.688 97.8076 101.849 97.5187C103.01 97.2297 104.093 96.6645 105.038 95.9304C107.438 94.0666 108.886 91.1655 109.447 88.1795C110.007 85.1935 109.749 82.1091 109.229 79.1153C108.518 75.0336 107.322 71.0433 105.8 67.1887C104.68 64.3537 103.37 61.5665 101.54 59.1297C99.7484 56.7451 97.49 54.7377 95.735 52.3261C94.5153 50.6508 93.5384 48.7796 92.0771 47.3106C91.3461 46.576 90.4932 45.9477 89.5272 45.5721C88.5611 45.1966 87.4763 45.0865 86.4789 45.3676C85.1648 45.7375 84.0856 46.7732 83.5186 48.0142C82.9516 49.2553 82.8472 50.6786 83.0695 52.0263C83.3567 53.7647 84.1513 55.3783 85.0477 56.8956C86.0603 58.6088 87.233 60.258 88.7622 61.5317C90.3579 62.8611 92.2877 63.7379 93.9056 65.039L93.9048 65.0386Z" fill="#020204"/>
<g filter="url(#filter15_f)">
<path d="M87.6725 60.9343L88.3371 61.5327C89.9616 62.862 90.8268 64.3546 92.4739 65.6566C95.1697 67.7866 97.9053 71.4632 98.4343 74.8209C98.8471 77.4405 98.3014 78.8634 97.6346 81.9521C96.9679 85.0408 95.0784 89.4141 94.0577 92.3922C93.6501 93.5802 94.8817 93.0898 94.7205 94.3417C94.6394 94.9566 94.6342 95.5789 94.705 96.195L94.736 95.8373C94.9322 94.1302 95.455 92.4888 96.0251 90.8788C97.1212 87.7796 98.3793 84.7432 99.2467 81.5631C100.114 78.383 100.018 76.0958 99.5657 73.3631C98.9964 69.9271 96.9976 66.7545 94.1667 64.6601C92.1643 63.1793 89.8043 62.2298 87.6739 60.9343H87.6725Z" fill="#838384"/>
</g>
<g opacity="0.25" filter="url(#filter16_f)">
<path d="M46.3926 59.0087C46.8346 59.6718 46.1179 61.9581 56.4205 60.4947C56.4205 60.4947 54.6112 60.6936 52.8275 61.1057C50.0549 62.0338 47.6388 63.0712 45.7753 64.4455C43.9289 65.804 42.5772 67.5772 40.8829 69.1003C40.8829 69.1003 43.6265 64.0873 44.3101 62.5787C44.9937 61.07 44.1956 61.1427 44.7371 58.9173C45.2785 56.6919 46.6021 54.5627 46.6021 54.5627C46.6021 54.5627 45.5211 57.7002 46.3926 59.0082V59.0087Z" fill="url(#paint12_radial)"/>
</g>
<g opacity="0.42" filter="url(#filter17_f)">
<path d="M79.5222 58.4105C77.4226 59.8726 76.1924 59.6998 73.6446 59.9857C71.0968 60.2716 64.2027 60.1685 64.2027 60.1685C64.2027 60.1685 65.2009 60.1498 67.4132 60.5619C69.6255 60.974 74.1376 61.3678 76.6785 62.3351C79.2193 63.3024 80.1457 63.5783 81.6901 64.5544C83.8876 65.9442 85.5011 68.1213 87.6025 69.6443C87.6025 69.6443 87.7043 67.6235 86.8558 66.1144C86.0072 64.6053 83.7227 62.2263 83.056 60.0049C82.3894 57.7834 82.0665 53.4202 82.0665 53.4202C82.0665 53.4202 81.6226 56.9471 79.5226 58.4096L79.5222 58.4105Z" fill="url(#paint13_radial)"/>
</g>
<g opacity="0.2" filter="url(#filter18_f)">
<path d="M59.775 55.2871L59.4717 57.1774C59.4108 57.4863 59.3434 57.7953 59.2281 58.0881C59.1127 58.381 58.9478 58.659 58.7146 58.8697C58.5101 59.0542 58.2603 59.1812 58.0096 59.2961C57.0314 59.7443 55.9844 60.0415 54.9166 60.1751L56.1937 60.2917C56.4614 60.3209 56.7299 60.3535 56.9909 60.4205C57.252 60.4876 57.5066 60.5946 57.7237 60.7491C57.9622 60.9231 58.1493 61.1616 58.2894 61.4218C58.5679 61.9405 58.6611 62.5371 58.7128 63.1189C58.7781 63.8687 58.7833 64.6245 58.7272 65.3747C58.7777 64.8726 58.883 64.3756 59.0405 63.8961C59.3247 63.0319 59.782 62.2216 60.3982 61.5524C60.6427 61.2869 60.9116 61.0432 61.2076 60.8352C62.1246 60.1956 63.2479 59.9223 64.3563 60.0689C63.2321 60.1147 62.1265 59.7716 61.2258 59.0972C60.7724 58.7557 60.3773 58.3301 60.1031 57.8331C59.6774 57.0543 59.5607 56.1437 59.7763 55.2827L59.775 55.2871Z" fill="url(#paint14_radial)"/>
</g>
<g opacity="0.1" filter="url(#filter19_f)">
<path d="M57.0901 70.0996C56.5548 72.137 56.1872 74.2148 55.9909 76.3123C55.7138 79.2765 55.7803 82.2616 55.6211 85.235C55.4905 87.758 55.1903 90.3071 55.628 92.7953C55.8369 93.982 56.2124 95.1386 56.7398 96.2221C56.8236 95.8086 56.8849 95.3908 56.9235 94.9706C57.1093 92.9533 56.7694 90.9294 56.6545 88.9068C56.4535 85.3616 56.9444 81.8139 57.1441 78.2726C57.2975 75.55 57.2793 72.8204 57.0897 70.1L57.0901 70.0996Z" fill="black"/>
</g>
<g filter="url(#filter20_f)">
<path d="M81.5404 39.544C80.5996 40.4013 81.9816 41.6885 82.637 43.2011C83.0443 44.141 84.1717 45.466 85.2618 45.2541C86.0821 45.0944 86.5907 43.9138 86.5133 43.0827C86.3636 41.477 85.009 41.1014 84.0255 40.5501C83.2466 40.1132 82.2009 38.9427 81.5408 39.5449L81.5404 39.544Z" fill="#838384"/>
</g>
<g opacity="0.2" filter="url(#filter21_f)">
<path d="M111.726 109.721C111.519 110.401 111.21 111.048 110.81 111.64C109.925 112.951 108.641 113.938 107.357 114.847C105.168 116.399 102.887 117.823 100.85 119.59C99.4841 120.772 98.24 122.097 97.0858 123.492C96.0992 124.684 95.1715 125.937 94.0472 126.998C92.9122 128.068 91.5762 128.933 90.1364 129.404C88.3857 129.977 86.5357 129.949 84.8493 129.517C83.6674 129.214 82.515 128.687 81.783 127.734C81.048 126.778 80.8098 125.492 80.7249 124.23C80.5743 121.998 80.8411 119.718 81.0837 117.453C81.2857 115.571 81.4716 113.687 81.5484 111.808C81.6825 108.391 81.4604 105.004 80.9979 101.681C80.9206 101.124 80.8362 100.564 80.8831 99.99C80.93 99.4165 81.1221 98.8203 81.5248 98.3778C81.8965 97.9687 82.4153 97.7268 82.9323 97.6076C83.4493 97.4883 83.9735 97.477 84.4932 97.4683C85.7175 97.4357 86.9491 97.3639 88.1551 97.4709C88.9161 97.5388 89.6623 97.6776 90.422 97.7507C91.6901 97.8725 93.0047 97.8086 94.2769 97.4357C95.6461 97.0344 96.9518 96.2816 98.3432 96.075C98.9139 95.9901 99.4872 95.9997 100.041 96.0776C100.607 96.1568 101.171 96.3134 101.606 96.6589C101.937 96.9217 102.179 97.2825 102.368 97.6672C102.65 98.2403 102.824 98.8725 102.923 99.5209C103.011 100.095 103.041 100.687 103.19 101.243C103.433 102.157 103.985 102.934 104.65 103.567C105.314 104.199 106.091 104.699 106.866 105.191C107.639 105.682 108.416 106.169 109.241 106.573C109.628 106.763 110.027 106.935 110.397 107.153C110.767 107.372 111.112 107.641 111.357 107.995C111.691 108.476 111.825 109.106 111.725 109.725" fill="url(#paint15_linear)"/>
</g>
<path d="M120.407 111.35C120.116 112.099 119.699 112.798 119.182 113.412C118.04 114.767 116.454 115.662 114.876 116.467C112.182 117.839 109.392 119.044 106.86 120.695C105.164 121.801 103.598 123.1 102.134 124.499C100.882 125.696 99.6949 126.974 98.2911 127.988C96.8743 129.011 95.2363 129.752 93.5088 130.012C91.407 130.327 89.2356 129.919 87.2861 129.07C85.9206 128.475 84.6073 127.624 83.821 126.359C83.0317 125.089 82.8515 123.536 82.8494 122.04C82.8459 119.396 83.3358 116.775 83.7971 114.176C84.18 112.012 84.5456 109.844 84.7805 107.66C85.2083 103.687 85.2053 99.6733 84.9198 95.6873C84.8763 95.0198 84.8162 94.3458 84.9163 93.6839C85.0164 93.0221 85.2884 92.3624 85.7953 91.9259C86.264 91.5225 86.8919 91.3445 87.5098 91.3106C88.1277 91.2767 88.743 91.3746 89.3548 91.4638C90.7965 91.6744 92.2495 91.8402 93.6585 92.2109C94.5475 92.4446 95.4134 92.7592 96.3007 92.9985C97.7815 93.3989 99.332 93.5904 100.855 93.4128C102.496 93.2213 104.089 92.6047 105.74 92.6448C106.417 92.6613 107.089 92.7892 107.735 92.9929C108.394 93.2009 109.045 93.4985 109.529 93.9916C109.897 94.3658 110.154 94.8379 110.347 95.3275C110.635 96.0559 110.789 96.8318 110.855 97.612C110.914 98.303 110.904 99.0019 111.035 99.6833C111.251 100.804 111.839 101.826 112.571 102.701C113.302 103.577 114.181 104.32 115.049 105.054C115.919 105.785 116.794 106.514 117.733 107.155C118.173 107.456 118.627 107.738 119.046 108.069C119.464 108.4 119.848 108.786 120.11 109.251C120.464 109.882 120.573 110.647 120.407 111.351L120.407 111.35Z" fill="url(#paint16_linear)"/>
<g filter="url(#filter22_f)">
<path d="M119.051 109.979C118.782 110.653 118.404 111.279 117.932 111.832C116.887 113.057 115.439 113.857 114 114.578C111.54 115.81 108.994 116.892 106.68 118.379C105.134 119.373 103.704 120.54 102.365 121.799C101.22 122.876 100.134 124.026 98.8546 124.936C97.5579 125.858 96.0618 126.523 94.487 126.755C92.568 127.038 90.5881 126.671 88.8048 125.908C87.5616 125.376 86.3606 124.616 85.6404 123.471C84.9241 122.332 84.757 120.934 84.7527 119.589C84.747 117.211 85.1957 114.859 85.6186 112.519C85.9698 110.573 86.304 108.625 86.5168 106.66C86.9041 103.088 86.8858 99.481 86.6438 95.8966C86.6034 95.2961 86.5568 94.6895 86.6491 94.0951C86.7413 93.5007 86.9876 92.9084 87.4437 92.5155C87.8714 92.1469 88.4458 91.9855 89.0102 91.9559C89.5746 91.9263 90.1359 92.0177 90.6942 92.0995C92.0097 92.2931 93.3365 92.4389 94.6236 92.7709C95.4352 92.9807 96.2267 93.2635 97.0366 93.4794C98.3899 93.8405 99.805 94.0124 101.197 93.8518C102.694 93.6791 104.15 93.1251 105.657 93.1613C106.275 93.1765 106.888 93.2918 107.48 93.4746C108.082 93.6599 108.677 93.9245 109.119 94.3723C109.452 94.7095 109.682 95.1355 109.865 95.5733C110.138 96.2247 110.315 96.921 110.329 97.6272C110.344 98.3644 110.183 99.1045 110.283 99.8347C110.364 100.428 110.615 100.987 110.936 101.493C111.256 101.998 111.647 102.454 112.034 102.911C112.781 103.795 113.53 104.694 114.467 105.372C115.534 106.144 116.801 106.595 117.903 107.316C118.231 107.531 118.55 107.774 118.781 108.09C118.974 108.36 119.1 108.673 119.147 109.001C119.194 109.33 119.162 109.665 119.053 109.979H119.051Z" fill="#CD8907"/>
</g>
<g filter="url(#filter23_f)">
<path d="M118.898 109.218C118.599 109.897 118.211 110.529 117.749 111.09C116.678 112.392 115.233 113.288 113.709 113.863C111.201 114.811 108.464 114.938 106.002 116.017C104.502 116.674 103.153 117.665 101.785 118.602C100.68 119.358 99.5507 120.087 98.3371 120.616C96.9668 121.214 95.5091 121.549 94.0468 121.785C93.1167 121.935 92.1752 122.044 91.2357 121.992C90.2962 121.94 89.3537 121.72 88.5251 121.241C87.8964 120.878 87.3314 120.355 86.9952 119.677C86.6222 118.923 86.5575 118.038 86.5664 117.183C86.5893 114.906 87.0767 112.654 87.0618 110.377C87.0489 108.395 86.6565 106.439 86.5436 104.46C86.3262 100.656 87.1429 96.7852 86.4242 93.053C86.3098 92.4556 86.1546 91.8588 86.1621 91.2485C86.1661 90.9429 86.2118 90.6372 86.3188 90.3546C86.4257 90.072 86.5988 89.8157 86.8286 89.6371C87.0225 89.487 87.2513 89.3958 87.4866 89.3545C87.7218 89.3133 87.9626 89.3213 88.1988 89.3583C88.6703 89.4318 89.1199 89.6168 89.579 89.7535C90.893 90.145 92.2812 90.1364 93.6161 90.4319C94.4542 90.6174 95.2659 90.9198 96.095 91.1472C97.4876 91.5226 98.9399 91.6904 100.368 91.5226C101.905 91.3429 103.406 90.7852 104.951 90.8255C105.584 90.8415 106.212 90.9595 106.823 91.1418C107.434 91.3242 108.044 91.5816 108.506 92.0481C108.839 92.3848 109.078 92.8149 109.273 93.26C109.557 93.9099 109.754 94.6167 109.75 95.3341C109.747 95.7079 109.69 96.0784 109.657 96.4495C109.623 96.8206 109.613 97.2024 109.701 97.5633C109.79 97.9242 109.977 98.2534 110.19 98.55C110.404 98.8465 110.645 99.1184 110.866 99.409C111.483 100.222 111.925 101.171 112.406 102.085C112.887 102.999 113.427 103.904 114.187 104.562C115.221 105.459 116.563 105.817 117.716 106.525C118.054 106.732 118.381 106.975 118.618 107.308C118.808 107.575 118.934 107.89 118.982 108.223C119.031 108.556 119.002 108.897 118.897 109.215L118.898 109.218Z" fill="#F5C021"/>
</g>
<g filter="url(#filter24_f)">
<path d="M86.1626 93.4105C87.5881 93.0245 88.8022 94.1054 89.8361 94.9213C90.5041 95.4914 91.4692 95.3478 92.289 95.3748C93.6467 95.3256 94.9979 95.6023 96.3564 95.4339C99.0304 95.2077 101.651 94.5506 104.338 94.4331C105.622 94.3522 107.062 94.2777 108.171 95.0271C108.62 95.3386 109.279 96.6545 109.722 96.1606C109.54 94.7777 108.514 93.4383 107.138 93.0702C106.061 92.9005 104.962 93.1964 103.878 93.1007C100.648 93.0236 97.4412 92.424 94.2033 92.5959C91.9509 92.6155 89.7008 92.511 87.4519 92.4231C86.5686 92.2425 86.2566 93.028 85.7766 93.3282" fill="url(#paint17_linear)"/>
</g>
<g opacity="0.75" filter="url(#filter25_f)">
<path d="M92.5537 67.1153C93.0704 67.0354 96.2598 69.747 95.8239 70.7587C95.3879 71.7705 94.5687 71.1588 93.9826 71.1656C93.3966 71.1724 91.7936 71.9001 91.5251 71.441C91.2565 70.9818 92.2341 69.9092 92.7457 69.0132C93.1577 68.2914 92.0368 67.2003 92.5538 67.1204L92.5537 67.1153Z" fill="#7C7C7C"/>
</g>
<g opacity="0.25" filter="url(#filter26_f)">
<path d="M47.549 50.0487C47.4974 49.424 46.6053 49.3305 46.2074 49.6419C45.8714 49.9054 45.5563 50.8041 45.8461 51.1559C46.3173 51.7258 47.6193 50.9058 47.5489 50.0496L47.549 50.0487Z" fill="#7C7C7C"/>
</g>
<g opacity="0.35" filter="url(#filter27_f)">
<path d="M105.385 95.5818C105.14 95.1023 104.694 94.7437 104.197 94.5361C103.7 94.3286 103.154 94.262 102.616 94.2664C101.539 94.2751 100.468 94.5553 99.3955 94.4622C98.4891 94.3838 97.6288 94.0431 96.7411 93.8281C95.8285 93.6106 94.8603 93.5236 93.9539 93.7659C92.9853 94.0296 92.1306 94.6771 91.5954 95.5261C91.1237 96.2746 90.8992 97.1592 90.8295 98.0413C90.7599 98.9233 90.8352 99.8106 90.9244 100.691C90.9888 101.328 91.061 101.966 91.2151 102.589C91.3691 103.211 91.6085 103.817 91.9836 104.336C92.5231 105.082 93.3251 105.615 94.1898 105.935C95.6181 106.457 97.1895 106.429 98.5987 105.858C101.062 104.789 103.146 102.871 104.417 100.506C104.871 99.6587 105.225 98.7562 105.453 97.8228C105.544 97.4517 105.615 97.0735 105.619 96.6914C105.622 96.3094 105.555 95.9212 105.381 95.5818H105.385Z" fill="url(#paint18_radial)"/>
</g>
<g opacity="0.35" filter="url(#filter28_f)">
<path d="M105.385 95.0788C105.14 94.7321 104.694 94.4729 104.197 94.3229C103.7 94.1728 103.154 94.1247 102.616 94.1278C101.539 94.1341 100.468 94.3367 99.3955 94.2694C98.4891 94.2128 97.6288 93.9664 96.7411 93.811C95.8285 93.6537 94.8603 93.5908 93.9539 93.7661C92.9853 93.9567 92.1306 94.4248 91.5954 95.0385C91.1237 95.5796 90.8992 96.2192 90.8295 96.8568C90.7599 97.4945 90.8352 98.1359 90.9244 98.7726C90.9888 99.2332 91.061 99.6943 91.2151 100.144C91.3691 100.594 91.6085 101.032 91.9836 101.407C92.5231 101.947 93.3251 102.332 94.1898 102.563C95.6181 102.941 97.1895 102.921 98.5987 102.508C101.062 101.735 103.146 100.348 104.417 98.6383C104.871 98.0261 105.225 97.3737 105.453 96.6989C105.544 96.4306 105.615 96.1572 105.619 95.881C105.622 95.6048 105.555 95.3242 105.381 95.0788H105.385Z" fill="url(#paint19_radial)"/>
</g>
<path d="M107.432 91.0946C107.256 90.6142 106.945 90.1886 106.566 89.8457C106.186 89.5028 105.739 89.2399 105.268 89.0398C104.326 88.6394 103.301 88.4915 102.295 88.3018L99.4542 87.7461C98.4664 87.5781 97.4447 87.4711 96.4669 87.6917C95.6114 87.8845 94.8203 88.327 94.1728 88.9188C93.5253 89.5106 93.0197 90.2486 92.6563 91.051C92.0158 92.4566 91.8143 94.0384 91.9366 95.5779C92.028 96.7237 92.3173 97.9042 93.0723 98.7719C93.6815 99.4725 94.5462 99.9098 95.4369 100.173C96.9708 100.627 98.6427 100.603 100.163 100.106C102.69 99.2513 104.877 97.6069 106.398 95.4152C106.894 94.6972 107.317 93.9148 107.509 93.0641C107.656 92.4113 107.661 91.7238 107.432 91.0993V91.0946Z" fill="#020204"/>
<g filter="url(#filter29_f)">
<path d="M97.0022 87.2338C96.765 87.2468 96.5289 87.2741 96.295 87.3157C94.7851 87.5841 93.4026 88.5384 92.6237 89.8587C92.074 90.7999 91.8227 91.8856 91.9031 92.9726C91.9348 92.2146 92.1337 91.4727 92.5014 90.8099C93.1254 89.6864 94.2559 88.8387 95.5205 88.6072C96.3037 88.4645 97.1009 88.5506 97.8868 88.6481C98.6409 88.7421 99.4011 88.8409 100.144 89.0019C101.293 89.2508 102.431 89.6328 103.395 90.3073C103.62 90.464 103.83 90.6424 104.007 90.8513C104.183 91.0601 104.321 91.3029 104.374 91.5719C104.452 91.9652 104.339 92.3782 104.143 92.7276C103.948 93.077 103.68 93.3834 103.395 93.6658C103.164 93.8947 102.918 94.1158 102.674 94.3316C103.788 94.1158 104.916 93.8103 105.842 93.1623C106.234 92.8882 106.589 92.5597 106.821 92.1423C107.054 91.725 107.153 91.2198 107.039 90.7555C106.962 90.4422 106.791 90.1541 106.577 89.9126C106.363 89.6711 106.107 89.4723 105.843 89.2873C104.676 88.4705 103.312 87.9471 101.899 87.7773C100.994 87.6107 100.08 87.4701 99.1666 87.3552C98.4516 87.2656 97.7219 87.1929 97.0039 87.2334L97.0022 87.2338Z" fill="url(#paint20_radial)"/>
</g>
<g filter="url(#filter30_f)">
<path d="M97.0022 87.2338C96.765 87.2468 96.5289 87.2741 96.295 87.3157C94.7851 87.5841 93.4026 88.5384 92.6237 89.8587C92.074 90.7999 91.8227 91.8856 91.9031 92.9726C91.9348 92.2146 92.1337 91.4727 92.5014 90.8099C93.1254 89.6864 94.2559 88.8387 95.5205 88.6072C96.3037 88.4645 97.1009 88.5506 97.8868 88.6481C98.6409 88.7421 99.4011 88.8409 100.144 89.0019C101.293 89.2508 102.431 89.6328 103.395 90.3073C103.62 90.464 103.83 90.6424 104.007 90.8513C104.183 91.0601 104.321 91.3029 104.374 91.5719C104.452 91.9652 104.339 92.3782 104.143 92.7276C103.948 93.077 103.68 93.3834 103.395 93.6658C103.164 93.8947 102.918 94.1158 102.674 94.3316C103.788 94.1158 104.916 93.8103 105.842 93.1623C106.234 92.8882 106.589 92.5597 106.821 92.1423C107.054 91.725 107.153 91.2198 107.039 90.7555C106.962 90.4422 106.791 90.1541 106.577 89.9126C106.363 89.6711 106.107 89.4723 105.843 89.2873C104.676 88.4705 103.312 87.9471 101.899 87.7773C100.994 87.6107 100.08 87.4701 99.1666 87.3552C98.4516 87.2656 97.7219 87.1929 97.0039 87.2334L97.0022 87.2338Z" fill="url(#paint21_linear)"/>
</g>
<path d="M47.516 47.1865L40.1523 56.4056C38.615 58.3116 37.041 60.2323 36.0402 62.4673C35.1803 64.3876 34.7739 66.4737 34.1843 68.4941C33.515 70.7882 32.6064 73.0066 31.5864 75.1676C30.6443 77.1627 29.6065 79.1114 28.5665 81.0578C27.8102 82.4738 27.0413 83.9211 26.7789 85.505C26.5717 86.7565 26.6918 88.048 27.0112 89.276C27.3306 90.504 27.838 91.6737 28.4202 92.8034C30.8862 97.6227 34.5863 101.777 38.9692 104.955C40.9578 106.397 43.0887 107.644 45.3232 108.665C46.5338 109.218 47.8097 109.711 49.1404 109.734C49.8062 109.746 50.478 109.636 51.0872 109.369C51.6965 109.101 52.2404 108.671 52.6029 108.112C53.048 107.426 53.199 106.573 53.1098 105.76C53.0206 104.946 52.703 104.17 52.2774 103.471C51.233 101.764 49.5947 100.529 48.0146 99.305C44.6031 96.6619 41.3024 93.8743 38.1446 90.9327C37.2525 90.1015 36.3613 89.2451 35.7382 88.1982C35.1316 87.1782 34.8035 86.0163 34.5815 84.8506C33.9723 81.6522 34.129 78.2872 35.2169 75.2194C35.6424 74.0192 36.2047 72.873 36.7477 71.7208C37.6877 69.7234 38.5784 67.6886 39.8155 65.8606C41.3551 63.5847 43.4129 61.657 44.6675 59.2123C45.7266 57.1497 46.1557 54.8295 46.5656 52.5467L47.516 47.1865Z" fill="#020204"/>
<g opacity="0.95" filter="url(#filter31_f)">
<path d="M37.4988 72.2271C36.8332 72.8563 36.2592 73.5805 35.7943 74.3773C35.0304 75.6877 34.5803 77.1592 34.0254 78.576C33.612 79.6308 33.1307 80.6895 33.0728 81.8245C33.0433 82.4074 33.1272 82.9898 33.1464 83.5733C33.1656 84.1569 33.1126 84.7633 32.8315 85.2728C32.5987 85.6988 32.2113 86.0338 31.7626 86.1966C32.3723 86.4073 32.9051 86.8033 33.2901 87.3322C33.6094 87.7729 33.8135 88.2883 34.0907 88.7572C34.316 89.1386 34.5926 89.4918 34.9333 89.7695C35.2741 90.0471 35.6806 90.2454 36.1121 90.3022C36.409 90.3391 36.7102 90.3099 36.995 90.2165C37.2799 90.1231 37.5418 89.9677 37.7628 89.7609C37.2116 84.4616 37.7164 79.049 39.2373 73.9533C39.3332 73.6315 39.434 73.3075 39.4578 72.9719C39.4815 72.6364 39.4206 72.282 39.2218 72.0146C39.1159 71.8721 38.9733 71.759 38.8124 71.6891C38.6515 71.6192 38.4728 71.5936 38.2999 71.615C38.127 71.6365 37.9592 71.7049 37.8189 71.8119C37.6786 71.9188 37.5663 72.0637 37.4962 72.2277L37.4988 72.2271Z" fill="#7C7C7C"/>
</g>
<path d="M29.7092 89.2198C30.4054 88.9313 31.1878 88.8786 31.9284 89.0153C32.6691 89.1519 33.3688 89.4722 33.9924 89.8952C35.2386 90.742 36.1629 91.9743 37.0484 93.1936C39.0814 95.9934 41.0388 98.8514 42.812 101.823C44.2506 104.232 45.5726 106.721 47.2349 108.982C48.3201 110.458 49.5442 111.828 50.6347 113.3C51.7252 114.771 52.6921 116.37 53.176 118.137C53.8043 120.434 53.5611 122.964 52.468 125.079C51.6991 126.567 50.5202 127.843 49.086 128.708C47.6517 129.573 45.966 130.02 44.2924 129.957C41.6319 129.857 39.2011 128.528 36.7277 127.542C31.6887 125.535 26.2145 124.905 21.0201 123.342C19.4231 122.862 17.8539 122.293 16.2465 121.851C15.5328 121.655 14.8061 121.482 14.1316 121.177C13.4572 120.871 12.8262 120.415 12.4511 119.777C12.1613 119.283 12.0386 118.702 12.0464 118.129C12.0542 117.557 12.1883 116.992 12.3832 116.453C12.7731 115.377 13.4028 114.402 13.8279 113.339C14.522 111.603 14.6469 109.689 14.5533 107.821C14.4597 105.954 14.1573 104.103 14.0289 102.238C13.9724 101.405 13.9506 100.562 14.1095 99.7422C14.2683 98.9228 14.6212 98.1212 15.2226 97.5425C15.777 97.0086 16.5128 96.6918 17.266 96.5343C18.0193 96.3767 18.7956 96.3702 19.5654 96.3872C20.3352 96.4041 21.1058 96.4455 21.8734 96.3828C22.641 96.3201 23.4108 96.1478 24.0796 95.7658C24.7149 95.4029 25.2345 94.8628 25.6653 94.2715C26.0961 93.6801 26.4442 93.033 26.8011 92.3942C27.1579 91.7554 27.5269 91.1184 27.9942 90.5553C28.4616 89.9922 29.0342 89.5009 29.71 89.2207L29.7092 89.2198Z" fill="url(#paint22_linear)"/>
<g filter="url(#filter32_f)">
<path d="M30.8071 90.4207C31.4402 90.1657 32.1534 90.1379 32.8188 90.2885C33.4841 90.439 34.1025 90.7671 34.6412 91.1792C35.7195 92.0121 36.4688 93.187 37.1885 94.3427C38.9161 97.1421 40.6045 99.971 42.1997 102.857C43.4082 105.03 44.5604 107.249 46.0452 109.245C47.0303 110.569 48.1543 111.782 49.16 113.091C50.1656 114.399 51.0616 115.824 51.5067 117.413C52.0794 119.461 51.8475 121.721 50.8562 123.607C50.1384 124.966 49.0555 126.098 47.7292 126.876C46.3995 127.649 44.8763 128.024 43.3398 127.959C40.9039 127.846 38.6794 126.63 36.3861 125.805C31.9898 124.209 27.2249 123.995 22.7154 122.75C21.0988 122.311 19.5227 121.726 17.8983 121.316C17.1794 121.135 16.448 120.987 15.7652 120.699C15.0825 120.41 14.4393 119.963 14.069 119.321C13.7935 118.844 13.6834 118.282 13.7004 117.731C13.7174 117.18 13.8571 116.643 14.0485 116.124C14.441 115.094 15.0581 114.166 15.4541 113.132C16.0546 111.577 16.1286 109.867 16.0172 108.204C15.9058 106.54 15.6168 104.892 15.5154 103.228C15.4702 102.484 15.4632 101.731 15.6138 101.002C15.7643 100.273 16.082 99.5659 16.6124 99.0385C17.1868 98.4684 17.9788 98.1577 18.7782 98.0359C19.5776 97.914 20.3909 97.9671 21.1955 98.0389C22 98.1107 22.8077 98.2012 23.6149 98.1529C24.4221 98.1046 25.2406 97.9079 25.9081 97.4536C26.516 97.0424 26.9725 96.4424 27.3198 95.8009C27.667 95.1595 27.915 94.4716 28.1796 93.7918C28.4442 93.1121 28.731 92.4333 29.1465 91.8337C29.5621 91.234 30.1195 90.7001 30.8027 90.426" fill="#D99A03"/>
</g>
<g filter="url(#filter33_f)">
<path d="M30.2209 88.8391C30.8345 88.5348 31.5568 88.4724 32.2296 88.6096C32.9023 88.7468 33.5254 89.0754 34.0554 89.5053C35.115 90.36 35.7873 91.5886 36.414 92.7894C37.8521 95.5479 39.1915 98.3662 40.9125 100.964C42.1614 102.844 43.6018 104.603 44.8646 106.478C46.5773 109.021 47.9698 111.818 48.5442 114.814C48.9306 116.83 48.9185 119.002 47.9472 120.822C47.3075 122.017 46.2719 123.001 45.0478 123.61C43.8237 124.219 42.4182 124.472 41.0488 124.351C38.893 124.161 36.9348 123.101 34.9057 122.362C31.3049 121.05 27.4133 120.737 23.7076 119.747C22.1445 119.329 20.618 118.792 19.0297 118.465C18.3308 118.319 17.6181 118.213 16.951 117.961C16.2839 117.708 15.6516 117.291 15.3105 116.674C15.0711 116.24 14.9898 115.732 15.0259 115.24C15.062 114.747 15.2086 114.267 15.4023 113.811C15.7887 112.9 16.3596 112.064 16.6642 111.121C17.105 109.736 16.924 108.233 16.5928 106.819C16.2617 105.404 15.7848 104.015 15.6381 102.571C15.5729 101.928 15.5742 101.272 15.7208 100.641C15.8675 100.011 16.1677 99.4055 16.639 98.9534C17.2451 98.3713 18.0941 98.0816 18.9379 98.0004C19.7816 97.9192 20.6315 98.0303 21.4705 98.15C22.3094 98.2696 23.1536 98.4064 24.0009 98.3636C24.8481 98.3209 25.7101 98.103 26.3737 97.5842C27.0299 97.0714 27.4425 96.3077 27.6792 95.5176C27.9159 94.7274 27.9925 93.9014 28.0895 93.0834C28.1866 92.2655 28.3071 91.4399 28.6248 90.6775C28.9424 89.9151 29.4777 89.2126 30.2261 88.8412L30.2209 88.8391Z" fill="#F5BD0C"/>
</g>
<g filter="url(#filter34_f)">
<path d="M37.9031 95.7253C39.0371 97.7762 39.729 100.13 40.8534 102.198C41.8882 104.101 43.0657 106.06 44.117 107.814C44.5848 108.595 45.6762 109.796 46.7801 111.66C47.7801 113.348 48.7897 115.705 49.3549 116.497C49.0303 115.57 48.3628 113.082 47.5665 111.309C46.8267 109.651 45.9564 108.705 45.4225 107.814C44.3711 106.06 43.2393 104.483 42.1588 102.81C40.6684 100.503 39.5323 97.9211 37.9031 95.7258V95.7253Z" fill="url(#paint23_linear)"/>
</g>
</g>
<defs>
<filter id="filter0_f" x="49.9637" y="35.7051" width="29.5795" height="18.2014" filterUnits="userSpaceOnUse" color-interpolation-filters="sRGB">
<feFlood flood-opacity="0" result="BackgroundImageFix"/>
<feBlend mode="normal" in="SourceGraphic" in2="BackgroundImageFix" result="shape"/>
<feGaussianBlur stdDeviation="0.436168" result="effect1_foregroundBlur"/>
</filter>
<filter id="filter1_f" x="50.2112" y="34.9803" width="27.4051" height="12.8712" filterUnits="userSpaceOnUse" color-interpolation-filters="sRGB">
<feFlood flood-opacity="0" result="BackgroundImageFix"/>
<feBlend mode="normal" in="SourceGraphic" in2="BackgroundImageFix" result="shape"/>
<feGaussianBlur stdDeviation="0.191623" result="effect1_foregroundBlur"/>
</filter>
<filter id="filter2_f" x="50.0523" y="27.975" width="27.4025" height="14.3999" filterUnits="userSpaceOnUse" color-interpolation-filters="sRGB">
<feFlood flood-opacity="0" result="BackgroundImageFix"/>
<feBlend mode="normal" in="SourceGraphic" in2="BackgroundImageFix" result="shape"/>
<feGaussianBlur stdDeviation="0.291564" result="effect1_foregroundBlur"/>
</filter>
<filter id="filter3_f" x="70.9997" y="5.5309" width="8.88609" height="8.51164" filterUnits="userSpaceOnUse" color-interpolation-filters="sRGB">
<feFlood flood-opacity="0" result="BackgroundImageFix"/>
<feBlend mode="normal" in="SourceGraphic" in2="BackgroundImageFix" result="shape"/>
<feGaussianBlur stdDeviation="0.429496" result="effect1_foregroundBlur"/>
</filter>
<filter id="filter4_f" x="70.6762" y="26.6126" width="1.85931" height="1.45656" filterUnits="userSpaceOnUse" color-interpolation-filters="sRGB">
<feFlood flood-opacity="0" result="BackgroundImageFix"/>
<feBlend mode="normal" in="SourceGraphic" in2="BackgroundImageFix" result="shape"/>
<feGaussianBlur stdDeviation="0.0533428" result="effect1_foregroundBlur"/>
</filter>
<filter id="filter5_f" x="70.5731" y="24.6145" width="3.48085" height="3.43681" filterUnits="userSpaceOnUse" color-interpolation-filters="sRGB">
<feFlood flood-opacity="0" result="BackgroundImageFix"/>
<feBlend mode="normal" in="SourceGraphic" in2="BackgroundImageFix" result="shape"/>
<feGaussianBlur stdDeviation="0.111184" result="effect1_foregroundBlur"/>
</filter>
<filter id="filter6_f" x="71.6722" y="16.532" width="6.80334" height="6.28768" filterUnits="userSpaceOnUse" color-interpolation-filters="sRGB">
<feFlood flood-opacity="0" result="BackgroundImageFix"/>
<feBlend mode="normal" in="SourceGraphic" in2="BackgroundImageFix" result="shape"/>
<feGaussianBlur stdDeviation="0.0317057" result="effect1_foregroundBlur"/>
</filter>
<filter id="filter7_f" x="53.6991" y="17.388" width="6.35749" height="5.60162" filterUnits="userSpaceOnUse" color-interpolation-filters="sRGB">
<feFlood flood-opacity="0" result="BackgroundImageFix"/>
<feBlend mode="normal" in="SourceGraphic" in2="BackgroundImageFix" result="shape"/>
<feGaussianBlur stdDeviation="0.0289208" result="effect1_foregroundBlur"/>
</filter>
<filter id="filter8_f" x="54.2914" y="25.0297" width="2.72305" height="4.10432" filterUnits="userSpaceOnUse" color-interpolation-filters="sRGB">
<feFlood flood-opacity="0" result="BackgroundImageFix"/>
<feBlend mode="normal" in="SourceGraphic" in2="BackgroundImageFix" result="shape"/>
<feGaussianBlur stdDeviation="0.109899" result="effect1_foregroundBlur"/>
</filter>
<filter id="filter9_f" x="56.6546" y="39.4451" width="6.81195" height="5.02212" filterUnits="userSpaceOnUse" color-interpolation-filters="sRGB">
<feFlood flood-opacity="0" result="BackgroundImageFix"/>
<feBlend mode="normal" in="SourceGraphic" in2="BackgroundImageFix" result="shape"/>
<feGaussianBlur stdDeviation="0.192591" result="effect1_foregroundBlur"/>
</filter>
<filter id="filter10_f" x="51.3117" y="32.5026" width="23.6696" height="10.6244" filterUnits="userSpaceOnUse" color-interpolation-filters="sRGB">
<feFlood flood-opacity="0" result="BackgroundImageFix"/>
<feBlend mode="normal" in="SourceGraphic" in2="BackgroundImageFix" result="shape"/>
<feGaussianBlur stdDeviation="0.162385" result="effect1_foregroundBlur"/>
</filter>
<filter id="filter11_f" x="61.2883" y="32.8901" width="6.2346" height="7.52948" filterUnits="userSpaceOnUse" color-interpolation-filters="sRGB">
<feFlood flood-opacity="0" result="BackgroundImageFix"/>
<feBlend mode="normal" in="SourceGraphic" in2="BackgroundImageFix" result="shape"/>
<feGaussianBlur stdDeviation="0.18188" result="effect1_foregroundBlur"/>
</filter>
<filter id="filter12_f" x="63.457" y="30.3843" width="2.5591" height="1.38788" filterUnits="userSpaceOnUse" color-interpolation-filters="sRGB">
<feFlood flood-opacity="0" result="BackgroundImageFix"/>
<feBlend mode="normal" in="SourceGraphic" in2="BackgroundImageFix" result="shape"/>
<feGaussianBlur stdDeviation="0.0235651" result="effect1_foregroundBlur"/>
</filter>
<filter id="filter13_f" x="57.6328" y="30.6081" width="1.08391" height="1.18547" filterUnits="userSpaceOnUse" color-interpolation-filters="sRGB">
<feFlood flood-opacity="0" result="BackgroundImageFix"/>
<feBlend mode="normal" in="SourceGraphic" in2="BackgroundImageFix" result="shape"/>
<feGaussianBlur stdDeviation="0.0235651" result="effect1_foregroundBlur"/>
</filter>
<filter id="filter14_f" x="74.3479" y="34.0812" width="2.80355" height="3.3685" filterUnits="userSpaceOnUse" color-interpolation-filters="sRGB">
<feFlood flood-opacity="0" result="BackgroundImageFix"/>
<feBlend mode="normal" in="SourceGraphic" in2="BackgroundImageFix" result="shape"/>
<feGaussianBlur stdDeviation="0.073168" result="effect1_foregroundBlur"/>
</filter>
<filter id="filter15_f" x="87.088" y="60.3498" width="13.401" height="36.4297" filterUnits="userSpaceOnUse" color-interpolation-filters="sRGB">
<feFlood flood-opacity="0" result="BackgroundImageFix"/>
<feBlend mode="normal" in="SourceGraphic" in2="BackgroundImageFix" result="shape"/>
<feGaussianBlur stdDeviation="0.292242" result="effect1_foregroundBlur"/>
</filter>
<filter id="filter16_f" x="40.5869" y="54.2668" width="16.1295" height="15.1295" filterUnits="userSpaceOnUse" color-interpolation-filters="sRGB">
<feFlood flood-opacity="0" result="BackgroundImageFix"/>
<feBlend mode="normal" in="SourceGraphic" in2="BackgroundImageFix" result="shape"/>
<feGaussianBlur stdDeviation="0.147995" result="effect1_foregroundBlur"/>
</filter>
<filter id="filter17_f" x="63.7151" y="52.9326" width="24.3788" height="17.1993" filterUnits="userSpaceOnUse" color-interpolation-filters="sRGB">
<feFlood flood-opacity="0" result="BackgroundImageFix"/>
<feBlend mode="normal" in="SourceGraphic" in2="BackgroundImageFix" result="shape"/>
<feGaussianBlur stdDeviation="0.243791" result="effect1_foregroundBlur"/>
</filter>
<filter id="filter18_f" x="54.5802" y="54.9464" width="10.1124" height="10.7647" filterUnits="userSpaceOnUse" color-interpolation-filters="sRGB">
<feFlood flood-opacity="0" result="BackgroundImageFix"/>
<feBlend mode="normal" in="SourceGraphic" in2="BackgroundImageFix" result="shape"/>
<feGaussianBlur stdDeviation="0.168169" result="effect1_foregroundBlur"/>
</filter>
<filter id="filter19_f" x="54.7792" y="69.4801" width="3.08732" height="27.3616" filterUnits="userSpaceOnUse" color-interpolation-filters="sRGB">
<feFlood flood-opacity="0" result="BackgroundImageFix"/>
<feBlend mode="normal" in="SourceGraphic" in2="BackgroundImageFix" result="shape"/>
<feGaussianBlur stdDeviation="0.309774" result="effect1_foregroundBlur"/>
</filter>
<filter id="filter20_f" x="80.8362" y="38.9902" width="6.07088" height="6.67253" filterUnits="userSpaceOnUse" color-interpolation-filters="sRGB">
<feFlood flood-opacity="0" result="BackgroundImageFix"/>
<feBlend mode="normal" in="SourceGraphic" in2="BackgroundImageFix" result="shape"/>
<feGaussianBlur stdDeviation="0.193019" result="effect1_foregroundBlur"/>
</filter>
<filter id="filter21_f" x="79.722" y="95.056" width="32.9941" height="35.7412" filterUnits="userSpaceOnUse" color-interpolation-filters="sRGB">
<feFlood flood-opacity="0" result="BackgroundImageFix"/>
<feBlend mode="normal" in="SourceGraphic" in2="BackgroundImageFix" result="shape"/>
<feGaussianBlur stdDeviation="0.479548" result="effect1_foregroundBlur"/>
</filter>
<filter id="filter22_f" x="82.705" y="89.9026" width="38.5107" height="38.995" filterUnits="userSpaceOnUse" color-interpolation-filters="sRGB">
<feFlood flood-opacity="0" result="BackgroundImageFix"/>
<feBlend mode="normal" in="SourceGraphic" in2="BackgroundImageFix" result="shape"/>
<feGaussianBlur stdDeviation="1.0238" result="effect1_foregroundBlur"/>
</filter>
<filter id="filter23_f" x="84.5484" y="87.7135" width="36.0703" height="35.9053" filterUnits="userSpaceOnUse" color-interpolation-filters="sRGB">
<feFlood flood-opacity="0" result="BackgroundImageFix"/>
<feBlend mode="normal" in="SourceGraphic" in2="BackgroundImageFix" result="shape"/>
<feGaussianBlur stdDeviation="0.806721" result="effect1_foregroundBlur"/>
</filter>
<filter id="filter24_f" x="85.5714" y="92.1913" width="24.3564" height="4.28432" filterUnits="userSpaceOnUse" color-interpolation-filters="sRGB">
<feFlood flood-opacity="0" result="BackgroundImageFix"/>
<feBlend mode="normal" in="SourceGraphic" in2="BackgroundImageFix" result="shape"/>
<feGaussianBlur stdDeviation="0.102615" result="effect1_foregroundBlur"/>
</filter>
<filter id="filter25_f" x="90.4972" y="66.1314" width="6.3496" height="6.44341" filterUnits="userSpaceOnUse" color-interpolation-filters="sRGB">
<feFlood flood-opacity="0" result="BackgroundImageFix"/>
<feBlend mode="normal" in="SourceGraphic" in2="BackgroundImageFix" result="shape"/>
<feGaussianBlur stdDeviation="0.491044" result="effect1_foregroundBlur"/>
</filter>
<filter id="filter26_f" x="45.458" y="49.1949" width="2.36779" height="2.42442" filterUnits="userSpaceOnUse" color-interpolation-filters="sRGB">
<feFlood flood-opacity="0" result="BackgroundImageFix"/>
<feBlend mode="normal" in="SourceGraphic" in2="BackgroundImageFix" result="shape"/>
<feGaussianBlur stdDeviation="0.137066" result="effect1_foregroundBlur"/>
</filter>
<filter id="filter27_f" x="89.5837" y="92.4016" width="17.2535" height="15.1244" filterUnits="userSpaceOnUse" color-interpolation-filters="sRGB">
<feFlood flood-opacity="0" result="BackgroundImageFix"/>
<feBlend mode="normal" in="SourceGraphic" in2="BackgroundImageFix" result="shape"/>
<feGaussianBlur stdDeviation="0.609264" result="effect1_foregroundBlur"/>
</filter>
<filter id="filter28_f" x="90.3298" y="93.1882" width="15.7614" height="10.117" filterUnits="userSpaceOnUse" color-interpolation-filters="sRGB">
<feFlood flood-opacity="0" result="BackgroundImageFix"/>
<feBlend mode="normal" in="SourceGraphic" in2="BackgroundImageFix" result="shape"/>
<feGaussianBlur stdDeviation="0.236245" result="effect1_foregroundBlur"/>
</filter>
<filter id="filter29_f" x="91.4492" y="86.7828" width="16.0763" height="7.988" filterUnits="userSpaceOnUse" color-interpolation-filters="sRGB">
<feFlood flood-opacity="0" result="BackgroundImageFix"/>
<feBlend mode="normal" in="SourceGraphic" in2="BackgroundImageFix" result="shape"/>
<feGaussianBlur stdDeviation="0.219584" result="effect1_foregroundBlur"/>
</filter>
<filter id="filter30_f" x="91.4492" y="86.7828" width="16.0763" height="7.988" filterUnits="userSpaceOnUse" color-interpolation-filters="sRGB">
<feFlood flood-opacity="0" result="BackgroundImageFix"/>
<feBlend mode="normal" in="SourceGraphic" in2="BackgroundImageFix" result="shape"/>
<feGaussianBlur stdDeviation="0.219584" result="effect1_foregroundBlur"/>
</filter>
<filter id="filter31_f" x="31.2776" y="71.1227" width="8.67002" height="19.68" filterUnits="userSpaceOnUse" color-interpolation-filters="sRGB">
<feFlood flood-opacity="0" result="BackgroundImageFix"/>
<feBlend mode="normal" in="SourceGraphic" in2="BackgroundImageFix" result="shape"/>
<feGaussianBlur stdDeviation="0.242506" result="effect1_foregroundBlur"/>
</filter>
<filter id="filter32_f" x="12.0175" y="88.5153" width="41.4783" height="41.1319" filterUnits="userSpaceOnUse" color-interpolation-filters="sRGB">
<feFlood flood-opacity="0" result="BackgroundImageFix"/>
<feBlend mode="normal" in="SourceGraphic" in2="BackgroundImageFix" result="shape"/>
<feGaussianBlur stdDeviation="0.840631" result="effect1_foregroundBlur"/>
</filter>
<filter id="filter33_f" x="13.983" y="87.5058" width="35.8331" height="37.9097" filterUnits="userSpaceOnUse" color-interpolation-filters="sRGB">
<feFlood flood-opacity="0" result="BackgroundImageFix"/>
<feBlend mode="normal" in="SourceGraphic" in2="BackgroundImageFix" result="shape"/>
<feGaussianBlur stdDeviation="0.517366" result="effect1_foregroundBlur"/>
</filter>
<filter id="filter34_f" x="37.7445" y="95.5668" width="11.7689" height="21.0885" filterUnits="userSpaceOnUse" color-interpolation-filters="sRGB">
<feFlood flood-opacity="0" result="BackgroundImageFix"/>
<feBlend mode="normal" in="SourceGraphic" in2="BackgroundImageFix" result="shape"/>
<feGaussianBlur stdDeviation="0.0792644" result="effect1_foregroundBlur"/>
</filter>
<radialGradient id="paint0_radial" cx="0" cy="0" r="1" gradientUnits="userSpaceOnUse" gradientTransform="translate(1680.88 2451.6) rotate(-2.41004) scale(108.3 265.08)">
<stop stop-color="#FEFEFC"/>
<stop offset="0.757" stop-color="#FEFEFC"/>
<stop offset="1" stop-color="#D4D4D4"/>
</radialGradient>
<radialGradient id="paint1_radial" cx="0" cy="0" r="1" gradientUnits="userSpaceOnUse" gradientTransform="translate(3017.24 2567.63) rotate(-1.81001) scale(193.895 280.197)">
<stop stop-color="#FEFEFC"/>
<stop offset="0.757" stop-color="#FEFEFC"/>
<stop offset="1" stop-color="#D4D4D4"/>
</radialGradient>
<radialGradient id="paint2_radial" cx="0" cy="0" r="1" gradientUnits="userSpaceOnUse" gradientTransform="translate(3218.78 -847.014) rotate(-36.0085) scale(177.64 117.844)">
<stop stop-color="#020204"/>
<stop offset="0.734" stop-color="#020204"/>
<stop offset="1" stop-color="#5C5C5C"/>
</radialGradient>
<linearGradient id="paint3_linear" x1="990.785" y1="422.095" x2="1010.83" y2="446.185" gradientUnits="userSpaceOnUse">
<stop stop-color="#949494" stop-opacity="0.392"/>
<stop offset="0.5" stop-color="#949494"/>
<stop offset="1" stop-color="#949494" stop-opacity="0.392"/>
</linearGradient>
<linearGradient id="paint4_linear" x1="175.288" y1="666.948" x2="263.086" y2="756.772" gradientUnits="userSpaceOnUse">
<stop stop-color="#646464" stop-opacity="0"/>
<stop offset="0.306" stop-color="#646464" stop-opacity="0.583"/>
<stop offset="0.47" stop-color="#646464"/>
<stop offset="0.728" stop-color="#646464" stop-opacity="0.257"/>
<stop offset="1" stop-color="#646464" stop-opacity="0"/>
</linearGradient>
<linearGradient id="paint5_linear" x1="-107.113" y1="602.609" x2="-33.856" y2="682.881" gradientUnits="userSpaceOnUse">
<stop stop-color="#646464" stop-opacity="0"/>
<stop offset="0.306" stop-color="#646464" stop-opacity="0.583"/>
<stop offset="0.47" stop-color="#646464"/>
<stop offset="0.728" stop-color="#646464" stop-opacity="0.257"/>
<stop offset="1" stop-color="#646464" stop-opacity="0"/>
</linearGradient>
<linearGradient id="paint6_linear" x1="429.11" y1="509.225" x2="454.053" y2="537.015" gradientUnits="userSpaceOnUse">
<stop stop-color="#757574" stop-opacity="0"/>
<stop offset="0.263" stop-color="#757574"/>
<stop offset="0.5" stop-color="#757574"/>
<stop offset="1" stop-color="#757574" stop-opacity="0"/>
</linearGradient>
<radialGradient id="paint7_radial" cx="0" cy="0" r="1" gradientUnits="userSpaceOnUse" gradientTransform="translate(7972.95 -1287.07) rotate(-22.428) scale(836.966 290.778)">
<stop stop-color="#D2940A"/>
<stop offset="0.751" stop-color="#D89C08"/>
<stop offset="0.866" stop-color="#B67E07"/>
<stop offset="1" stop-color="#946106"/>
</radialGradient>
<linearGradient id="paint8_linear" x1="1280.34" y1="2123.76" x2="2762.33" y2="2100.76" gradientUnits="userSpaceOnUse">
<stop stop-color="#AD780A"/>
<stop offset="0.12" stop-color="#D89E08"/>
<stop offset="0.255" stop-color="#EDB80B"/>
<stop offset="0.392" stop-color="#EBC80D"/>
<stop offset="0.527" stop-color="#F5D838"/>
<stop offset="0.769" stop-color="#F6D811"/>
<stop offset="1" stop-color="#F5CD31"/>
</linearGradient>
<radialGradient id="paint9_radial" cx="0" cy="0" r="1" gradientUnits="userSpaceOnUse" gradientTransform="translate(254.954 141.696) scale(7.96145 2.43737)">
<stop stop-color="#3A2903"/>
<stop offset="0.555" stop-color="#735208"/>
<stop offset="1" stop-color="#AC8C04"/>
</radialGradient>
<radialGradient id="paint10_radial" cx="0" cy="0" r="1" gradientUnits="userSpaceOnUse" gradientTransform="translate(120.151 203.589) scale(1.51911 1.80083)">
<stop stop-color="#3A2903"/>
<stop offset="0.555" stop-color="#735208"/>
<stop offset="1" stop-color="#AC8C04"/>
</radialGradient>
<linearGradient id="paint11_linear" x1="624.906" y1="517.189" x2="626.483" y2="525.37" gradientUnits="userSpaceOnUse">
<stop stop-color="#F5CE2D"/>
<stop offset="1" stop-color="#D79B08"/>
</linearGradient>
<radialGradient id="paint12_radial" cx="0" cy="0" r="1" gradientUnits="userSpaceOnUse" gradientTransform="translate(-3462.91 2503.06) rotate(180) scale(297.249 303.967)">
<stop/>
<stop offset="1" stop-opacity="0.25"/>
</radialGradient>
<radialGradient id="paint13_radial" cx="0" cy="0" r="1" gradientUnits="userSpaceOnUse" gradientTransform="translate(7243.76 2979.17) scale(641.048 339.233)">
<stop/>
<stop offset="1" stop-opacity="0.25"/>
</radialGradient>
<radialGradient id="paint14_radial" cx="0" cy="0" r="1" gradientUnits="userSpaceOnUse" gradientTransform="translate(2530.31 2480.12) scale(102.374 117.026)">
<stop/>
<stop offset="1" stop-opacity="0.25"/>
</radialGradient>
<linearGradient id="paint15_linear" x1="959.695" y1="11051.3" x2="1095.31" y2="11981.4" gradientUnits="userSpaceOnUse">
<stop/>
<stop offset="1" stop-opacity="0"/>
</linearGradient>
<linearGradient id="paint16_linear" x1="16718.3" y1="14512.5" x2="18609.9" y2="11538.8" gradientUnits="userSpaceOnUse">
<stop stop-color="#3E2A06"/>
<stop offset="1" stop-color="#AD780A"/>
</linearGradient>
<linearGradient id="paint17_linear" x1="1167.27" y1="1214.22" x2="1166.37" y2="1264.12" gradientUnits="userSpaceOnUse">
<stop stop-color="#F3CD0C"/>
<stop offset="1" stop-color="#F3CD0C" stop-opacity="0"/>
</linearGradient>
<radialGradient id="paint18_radial" cx="0" cy="0" r="1" gradientUnits="userSpaceOnUse" gradientTransform="translate(5540.33 7215.42) rotate(15) scale(338.044 303.853)">
<stop stop-color="#110800"/>
<stop offset="0.591" stop-color="#A65A00" stop-opacity="0.8"/>
<stop offset="1" stop-color="#FF921E" stop-opacity="0"/>
</radialGradient>
<radialGradient id="paint19_radial" cx="0" cy="0" r="1" gradientUnits="userSpaceOnUse" gradientTransform="translate(5540.33 5242.19) rotate(10.9628) scale(332.596 223.262)">
<stop stop-color="#110800"/>
<stop offset="0.591" stop-color="#A65A00" stop-opacity="0.8"/>
<stop offset="1" stop-color="#FF921E" stop-opacity="0"/>
</radialGradient>
<radialGradient id="paint20_radial" cx="0" cy="0" r="1" gradientUnits="userSpaceOnUse" gradientTransform="translate(2064.6 1293.16) rotate(23.5217) scale(122.638 26.514)">
<stop stop-color="#7C7C7C"/>
<stop offset="1" stop-color="#7C7C7C" stop-opacity="0.33"/>
</radialGradient>
<linearGradient id="paint21_linear" x1="5540.35" y1="2073.39" x2="5585.67" y2="2069.36" gradientUnits="userSpaceOnUse">
<stop stop-color="#7C7C7C"/>
<stop offset="1" stop-color="#7C7C7C" stop-opacity="0.33"/>
</linearGradient>
<linearGradient id="paint22_linear" x1="5118.5" y1="12458" x2="7066.12" y2="15761.6" gradientUnits="userSpaceOnUse">
<stop stop-color="#B98309"/>
<stop offset="1" stop-color="#382605"/>
</linearGradient>
<linearGradient id="paint23_linear" x1="1996.63" y1="6788.78" x2="2373.03" y2="7179.42" gradientUnits="userSpaceOnUse">
<stop stop-color="#EBC40C"/>
<stop offset="1" stop-color="#EBC40C" stop-opacity="0"/>
</linearGradient>
<clipPath id="clip0">
<rect width="130" height="130" fill="white"/>
</clipPath>
</defs>
</svg>
