<svg width="130" height="130" fill="none" xmlns="http://www.w3.org/2000/svg"><g clip-path="url(#clip0)"><path d="M64.594.354l3.47 6.516a19.47 19.47 0 002.62 3.258c2.904 2.905 5.663 5.947 8.14 9.206 5.88 7.718 9.844 16.29 12.676 25.56 1.698 5.664 2.62 11.473 2.689 17.348.284 17.562-5.736 32.642-17.875 45.175-1.982 1.982-4.103 3.818-6.378 5.452-1.203 0-1.771-.923-2.267-1.772-.922-1.556-1.487-3.331-1.771-5.098-.427-2.125-.707-4.25-.569-6.443v-.992c-.097-.21-1.158-97.71-.735-98.21z" fill="#599636"/><path d="M64.594.139c-.142-.284-.285-.069-.427.07.07 1.421-.426 2.688-1.202 3.9-.853 1.202-1.983 2.124-3.116 3.115-6.297 5.452-11.253 12.037-15.222 19.402-5.282 9.913-8.004 20.537-8.775 31.72-.354 4.035 1.275 18.27 2.547 22.377 3.47 10.903 9.701 20.04 17.773 27.97 1.983 1.909 4.103 3.681 6.297 5.383.638 0 .707-.569.853-.991.28-.904.493-1.828.638-2.763l1.422-10.62L64.594.14z" fill="#6CAC48"/><path d="M68.063 117.183c.142-1.625.922-2.974 1.771-4.319-.853-.353-1.487-1.056-1.982-1.84-.427-.707-.78-1.556-1.056-2.336-.992-2.974-1.203-6.094-1.487-9.132v-1.84c-.354.284-.427 2.689-.427 3.046a70.543 70.543 0 01-1.275 9.559c-.212 1.276-.354 2.547-1.138 3.681 0 .142 0 .284.07.496 1.275 3.753 1.624 7.576 1.84 11.472v1.422c0 1.698-.07 1.341 1.34 1.909.569.212 1.203.285 1.771.707.427 0 .496-.353.496-.638l-.211-2.336v-6.516c-.07-1.137.142-2.267.284-3.331l.004-.004z" fill="#C2BFBF"/></g><defs><clipPath id="clip0"><path fill="#fff" d="M0 0h130v130H0z"/></clipPath></defs></svg>