<svg fill="none" height="130" width="130" xmlns="http://www.w3.org/2000/svg"><path d="m96.398 94.636c.828-6.891.579-7.897 5.708-6.785l1.305.117c3.946.178 9.105-.635 12.187-2.041 6.526-3.027 10.395-8.085 3.961-6.754-14.675 3.026-15.742-1.945-15.742-1.945 15.504-23.004 21.988-52.203 16.387-59.348-15.254-19.5-41.666-10.278-42.108-10.035l-.142.026c-2.894-.61-6.094-.965-9.8-1.016-6.643-.101-11.68 1.742-15.51 4.642 0 0-47.109-19.409-44.92 24.41.467 9.324 13.355 70.586 28.742 52.051 5.632-6.774 11.065-12.497 11.065-12.497 2.692 1.792 5.926 2.706 9.313 2.376l.264-.223c-.078.878-.042 1.762.107 2.63-3.96 4.428-2.793 5.205-10.715 6.835-8.013 1.65-3.3 4.591-.233 5.363 3.727.934 12.35 2.255 18.18-5.9l-.234.928c1.554 1.245 1.447 8.938 1.676 14.432.228 5.495.589 10.629 1.71 13.65 1.123 3.022 2.438 10.817 12.849 8.633 8.698-1.863 15.35-4.55 15.96-29.504" fill="#000"/><path d="m96.398 94.636c.828-6.891.579-7.897 5.708-6.785l1.305.117c3.946.178 9.105-.635 12.187-2.041 6.526-3.027 10.395-8.085 3.961-6.754-14.675 3.026-15.742-1.945-15.742-1.945 15.504-23.004 21.988-52.203 16.387-59.348-15.254-19.5-41.666-10.278-42.108-10.035l-.142.026c-2.894-.61-6.094-.965-9.8-1.016-6.643-.101-11.68 1.742-15.51 4.642 0 0-47.109-19.409-44.92 24.41.467 9.324 13.355 70.586 28.742 52.051 5.632-6.774 11.065-12.497 11.065-12.497 2.692 1.792 5.926 2.706 9.313 2.376l.264-.223c-.078.878-.042 1.762.107 2.63-3.96 4.428-2.793 5.205-10.715 6.835-8.013 1.65-3.3 4.591-.233 5.363 3.727.934 12.35 2.255 18.18-5.9l-.234.928c1.554 1.245 1.447 8.938 1.676 14.432.228 5.495.589 10.629 1.71 13.65 1.123 3.022 2.438 10.817 12.849 8.633 8.698-1.863 15.35-4.55 15.96-29.504" stroke="#000" stroke-width="5.372"/><path d="m119.514 79.219c-14.676 3.026-15.743-1.945-15.743-1.945 15.504-23.004 21.989-52.204 16.393-59.349-15.255-19.5-41.666-10.273-42.108-10.034l-.142.026a52.357 52.357 0 0 0 -9.796-1.021c-6.642-.102-11.68 1.742-15.509 4.641 0 0-47.114-19.408-44.92 24.41.465 9.325 13.354 70.588 28.741 52.053 5.668-6.815 11.101-12.538 11.101-12.538 2.692 1.792 5.926 2.706 9.313 2.376l.265-.223c-.078.877-.042 1.762.106 2.63-3.96 4.428-2.793 5.205-10.715 6.835-8.013 1.65-3.3 4.591-.233 5.363 3.727.934 12.35 2.255 18.18-5.9l-.234.928c1.554 1.245 2.64 8.09 2.458 14.295-.183 6.206-.305 10.461.914 13.793 1.219 3.331 2.437 10.816 12.847 8.632 8.7-1.863 13.203-6.703 13.838-14.757.447-5.728 1.453-4.885 1.524-10.004l.812-2.427c.93-7.77.153-10.273 5.51-9.105l1.305.117c3.946.178 9.11-.635 12.137-2.042 6.525-3.026 10.395-8.084 3.961-6.753h-.005z" fill="#336791"/><g stroke="#fff"><path d="m78.05 7.653c-1.624.507 26.224-10.182 42.058 10.044 5.586 7.145-.889 36.344-16.392 59.348m-38.645 6.576c-.406 14.453.102 29.007 1.513 32.5 1.412 3.494 4.444 10.411 14.859 8.186 8.699-1.863 11.868-5.474 13.239-13.441l3.214-25.477zm-12.482-72.45s-47.145-19.275-44.952 24.544c.468 9.324 13.356 70.586 28.743 52.051 5.616-6.77 10.694-12.066 10.694-12.066l5.515-64.527z" stroke-linecap="round" stroke-linejoin="round" stroke-width="1.79"/><path d="m103.721 77.035s1.015 4.977 15.742 1.94c6.434-1.33 2.559 3.727-3.961 6.754-5.352 2.488-17.357 3.123-17.555-.305-.508-8.861 6.317-6.17 5.824-8.389-.446-2-3.503-3.96-5.514-8.856-1.763-4.266-24.172-37.02 6.215-32.16 1.117-.228-7.922-28.945-36.36-29.362-28.436-.416-27.537 34.963-27.537 34.963" stroke-linecap="round" stroke-linejoin="bevel" stroke-width="1.79"/><path d="m57.114 80.072c-3.961 4.428-2.793 5.205-10.715 6.835-8.014 1.65-3.301 4.59-.234 5.362 3.727.935 12.35 2.255 18.18-5.905 1.777-2.489-.01-6.45-2.448-7.455-1.178-.488-2.752-1.097-4.773 1.168z" stroke-linejoin="round" stroke-width="1.79"/><path d="m56.855 79.996c-.407-2.605.853-5.698 2.198-9.324 2.022-5.433 6.683-10.867 2.956-28.117-2.778-12.848-21.43-2.676-21.43-.935 0 1.742.843 8.836-.304 17.088-1.509 10.776 6.855 19.886 16.483 18.957" stroke-linecap="round" stroke-linejoin="round" stroke-width="1.79"/><path d="m52.416 41.361c-.086.594 1.092 2.184 2.62 2.397 1.53.213 2.834-1.026 2.92-1.625.087-.6-1.091-1.25-2.62-1.462-1.528-.214-2.843.101-2.92.69z" fill="#fff" stroke-width=".598"/><path d="m98.952 40.148c.082.594-1.091 2.183-2.62 2.396-1.528.214-2.844-1.025-2.92-1.624-.076-.6 1.092-1.25 2.62-1.463 1.529-.213 2.844.102 2.92.69z" fill="#fff" stroke-width=".297"/><path d="m104.416 36.03c.254 4.67-1.005 7.845-1.168 12.816-.233 7.221 3.443 15.489-2.097 23.766" stroke-linecap="round" stroke-linejoin="round" stroke-width="1.79"/></g></svg>