<svg width="130" height="130" fill="none" xmlns="http://www.w3.org/2000/svg"><path d="M92.555 106.822c-12.784 7.367-30.28 8.125-47.992.542-14.3-6.067-26.163-16.684-33.746-28.817 3.63 2.98 7.909 5.417 12.459 7.584 18.254 8.504 36.454 7.908 49.291 0-18.254-14.03-33.8-32.284-45.337-47.18-2.438-2.437-4.225-5.47-6.067-8.179 44.85 32.771 42.9 41.113 13.054-5.47 26.488 26.758 51.08 41.924 51.08 41.924.866.488 1.353.867 1.95 1.192a35.105 35.105 0 001.408-4.225c4.279-15.438-.596-33.15-11.267-47.72 24.646 14.895 39.271 42.845 33.15 66.3-.163.595-.325 1.19-.271 2.112 12.133 15.329 8.883 31.308 7.313 28.275-6.555-12.946-18.85-8.938-25.025-6.338z" fill="#FE5E2F"/></svg>