<svg width="130" height="130" fill="none" xmlns="http://www.w3.org/2000/svg"><path d="M68.346 8.48a5.295 5.295 0 00-3.695 1.524c-.016.016-.036.023-.051.039L29.998 30.04l34.513 34.513v.026l41.483 41.483 7.911-14.247L85.386 23.35 72.08 10.043a5.267 5.267 0 00-3.733-1.562z" fill="#66C3FA"/><path d="M30.08 29.96L10.09 64.533c-.016.016-.023.035-.039.051a5.325 5.325 0 00-1.527 3.707c0 1.351.524 2.686 1.559 3.721l16.569 16.586 64.8 25.49 14.647-8.139-.393-.394-.102.013-40.622-40.694h-.051L30.08 29.962v-.001z" fill="#215896"/><path d="M29.99 29.978l35.307 35.344h.051l40.637 40.68 15.467-2.951.024-45.763-16.334-16.007c-3.577-3.507-9.074-5.767-14.598-6.51l.013-.177-60.564-4.616h-.003z" fill="#235997"/><path d="M30.036 30.019l35.326 35.325v.051l40.658 40.658-2.959 15.466H57.298L41.3 105.177c-3.504-3.579-5.761-9.079-6.5-14.603l-.179.013-4.583-60.57v.002z" fill="#58B6F0"/></svg>