<svg width="130" height="130" fill="none" xmlns="http://www.w3.org/2000/svg"><path d="M70.866 15.906c5.433 2.173 7.58 10.723 4.742 19.172-2.813 8.406-9.453 13.527-14.91 11.396-5.414-2.105-7.604-10.68-4.809-19.154 2.771-8.431 9.496-13.502 14.977-11.414zm30.39 17.545c4.592 3.728 3.52 12.063-2.311 18.727-5.984 6.634-14.462 9.049-19.036 5.388-4.616-3.685-3.501-11.996 2.415-18.61 5.898-6.683 14.376-9.098 18.932-5.504zM36.841 22.33c6.048.715 10.451 8.301 10.09 16.877-.646 8.58-5.825 14.997-11.83 14.307-6.005-.69-10.391-8.21-9.896-16.82.495-8.612 5.783-15.023 11.636-14.364zm76.505 44.17c3.497 4.74.59 12.525-6.621 17.259-7.21 4.734-15.915 4.695-19.515-.16-3.6-4.856-.632-12.549 6.475-17.4 7.247-4.6 16.018-4.579 19.661.301zm-33.55 41.72c-2.137 4.093-7.75 6.747-12.362 6.294-9.62-.907-14.46-13.335-22.917-18.218-8.459-4.884-21.897-2.612-27.194-10.713-3.048-4.537-2.79-11.756.412-16.027 4.422-5.891 13.993-4.899 21.173-6.93 9.453-2.533 20.206-11.342 28.75-6.41 8.5 4.907 6.6 18.601 8.78 28.077 1.724 7.91 7.06 16.827 3.357 23.927z" fill="#90A4AE"/></svg>