<svg width="130" height="130" fill="none" xmlns="http://www.w3.org/2000/svg"><g clip-path="url(#clip0)"><path d="M112.927 29.944c-2.811.07-4.47 1.296-5.015 3.634.72.627 1.691.9 2.658.859 2.125-.09 4.23-1.71 3.634-4.453a11.302 11.302 0 00-1.277-.04zm14.48-8.002h-.251c-2.004.065-2.315 1.152-6.645 2.218-4.373 1.077-8.597.043-13.305 2.019-14.06 5.897-17.057 26.238-29.837 33.457-9.55 5.396-18.79 7.79-27.451 10.505-5.695 1.784-11.341 3.838-16.501 8.283-4.006 3.454-5.106 6.135-9.277 10.467-4.257 4.405-17.35-3.39-23.727 2.313a1.26 1.26 0 00.021 1.882c1.382 1.208 4.01 4.087 6.512 4.976-.793 1.502-5.276 5.926-4.362 8.14.962 2.327 12.074.746 22.346-5.456 4.783-2.89 8.595-7.052 16.046-8.045 9.642-1.284 20.75.826 31.912 2.433-1.656 4.935-4.978 8.219-7.64 12.164-.827.889 1.656.988 4.483.45 5.106-1.258 8.759-2.272 12.615-4.505 4.72-2.748 5.436-9.791 11.224-11.314 2.8 4.303 9.761 5.752 15.129 3.454.297-.126.588-.266.874-.413.645-.563.267-1.22-.13-1.704a9.334 9.334 0 01-.543-.547c-3.022-3.247-3.713-10.911-2.373-14.639 1.527-4.24 3.037-11.027 4.574-16.631 1.652-6.007 2.262-13.61 4.261-16.679 3.006-4.613 6.33-6.197 9.214-8.8 2.885-2.602 5.527-5.136 5.437-11.089-.042-1.836-.945-2.894-2.606-2.939zm.307 6.252c-.597 4.106-3.22 6.363-6.32 8.54-2.703 1.908-5.697 3.744-7.614 6.724-1.959 3.048-3.204 13.493-6.247 23.805-2.523 8.557-6.283 17.022-12.715 21.1a.697.697 0 01-1.057-.45c-.45-2.392-.36-6.759-1.102-5.347-.931 2.658-1.986 5.193-3.219 7.55-3.784 7.231-9.26 12.771-18.106 14.941a.794.794 0 01-.972-.782.797.797 0 01.143-.449c4.082-5.662 7.734-11.751 8.18-21.045.037-.802-.97-1.169-1.476-.547-1.928 2.377-2.403 8.03-5.222 9.77-2.213.24-4.456.24-6.713.105-9.265-.555-18.774-3.342-27.442-.56-5.902 1.895-12.1 7.284-17.099 9.451-5.875 2.532-8.659 4.934-16.078 4.769-.758-1.021 3.097-5.441 4.406-7.348.418-.611-.476-1.254-1.312-1.652-2.01-.922-4.025-3.424-6.168-4.4.275-.506 1.247-1.012 1.783-1.321 4.866-2.824 17.768 3.19 21.234-.215 2.14-2.1 3.582-3.944 5.036-6.082 1.411-2.073 3.556-4.262 5.777-6.078a47.003 47.003 0 012.913-2.155c3.785-2.589 5.868-2.78 10.768-4.6 6.235-2.32 13.955-4.353 20.644-6.909 4.133-1.581 8.626-3.529 12.289-6.262a24.548 24.548 0 002.454-2.081c10.458-10.212 12.532-28.182 28.833-29.858a64.58 64.58 0 014.847-.335c1.646-.045 3.274-.45 4.901-1.228.501-.22 3.49-2.028 4.499-1.154.673.583.173 3.743.129 4.085" fill="#444B5E"/></g><defs><clipPath id="clip0"><path fill="#fff" d="M0 0h130v130H0z"/></clipPath></defs></svg>