<svg width="130" height="130" fill="none" xmlns="http://www.w3.org/2000/svg"><g clip-path="url(#clip0)"><path fill-rule="evenodd" clip-rule="evenodd" d="M63.497 127.514l-28.986-10.4V74.64l28.986 9.872v43.002zm5.281 0l28.986-10.4V74.64l-28.986 9.88v42.994zM37.497 71.451l29.25-8.259 27.202 8.775-27.202 9.234-29.25-9.75zm-8.499-3.25L0 57.77V15.234l28.986 9.872.012 43.095zm5.31 0l28.986-10.4V15.234L34.3 25.154l.008 43.047zM3.027 12.14l29.25-8.3 27.202 8.775-27.202 9.234-29.25-9.71zM96.675 68.2l-28.986-10.4V15.234l28.986 9.872v43.095zm5.282 0l28.985-10.4V15.234l-28.985 9.872v43.095zM70.675 12.14l29.25-8.26 27.203 8.776-27.203 9.234-29.25-9.75z" fill="#F90"/></g><defs><clipPath id="clip0"><path fill="#fff" d="M0 0h130v130H0z"/></clipPath></defs></svg>