<svg width="130" height="130" fill="none" xmlns="http://www.w3.org/2000/svg"><path d="M130 100.73c-4.729 1.202-7.654.053-10.278-3.888L101.059 71.02l-2.698-3.575-21.795 29.481c-2.49 3.547-5.103 5.091-9.75 3.835l27.91-37.464-25.984-33.84c4.468-.87 7.556-.427 10.298 3.574l19.358 26.142 19.5-26c2.498-3.546 5.184-4.895 9.669-3.587l-10.075 13.358-13.65 17.773c-1.625 2.031-1.402 3.42.093 5.383L130 100.73zM.032 62.672l2.284-11.229C8.53 29.222 34.003 19.988 51.569 33.72c10.266 8.076 12.818 19.5 12.31 32.297H6.013c-.87 23.034 15.71 36.936 36.846 29.843 7.414-2.49 11.782-8.296 13.967-15.56 1.11-3.64 2.946-4.208 6.366-3.168-1.747 9.083-5.687 16.672-14.015 21.421-12.444 7.11-30.205 4.81-39.549-5.07C4.062 87.75 1.763 80.486.731 72.72.57 71.435.244 70.212 0 68.98c.022-2.101.033-4.203.033-6.305v-.004zm6.086-1.544h52.293c-.342-16.656-10.713-28.486-24.887-28.587-15.56-.122-26.732 11.427-27.406 28.587z" fill="#000"/></svg>