<svg width="130" height="130" fill="none" xmlns="http://www.w3.org/2000/svg"><path d="M117.596 30.113c-3.962-7.128-11.046-9.256-16.05-9.358-6.139-.122-11.184 3.277-10.229 5.51.204.479 1.355 2.98 2.063 4.013 1.024 1.492 2.852.347 3.496.005 1.915-1.018 3.96-1.35 6.282-1.077 2.218.258 5.169 1.625 7.145 5.424 4.655 8.945-9.714 27.353-27.7 14.606-17.981-12.747-35.47-8.522-43.389-5.953-7.92 2.566-11.56 5.15-8.428 11.124 4.252 8.118 2.841 5.628 6.964 12.35 6.55 10.67 20.882-4.914 20.882-4.914-10.676 15.741-19.83 11.937-23.342 6.434-3.165-4.957-5.623-10.676-5.623-10.676C2.62 67.139 9.938 109.248 9.938 109.248H23.37c3.425-15.505 15.668-14.932 17.766 0h10.249c9.065-30.276 32.036 0 32.036 0h13.36c-3.743-20.651 7.514-27.141 14.609-39.247 7.094-12.108 13.816-26.918 6.205-39.888h.001zm-34.46 39.876c-7.063-2.307-4.535-9.336-4.535-9.336s6.168 1.994 14.512 4.716c-.481 2.18-4.632 6.361-9.977 4.617v.003z" fill="#0097A7"/></svg>