<svg width="130" height="130" viewBox="0 0 130 130" fill="none" xmlns="http://www.w3.org/2000/svg">
<g clip-path="url(#clip0)">
<path fill-rule="evenodd" clip-rule="evenodd" d="M90.1478 96.3175L80.4916 97.766L67.4557 99.2144L59.0064 99.4556L50.7994 99.2144L44.5226 97.2829L38.9703 91.2482L34.6251 78.9366L33.6596 76.281L27.866 74.3503L24.4864 68.7978L22.0725 60.8318L24.7283 53.831L31.0042 51.6584L36.0736 54.0728L38.4881 59.3833L41.3848 58.9003L42.3501 57.6938L41.3848 52.1413L41.143 45.1405L42.5914 35.4851L42.5348 29.9695L46.9366 22.9325L54.6617 17.3801L68.1801 11.5865L83.1463 13.7591L96.1821 23.1736L102.218 32.8291L106.08 39.8299L107.045 57.2105L104.148 72.1774L98.8379 85.4542L93.7685 92.455" fill="#F0D6B7"/>
<path fill-rule="evenodd" clip-rule="evenodd" d="M81.9432 138.079L47.4221 139.527V145.321L50.3189 165.598L48.8705 167.289L24.7307 159.081L23.0404 156.184L20.6265 128.906L15.0751 112.491L13.8677 108.629L33.1794 95.3521L39.2149 92.9377L44.5252 99.4554L49.1118 103.559L54.4231 105.249L56.8367 105.973L59.7335 118.526L61.9061 121.181L67.4587 119.25L63.5958 126.734L84.5977 136.631L81.9428 138.079" fill="#335061"/>
<path fill-rule="evenodd" clip-rule="evenodd" d="M24.7316 53.8304L31.0075 51.6578L36.0769 54.0723L38.4914 59.3828L41.3882 58.8998L42.1124 56.003L40.6639 50.4512L42.1124 37.1737L40.905 29.9317L45.2502 24.8623L54.6648 17.3791L52.0093 13.7582L38.7325 20.276L33.1802 24.6212L30.0422 31.3802L25.214 37.898L23.7656 45.6232L24.7317 53.8309" fill="#6D6B6D"/>
<path fill-rule="evenodd" clip-rule="evenodd" d="M34.6279 31.143C34.6279 31.143 38.2489 22.2118 52.7328 17.8662C67.2171 13.521 53.457 14.7275 53.457 14.7275L37.7666 20.763L31.7311 26.7978L29.0762 31.6261L34.628 31.1431" fill="#DCD9D8"/>
<path fill-rule="evenodd" clip-rule="evenodd" d="M27.3862 52.1409C27.3862 52.1409 22.3168 35.2421 41.6288 32.8285L40.9046 29.9317L27.6279 33.0704L23.765 45.6228L24.7311 53.8306L27.386 52.141" fill="#DCD9D8"/>
<path fill-rule="evenodd" clip-rule="evenodd" d="M35.1113 74.5915L38.2721 71.5288C38.2721 71.5288 39.6987 71.6947 39.9397 73.3842C40.1807 75.0745 40.905 90.283 51.2854 98.4908C52.2321 99.2396 43.561 97.2828 43.561 97.2828L35.8359 85.2136" fill="#F7E4CD"/>
<path fill-rule="evenodd" clip-rule="evenodd" d="M79.5303 70.0051C79.5303 70.0051 80.093 62.6877 82.0635 63.2505C84.0341 63.8132 84.0341 65.7837 84.0341 65.7837C84.0341 65.7837 79.2486 68.8797 79.5303 70.0051" fill="#F7E4CD"/>
<path d="M99.5678 43.2098C99.5678 43.2098 95.589 44.0499 95.2225 47.555C94.8561 51.0609 99.5678 48.2792 100.292 48.0381" fill="#F7E4CD"/>
<path d="M70.3559 43.4515C70.3559 43.4515 65.0445 44.1757 65.0445 47.5549C65.0445 50.9347 71.0802 50.6935 72.7697 49.2451" fill="#F7E4CD"/>
<path fill-rule="evenodd" clip-rule="evenodd" d="M37.525 59.142C37.525 59.142 28.3513 53.5896 27.3862 58.9008C26.4207 64.2114 24.2475 68.0745 28.8346 73.6261L25.6965 72.6607L22.7997 65.1776L21.8345 57.9355L27.3862 52.1412L33.6627 52.6242L37.2837 55.521L37.525 59.142" fill="#F7E4CD"/>
<path fill-rule="evenodd" clip-rule="evenodd" d="M41.8705 43.9342C41.8705 43.9342 45.9744 22.6914 66.7353 18.5876C83.8272 15.2092 92.8062 19.3118 96.1858 23.1739C96.1858 23.1739 80.978 5.06985 66.4937 10.6214C52.0093 16.1739 41.3887 26.3126 41.6296 32.8294C42.0407 43.9303 41.8709 43.9341 41.8709 43.9341" fill="#F7E4CD"/>
<path fill-rule="evenodd" clip-rule="evenodd" d="M97.8768 25.5839C97.8768 25.5839 90.8767 25.3427 90.6348 31.6193C90.6348 31.6193 90.634 32.5847 91.1171 33.55C91.1171 33.55 96.6702 27.2734 100.049 30.6533" fill="#F7E4CD"/>
<path fill-rule="evenodd" clip-rule="evenodd" d="M67.2218 34.2084C67.2218 34.2084 66.0166 24.5746 57.8026 30.1754C52.4919 33.7963 52.9751 38.8657 53.9403 39.8308C54.9057 40.7969 54.6432 42.7413 55.3782 41.4066C56.1128 40.0719 55.8709 35.7267 58.5267 34.5202C61.1822 33.313 65.5353 31.9645 67.2216 34.2081" fill="#F7E4CD"/>
<path fill-rule="evenodd" clip-rule="evenodd" d="M44.5259 99.4554L21.8346 109.594C21.8346 109.594 31.2491 147.012 26.4208 158.599L23.0411 157.392L22.7998 143.15L16.5242 116.114L13.8684 108.63L37.5248 92.6985L44.5255 99.4567" fill="#49728B"/>
<path fill-rule="evenodd" clip-rule="evenodd" d="M46.8592 120.151L50.0785 124.079V138.563H46.2157C46.2157 138.563 45.7334 128.424 45.7334 127.217C45.7334 126.01 46.2157 121.665 46.2157 121.665" fill="#49728B"/>
<path fill-rule="evenodd" clip-rule="evenodd" d="M86.5265 138.321L100.045 137.597C100.045 137.597 105.597 123.596 105.597 122.872C105.597 122.148 110.425 102.594 110.425 102.594L99.5619 91.2486L97.3893 89.3171L91.5957 95.1107V117.561L86.5263 138.321" fill="#335061"/>
<path fill-rule="evenodd" clip-rule="evenodd" d="M92.8039 94.3865L109.702 106.939L110.185 101.145L97.3908 89.3172L92.8045 94.3866" fill="#49728B"/>
<path d="M85.9783 136.393L80.6678 122.874L75.1153 114.908C75.1153 114.908 76.3218 111.528 78.0121 111.528H83.5646L88.8751 113.46L88.3928 122.392L85.9783 136.393" fill="white"/>
<path fill-rule="evenodd" clip-rule="evenodd" d="M87.013 131.803C87.013 131.803 80.2533 118.768 80.2533 116.837C80.2533 116.837 81.4598 113.94 83.1501 114.664C84.8404 115.388 88.4614 117.319 88.4614 117.319V112.733L80.2537 111.042L74.7019 111.767L84.1165 133.975L86.0472 134.217" fill="#DCD9D8"/>
<path d="M57.4899 99.9411L50.8023 99.214L44.5255 97.2825V99.4552L47.5924 102.837L57.2486 107.182" fill="white"/>
<path fill-rule="evenodd" clip-rule="evenodd" d="M46.6994 100.665C46.6994 100.665 54.1832 103.803 56.5973 103.079L56.8374 105.973L50.0795 104.528L45.9753 101.631L46.6995 100.665" fill="#DCD9D8"/>
<path fill-rule="evenodd" clip-rule="evenodd" d="M95.6067 112.35C91.5107 112.23 87.8098 111.743 84.5699 110.829C84.7901 109.501 84.378 108.197 84.709 107.241C85.6121 106.59 87.1257 106.6 88.4908 106.448C87.3104 105.868 85.6519 105.638 84.2897 105.973C84.2578 105.051 83.8443 104.48 83.5938 103.759C85.8967 102.937 91.3336 97.5479 94.3912 99.3323C95.8483 100.181 96.4675 105.029 96.5805 107.386C96.6746 109.342 96.4031 111.314 95.6065 112.35" fill="#D33833"/>
<path d="M95.6067 112.35C91.5107 112.23 87.8098 111.743 84.5699 110.829C84.7901 109.501 84.378 108.197 84.709 107.241C85.6121 106.59 87.1257 106.6 88.4908 106.448C87.3104 105.868 85.6519 105.638 84.2897 105.973C84.2578 105.051 83.8443 104.48 83.5938 103.759C85.8967 102.937 91.3336 97.5479 94.3912 99.3323C95.8483 100.181 96.4675 105.029 96.5805 107.386C96.6746 109.342 96.4031 111.314 95.6065 112.35L95.6067 112.35Z" stroke="#D33833" stroke-width="2.1382"/>
<path fill-rule="evenodd" clip-rule="evenodd" d="M76.0178 105.654C76.007 105.964 75.9939 106.276 75.9816 106.589C74.7027 107.429 72.638 107.419 71.2345 108.125C73.3036 108.216 74.9323 108.714 76.3416 109.416C76.3105 110.197 76.2808 110.977 76.2503 111.758C73.9061 113.363 71.7647 115.752 69.0046 117.257C67.6996 117.969 63.1196 119.801 61.7312 119.477C60.9456 119.295 60.8749 118.32 60.5609 117.401C59.8918 115.433 58.3515 112.301 58.2171 109.339C58.046 105.598 57.6684 99.3276 61.7001 100.098C64.9528 100.719 68.7359 102.217 71.2544 103.593C72.7934 104.435 73.6834 105.475 76.0182 105.654" fill="#D33833"/>
<path d="M76.0178 105.654C76.007 105.964 75.9939 106.276 75.9816 106.589C74.7027 107.429 72.638 107.419 71.2345 108.125C73.3036 108.216 74.9323 108.714 76.3416 109.416C76.3105 110.197 76.2808 110.977 76.2503 111.758C73.9061 113.363 71.7647 115.752 69.0046 117.257C67.6996 117.969 63.1196 119.801 61.7312 119.477C60.9456 119.295 60.8749 118.32 60.5609 117.401C59.8918 115.433 58.3515 112.301 58.2171 109.339C58.046 105.598 57.6684 99.3276 61.7001 100.098C64.9528 100.719 68.7359 102.217 71.2544 103.593C72.7934 104.435 73.6834 105.475 76.0182 105.654L76.0178 105.654Z" stroke="#D33833" stroke-width="2.1382"/>
<path fill-rule="evenodd" clip-rule="evenodd" d="M78.3458 110.118C77.9881 108.08 77.5745 107.498 77.7346 105.721C83.1697 102.097 84.1901 111.945 78.3458 110.118Z" fill="#D33833"/>
<path d="M78.3458 110.118C77.9881 108.08 77.5745 107.498 77.7346 105.721C83.1697 102.097 84.1901 111.945 78.3458 110.118Z" stroke="#D33833" stroke-width="2.1382"/>
<path fill-rule="evenodd" clip-rule="evenodd" d="M86.2177 111.769C86.2177 111.769 84.5274 109.355 85.7346 108.631C86.9418 107.907 88.1491 108.631 88.8733 107.424C89.5976 106.217 88.8733 105.493 89.1145 104.044C89.3556 102.596 90.5636 102.354 91.7701 102.113C92.9767 101.872 96.3572 101.389 96.8395 102.596L95.3912 98.2507L92.4944 97.2853L83.3208 102.596L82.8377 105.251V110.562" fill="#EF3D3A"/>
<path fill-rule="evenodd" clip-rule="evenodd" d="M60.8695 119.736C60.5795 115.969 60.2726 112.206 59.9311 108.443C59.4202 102.823 61.281 103.804 66.1525 103.804C66.8965 103.804 70.7337 104.691 71.0081 105.252C72.3248 107.941 68.8066 107.343 72.5246 109.371C75.6633 111.082 81.208 108.332 79.9397 104.528C79.2299 103.682 76.2419 104.264 75.1708 103.709C73.2849 102.731 71.3991 101.753 69.5131 100.776C67.1137 99.5308 61.5679 97.716 59.0098 99.4555C52.528 103.864 59.4189 114.878 61.7312 119.477" fill="#EF3D3A"/>
<path fill-rule="evenodd" clip-rule="evenodd" d="M67.2218 34.2084C60.6422 32.6761 57.3733 36.9618 55.3789 41.407C53.598 40.9754 54.3067 38.5537 54.7565 37.3196C55.9342 34.081 60.6803 29.7698 64.5579 30.3542C66.2267 30.6055 68.4849 32.1314 67.2219 34.2084" fill="#231F20"/>
<path fill-rule="evenodd" clip-rule="evenodd" d="M99.2821 41.698C99.3856 41.7026 99.4906 41.7059 99.5942 41.7103C101.081 44.799 102.368 48.0709 104.244 50.7974C102.987 53.7239 94.7294 56.3137 94.8568 51.0589C96.6427 50.2782 99.7256 50.8995 101.309 49.9023C100.393 47.39 99.0724 45.2515 99.2824 41.6977" fill="#231F20"/>
<path fill-rule="evenodd" clip-rule="evenodd" d="M70.5898 41.7831C72.0006 44.3691 72.4597 47.0863 74.465 49.041C75.368 49.9209 77.1242 50.9935 76.2537 53.4405C76.0502 54.0177 74.5635 55.3046 73.7053 55.5574C70.5702 56.4829 63.2653 55.7485 65.7392 51.84C68.3319 51.961 71.8169 53.5238 73.7547 51.6416C72.2665 49.2626 69.6133 44.556 70.59 41.7831" fill="#231F20"/>
<path fill-rule="evenodd" clip-rule="evenodd" d="M98.1007 68.064C93.3804 71.0962 88.1171 74.3935 80.3827 73.6287C78.73 72.1919 78.1001 68.9945 79.7056 66.8828C80.5413 68.3195 80.0163 70.9622 82.3452 71.3598C86.7339 72.1108 91.8416 68.6752 94.9981 67.4744C96.9556 64.1743 94.8294 62.9605 93.0659 60.8365C89.4558 56.4848 84.6134 51.0907 84.7887 44.5762C86.248 43.5182 86.374 46.1912 86.5833 46.6779C88.4684 51.0897 93.2126 56.7318 96.675 60.5082C97.5252 61.4381 98.9251 62.3303 99.0808 62.9451C99.5298 64.7332 97.9126 66.8754 98.1002 68.0645" fill="#231F20"/>
<path fill-rule="evenodd" clip-rule="evenodd" d="M35.8734 64.872C34.3938 64.0276 34.0417 60.3081 32.3047 60.2023C29.8224 60.0517 30.275 65.0277 30.2849 67.9375C28.5763 66.3863 28.2757 61.6101 29.531 59.1576C28.1004 58.4552 27.4616 59.9325 26.6681 60.4533C27.6879 53.0447 37.5057 57.0169 35.8734 64.8723" fill="#231F20"/>
<path fill-rule="evenodd" clip-rule="evenodd" d="M101.104 71.1493C98.9071 75.3316 95.7989 79.9377 89.351 80.0713C89.2199 78.7207 89.1192 76.6654 89.3579 75.8521C94.2868 75.3784 97.3301 72.8698 101.104 71.1491" fill="#231F20"/>
<path fill-rule="evenodd" clip-rule="evenodd" d="M70.2184 73.861C74.3307 76.0235 81.8883 76.2559 87.4778 76.0923C87.7776 77.3169 87.7704 78.8298 87.7819 80.3231C80.5971 80.6816 72.1023 78.9037 70.2184 73.8611" fill="#231F20"/>
<path fill-rule="evenodd" clip-rule="evenodd" d="M69.4362 77.8931C72.28 85.033 82.0536 84.211 90.296 84.0141C89.9332 84.941 89.1467 86.036 88.1691 86.4321C85.5279 87.5069 78.2434 88.3223 74.5765 86.3749C72.2511 85.1387 70.7571 82.3455 69.483 80.708C68.8678 79.9172 65.804 77.8974 69.4364 77.8931" fill="#231F20"/>
<path fill-rule="evenodd" clip-rule="evenodd" d="M97.761 117.277C94.4238 122.993 91.2309 128.863 87.2716 133.904C88.9315 129.024 89.6419 120.855 89.8925 114.628C93.3651 113.003 96.3386 114.994 97.7613 117.277" fill="#81B0C4"/>
<path fill-rule="evenodd" clip-rule="evenodd" d="M85.8007 99.1559C84.0822 100.278 82.6185 101.678 80.9681 102.876C77.308 103.057 75.3107 102.623 72.6214 100.521C72.6656 100.352 72.9357 100.428 72.9459 100.22C76.8638 101.967 81.8439 99.5093 85.8002 99.1559" fill="#F0D6B7"/>
<path fill-rule="evenodd" clip-rule="evenodd" d="M65.2343 125.863C66.3107 121.198 70.5286 118.782 74.3586 116.213C78.3119 121.231 80.7163 127.683 83.3639 133.91C77.1083 132.024 70.7164 128.964 65.2336 125.863" fill="#81B0C4"/>
<path fill-rule="evenodd" clip-rule="evenodd" d="M87.2292 163.127C87.0691 166.94 87.6043 173.056 87.7832 177.057C90.3186 177.06 91.4056 176.502 93.2979 175.864C93.5116 171.156 91.8075 166.801 91.3165 162.503C90.3149 162.236 88.4762 163.209 87.2291 163.126L87.2292 163.127ZM47.7503 141.438C49.4222 156.808 51.8436 169.728 56.2854 183.338C66.1424 186.331 78.0262 186.592 86.7389 183.891C85.1391 176.209 85.8379 166.857 84.903 158.66C84.1984 152.499 84.5576 146.299 83.5915 140.013C73.0342 137.817 58.1113 139.5 47.7509 141.438L47.7503 141.438ZM86.0872 140.109C85.9981 146.71 86.3827 153.222 86.8867 159.831C89.4215 159.451 91.1414 159.197 93.4965 158.68C92.7318 152.318 92.8259 145.158 91.2682 139.529C89.4678 139.546 87.8825 139.508 86.0873 140.109L86.0872 140.109ZM98.9454 139.045C97.7425 138.77 96.342 139.035 95.1927 139.057C95.7329 144.438 97.0438 150.376 97.505 156.024C99.3134 156.08 100.279 155.227 101.767 154.94C101.847 149.982 101.334 143.151 98.9454 139.045V139.045ZM118.415 156.834C122.184 155.918 124.554 151.302 123.5 146.561C122.792 143.374 121.532 137.374 120.184 135.335C119.187 133.828 116.485 131.854 114.328 133.235C110.818 135.482 104.636 136.135 102.077 138.855C103.36 143.128 103.758 148.997 104.288 154.41C108.672 154.684 114.067 153.204 117.713 154.774C115.167 155.599 111.864 155.605 109.665 156.807C111.462 157.675 115.67 157.5 118.414 156.834L118.415 156.834ZM83.3608 133.91C80.7131 127.683 78.3088 121.231 74.3555 116.214C70.5253 118.782 66.3076 121.198 65.2312 125.863C70.7138 128.965 77.1058 132.025 83.3616 133.91H83.3608ZM89.8873 114.628C89.6367 120.856 88.9263 129.024 87.2664 133.905C91.2255 128.863 94.4186 122.993 97.7557 117.278C96.3334 114.994 93.3599 113.003 89.887 114.629L89.8873 114.628ZM82.4888 112C80.9891 111.838 79.7159 113.724 77.7656 112.908C77.3187 113.402 76.9125 113.938 76.457 114.42C80.7645 119.611 82.722 126.976 86.0491 133.077C87.8343 127.217 87.6286 120.797 88.0218 114.401C85.5689 114.556 84.2082 112.182 82.4889 112L82.4888 112ZM77.7316 105.721C77.5716 107.499 77.9851 108.08 78.3428 110.118C84.1871 111.945 83.1667 102.097 77.7316 105.721ZM71.2507 103.593C68.7325 102.217 64.9494 100.719 61.6964 100.098C57.6647 99.3269 58.0423 105.598 58.2134 109.339C58.3478 112.301 59.8882 115.433 60.5572 117.401C60.8712 118.32 60.9419 119.294 61.7275 119.477C63.1159 119.801 67.6959 117.969 69.0009 117.257C71.761 115.752 73.9025 113.363 76.2467 111.758C76.2771 110.977 76.3068 110.197 76.338 109.416C74.9287 108.714 73.3 108.216 71.2309 108.125C72.6344 107.419 74.6991 107.429 75.978 106.589C75.9903 106.276 76.0034 105.964 76.0142 105.654C73.6794 105.475 72.7894 104.435 71.2504 103.593L71.2507 103.593ZM47.1974 99.224C45.1074 101.346 53.0595 104.238 55.5912 104.394C55.5771 103.051 56.3564 101.786 56.1994 100.822C53.1923 100.294 49.2404 100.643 47.1972 99.224H47.1974ZM72.944 100.221C72.9339 100.428 72.6638 100.352 72.6196 100.521C75.3085 102.623 77.3059 103.057 80.9663 102.876C82.6167 101.678 84.0804 100.278 85.7989 99.156C81.8426 99.5094 76.8623 101.967 72.9445 100.221L72.944 100.221ZM96.5758 107.386C96.4628 105.029 95.8436 100.181 94.3865 99.3324C91.3282 97.5473 85.8915 102.937 83.589 103.759C83.8396 104.48 84.2531 105.051 84.285 105.973C85.6472 105.638 87.3056 105.868 88.4861 106.448C87.121 106.6 85.6073 106.59 84.7043 107.241C84.3733 108.197 84.7854 109.501 84.5652 110.829C87.8053 111.743 91.506 112.23 95.602 112.35C96.3986 111.314 96.6702 109.341 96.5761 107.386L96.5758 107.386ZM43.6788 101.276C43.0225 100.809 38.5826 95.0317 37.9743 95.2713C29.9403 98.4397 22.4283 103.918 15.7154 109.1C22.1158 122.834 24.6991 139.66 25.1562 155.877C32.4882 159.306 38.9279 164.25 48.8775 164.766C47.7262 156.62 46.6752 149.353 46.0217 141.683C43.5219 140.629 39.9353 141.731 37.5955 141.356C37.5756 138.537 41.1684 140.122 41.4676 138.226C41.6931 136.792 39.4908 136.683 40.208 134.425C42.0368 135.09 42.9973 136.559 44.9478 137.11C46.73 133.211 44.9228 126.312 45.1797 123.053C45.2284 122.442 45.4853 119.664 46.8559 120.151C48.0689 120.582 46.7865 127.539 46.9195 130.623C47.0406 133.465 46.5763 136.215 47.7272 137.999C57.3409 136.69 67.1106 135.844 77.5128 135.559C75.2242 134.577 72.5057 133.647 69.5251 131.967C67.9093 131.057 62.8158 129.161 62.3496 127.626C61.6056 125.181 64.3015 123.878 64.7626 121.782C59.9097 124.428 58.9628 119.245 57.8148 115.572C56.7747 112.246 56.1826 109.761 55.9274 107.843C51.7468 105.85 47.2772 103.832 43.6791 101.276L43.6788 101.276ZM92.3298 95.9702C99.0237 92.7243 100.23 108.101 97.6063 113.055C98.0119 114.532 99.4067 115.098 99.9759 116.426C96.2405 123.118 92.0917 129.364 88.2797 135.977C91.115 134.212 95.1647 135.661 98.5012 134.34C99.7207 133.857 100.604 131.066 101.527 128.832C104.067 122.688 106.733 114.941 107.919 109.077C108.187 107.74 108.917 104.829 108.754 103.64C108.462 101.511 105.573 99.9321 104.104 98.6155C101.397 96.1836 99.6918 94.0437 96.8682 91.7697C95.7232 93.4599 93.266 94.5955 92.3296 95.97L92.3298 95.9702ZM28.3699 36.609C25.1803 40.1185 25.8479 46.6945 26.2341 51.3729C31.9993 47.7461 39.6513 51.6597 39.5795 57.8284C42.3321 57.7553 40.6079 54.3907 40.1099 52.2231C38.4828 45.1433 42.8511 37.4515 40.308 30.9772C35.3701 31.3516 31.3135 33.3685 28.3701 36.6093L28.3699 36.609ZM51.1924 16.2403C43.9716 18.2869 34.7175 23.5337 31.7502 30.0204C34.0479 29.6866 35.6428 28.5278 37.9093 28.3845C38.7659 28.3287 39.8882 28.7437 40.8726 28.4989C42.8344 28.0122 44.4902 23.6134 45.9703 21.9767C47.413 20.3784 49.1471 19.6955 50.3339 18.2384C51.0963 17.8705 52.2236 17.8958 52.2669 16.7509C51.9365 16.3975 51.5885 16.1281 51.1925 16.2403L51.1924 16.2403ZM88.7804 18.1652C81.2856 13.9366 68.6 10.7559 60.627 14.7303C54.1941 17.9378 45.4987 23.2446 42.5338 29.9698C45.3032 36.4594 41.7134 42.4057 41.4843 48.9943C41.3626 52.5001 43.135 55.5606 43.2708 59.377C42.3231 60.9406 39.4277 61.1333 37.4234 61.0261C36.7487 57.6499 35.5676 53.855 32.091 53.4741C27.1715 52.9361 23.5744 57.0075 23.3513 61.2618C23.0868 66.2653 27.1943 74.5579 33.016 73.9826C35.265 73.7603 35.8175 71.5059 38.2678 71.529C39.596 74.1789 36.2192 75.011 35.8718 76.9062C35.7813 77.3958 36.1518 79.3091 36.3673 80.2064C37.4248 84.5754 39.7822 90.2301 42.1024 93.5565C45.0473 97.7757 50.8328 98.4115 57.0577 98.825C58.1695 96.4301 62.2649 96.627 64.9334 97.2535C61.7354 95.9869 58.7622 92.9163 56.298 90.1983C53.4677 87.0799 50.6006 83.7348 50.4557 79.6588C55.8044 87.0789 60.2232 93.5594 69.9489 96.8232C77.308 99.2913 85.9026 95.692 91.5576 91.7212C93.9041 90.0708 95.3046 87.452 96.9725 85.0549C103.213 76.0782 106.125 63.2663 105.484 50.8474C105.221 45.7258 105.232 40.6213 103.514 37.1761C101.718 33.5732 95.6436 30.3498 92.0872 33.6087C91.4281 30.105 95.0441 27.9382 99.2915 29.1991C96.2629 25.2905 93.0844 20.5945 88.7798 18.1654L88.7804 18.1652ZM102.744 133.722C108.6 130.81 119.543 125.886 123.214 133.733C124.569 136.625 126.159 141.515 126.861 144.501C127.852 148.713 125.786 157.567 121.456 158.981C117.631 160.23 113.169 160.153 108.562 159.228C108.02 158.777 107.416 157.99 106.993 157.171C103.704 157.043 100.624 157.347 98.0259 158.699C98.2721 161.132 96.6267 161.522 95.0842 162.023C93.9407 166.558 97.3719 172.479 96.5507 176.613C95.9648 179.559 92.3409 180.014 89.6773 180.565C89.5904 182.202 89.7939 183.569 89.9756 184.953C89.3666 187.198 86.6349 188.475 84.0466 188.788C75.5308 189.812 62.6008 190.272 54.4093 187.327C52.1235 181.72 50.3229 174.901 48.419 168.499C40.4306 169.352 33.9687 165.052 27.8781 162.235C25.7692 161.257 22.8517 160.718 22.0638 159.04C21.3 157.414 21.6126 154.3 21.4231 151.357C20.9407 143.842 20.5277 136.593 18.5432 128.899C17.6521 125.446 16.099 122.399 15.0156 119.072C14.0141 115.989 12.2645 112.178 11.8081 109.103C11.1315 104.546 15.4229 104.292 18.167 102.318C22.4089 99.2636 25.7386 97.5748 30.3326 94.8185C31.6934 94.0024 35.7968 91.9361 36.2635 90.9846C37.1914 89.098 34.6708 86.4381 33.997 84.9592C32.9311 82.6207 32.3752 80.6343 32.2224 78.327C28.3686 77.7179 25.4472 75.4244 23.6827 72.8383C20.7636 68.5582 18.7391 60.6402 21.2648 54.6168C21.4628 54.1425 22.4507 53.2097 22.5964 52.4812C22.8838 51.0466 22.0555 49.139 22.004 47.6131C21.7386 39.7845 23.3286 33.0392 28.5987 30.6788C30.7382 22.1561 38.3955 19.3216 45.6103 15.0857C48.3071 13.5026 51.2799 12.4909 54.35 11.3611C65.3636 7.30778 82.2624 8.0711 91.4028 14.9843C95.2788 17.9158 101.474 24.1054 103.69 28.5868C109.543 40.4182 109.128 60.1908 105.034 74.5833C104.484 76.5154 103.685 79.3557 102.571 81.6768C101.794 83.2976 99.3786 86.5405 99.6719 87.9716C99.9739 89.4511 105.179 93.4031 106.295 94.4792C108.304 96.4179 112.122 98.991 112.432 101.437C112.764 104.041 111.285 107.602 110.535 110.115C108.029 118.498 105.584 126.248 102.743 133.723" fill="#231F20"/>
<path fill-rule="evenodd" clip-rule="evenodd" d="M63.6746 75.6871C63.9923 75.2642 65.7391 74.6218 68.1833 75.7986C68.1833 75.7986 65.2865 76.2817 65.5275 81.1113L64.3204 80.8694C64.3204 80.8694 63.0729 76.4902 63.6746 75.6871" fill="#F7E4CD"/>
<path fill-rule="evenodd" clip-rule="evenodd" d="M84.8433 117.199C84.8433 117.932 84.2487 118.526 83.5151 118.526C82.7822 118.526 82.1876 117.932 82.1876 117.199C82.1876 116.466 82.7822 115.871 83.5151 115.871C84.2487 115.871 84.8433 116.466 84.8433 117.199Z" fill="#1D1919"/>
<path fill-rule="evenodd" clip-rule="evenodd" d="M86.1713 123.355C86.1713 124.088 85.5768 124.682 84.8431 124.682C84.1102 124.682 83.5157 124.088 83.5157 123.355C83.5157 122.622 84.1103 122.026 84.8431 122.026C85.5767 122.026 86.1713 122.622 86.1713 123.355Z" fill="#1D1919"/>
<path d="M60.0863 118.373H17.8066C17.4714 118.373 17.1996 118.645 17.1996 118.98V120.311C17.1996 120.647 17.4714 120.918 17.8066 120.918H60.0863C60.4216 120.918 60.6933 120.647 60.6933 120.311V118.98C60.6933 118.645 60.4216 118.373 60.0863 118.373Z" fill="black"/>
<path d="M105.43 118.372H68.0094C67.6742 118.372 67.4025 118.644 67.4025 118.979V120.31C67.4025 120.645 67.6742 120.917 68.0094 120.917H105.43C105.766 120.917 106.037 120.645 106.037 120.31V118.979C106.037 118.644 105.766 118.372 105.43 118.372Z" fill="black"/>
<path d="M58.9291 117.137H17.8064C17.4712 117.137 17.1995 117.409 17.1995 117.744V119.075C17.1995 119.41 17.4712 119.682 17.8064 119.682H58.9291C59.2643 119.682 59.536 119.41 59.536 119.075V117.744C59.536 117.409 59.2643 117.137 58.9291 117.137Z" fill="black"/>
<path d="M105.43 117.137H71.711C71.3758 117.137 71.104 117.409 71.104 117.744V119.075C71.104 119.41 71.3758 119.682 71.711 119.682H105.43C105.766 119.682 106.037 119.41 106.037 119.075V117.744C106.037 117.409 105.766 117.137 105.43 117.137Z" fill="black"/>
</g>
<defs>
<clipPath id="clip0">
<rect width="130" height="130" fill="white"/>
</clipPath>
</defs>
</svg>
