<svg width="130" height="130" fill="none" xmlns="http://www.w3.org/2000/svg"><g clip-path="url(#clip0)"><path fill-rule="evenodd" clip-rule="evenodd" d="M90.148 96.317l-9.656 1.449-13.036 1.448-8.45.242-8.207-.242-6.276-1.931-5.553-6.035-4.345-12.311-.965-2.656-5.794-1.93-3.38-5.553-2.413-7.966 2.655-7.001 6.276-2.173 5.07 2.415 2.414 5.31 2.897-.483.965-1.206-.965-5.553-.242-7 1.448-9.656-.056-5.515 4.402-7.037 7.725-5.553 13.518-5.793 14.966 2.172 13.036 9.415 6.036 9.655 3.862 7 .965 17.382-2.897 14.966-5.31 13.277-5.07 7.001" fill="#F0D6B7"/><path fill-rule="evenodd" clip-rule="evenodd" d="M81.943 138.079l-34.52 1.448v5.794l2.896 20.277-1.449 1.691-24.14-8.208-1.69-2.897-2.413-27.278-5.552-16.415-1.207-3.862 19.311-13.277 6.036-2.414 5.31 6.517 4.587 4.104 5.311 1.69 2.414.724 2.896 12.553 2.173 2.655 5.553-1.931-3.863 7.484 21.002 9.897-2.655 1.448" fill="#335061"/><path fill-rule="evenodd" clip-rule="evenodd" d="M24.732 53.83l6.276-2.172 5.069 2.414 2.414 5.31 2.897-.482.724-2.897-1.448-5.552 1.448-13.277-1.207-7.242 4.345-5.07 9.415-7.483-2.656-3.62-13.276 6.517-5.553 4.345-3.138 6.76-4.828 6.517-1.448 7.725.966 8.208" fill="#6D6B6D"/><path fill-rule="evenodd" clip-rule="evenodd" d="M34.628 31.143s3.62-8.931 18.105-13.277c14.484-4.345.724-3.139.724-3.139l-15.69 6.036-6.036 6.035-2.655 4.828 5.552-.483M27.386 52.14s-5.07-16.898 14.243-19.312l-.724-2.896-13.277 3.138-3.863 12.553.966 8.208 2.655-1.69" fill="#DCD9D8"/><path fill-rule="evenodd" clip-rule="evenodd" d="M35.111 74.591l3.161-3.062s1.427.166 1.668 1.855c.24 1.69.965 16.899 11.345 25.107.947.749-7.724-1.208-7.724-1.208l-7.725-12.07M79.53 70.005s.563-7.317 2.534-6.754c1.97.562 1.97 2.533 1.97 2.533s-4.785 3.096-4.504 4.221" fill="#F7E4CD"/><path d="M99.568 43.21s-3.979.84-4.346 4.345c-.366 3.506 4.346.724 5.07.483M70.356 43.452s-5.311.724-5.311 4.103c0 3.38 6.035 3.139 7.725 1.69" fill="#F7E4CD"/><path fill-rule="evenodd" clip-rule="evenodd" d="M37.525 59.142s-9.174-5.552-10.139-.241c-.965 5.31-3.139 9.173 1.449 14.725l-3.139-.965-2.896-7.483-.966-7.242 5.552-5.795 6.277.483 3.62 2.897.242 3.621M41.87 43.934s4.104-21.243 24.865-25.346c17.092-3.379 26.071.724 29.45 4.586 0 0-15.207-18.104-29.691-12.553C52.009 16.174 41.389 26.313 41.63 32.83c.41 11.101.24 11.105.24 11.105M97.877 25.584s-7-.241-7.242 6.035c0 0-.001.966.482 1.931 0 0 5.553-6.277 8.932-2.897" fill="#F7E4CD"/><path fill-rule="evenodd" clip-rule="evenodd" d="M67.222 34.208s-1.205-9.633-9.42-4.033c-5.31 3.621-4.827 8.69-3.862 9.656.966.966.703 2.91 1.438 1.576.735-1.335.493-5.68 3.149-6.887 2.655-1.207 7.008-2.556 8.695-.312" fill="#F7E4CD"/><path fill-rule="evenodd" clip-rule="evenodd" d="M44.526 99.455l-22.691 10.139s9.414 37.418 4.586 49.005l-3.38-1.207-.241-14.242-6.276-27.036-2.656-7.484 23.657-15.931 7 6.758M46.86 120.151l3.218 3.928v14.484h-3.862s-.483-10.139-.483-11.346c0-1.207.483-5.552.483-5.552" fill="#49728B"/><path fill-rule="evenodd" clip-rule="evenodd" d="M86.526 138.321l13.519-.724s5.552-14.001 5.552-14.725c0-.724 4.828-20.278 4.828-20.278L99.562 91.249l-2.173-1.932-5.793 5.794v22.45l-5.07 20.76" fill="#335061"/><path fill-rule="evenodd" clip-rule="evenodd" d="M92.804 94.386l16.898 12.553.483-5.794-12.794-11.828-4.587 5.07" fill="#49728B"/><path d="M85.978 136.393l-5.31-13.519-5.553-7.966s1.207-3.38 2.897-3.38h5.553l5.31 1.932-.482 8.932-2.415 14.001" fill="#fff"/><path fill-rule="evenodd" clip-rule="evenodd" d="M87.013 131.803s-6.76-13.035-6.76-14.966c0 0 1.207-2.897 2.897-2.173 1.69.724 5.311 2.655 5.311 2.655v-4.586l-8.207-1.691-5.552.725 9.415 22.208 1.93.242" fill="#DCD9D8"/><path d="M57.49 99.941l-6.688-.727-6.276-1.931v2.172l3.066 3.382 9.657 4.345" fill="#fff"/><path fill-rule="evenodd" clip-rule="evenodd" d="M46.7 100.665s7.483 3.138 9.897 2.414l.24 2.894-6.758-1.445-4.104-2.897.724-.966" fill="#DCD9D8"/><path fill-rule="evenodd" clip-rule="evenodd" d="M95.607 112.35c-4.096-.12-7.797-.607-11.037-1.521.22-1.328-.192-2.632.139-3.588.903-.651 2.417-.641 3.782-.793-1.18-.58-2.84-.81-4.201-.475-.032-.922-.446-1.493-.696-2.214 2.303-.822 7.74-6.211 10.797-4.427 1.457.849 2.076 5.697 2.19 8.054.094 1.956-.178 3.928-.975 4.964" fill="#D33833"/><path d="M95.607 112.35c-4.096-.12-7.797-.607-11.037-1.521.22-1.328-.192-2.632.139-3.588.903-.651 2.417-.641 3.782-.793-1.18-.58-2.84-.81-4.201-.475-.032-.922-.446-1.493-.696-2.214 2.303-.822 7.74-6.211 10.797-4.427 1.457.849 2.076 5.697 2.19 8.054.094 1.956-.178 3.928-.975 4.964h0z" stroke="#D33833" stroke-width="2.138"/><path fill-rule="evenodd" clip-rule="evenodd" d="M76.018 105.654l-.036.935c-1.28.84-3.344.83-4.748 1.536 2.07.091 3.698.589 5.108 1.291l-.092 2.342c-2.344 1.605-4.485 3.994-7.245 5.499-1.305.712-5.885 2.544-7.274 2.22-.785-.182-.856-1.157-1.17-2.076-.67-1.968-2.21-5.1-2.344-8.062-.171-3.741-.549-10.011 3.483-9.241 3.253.621 7.036 2.119 9.554 3.495 1.54.842 2.43 1.882 4.764 2.061" fill="#D33833"/><path d="M76.018 105.654l-.036.935c-1.28.84-3.344.83-4.748 1.536 2.07.091 3.698.589 5.108 1.291l-.092 2.342c-2.344 1.605-4.485 3.994-7.245 5.499-1.305.712-5.885 2.544-7.274 2.22-.785-.182-.856-1.157-1.17-2.076-.67-1.968-2.21-5.1-2.344-8.062-.171-3.741-.549-10.011 3.483-9.241 3.253.621 7.036 2.119 9.554 3.495 1.54.842 2.43 1.882 4.764 2.061h0z" stroke="#D33833" stroke-width="2.138"/><path fill-rule="evenodd" clip-rule="evenodd" d="M78.346 110.118c-.358-2.038-.772-2.62-.611-4.397 5.435-3.624 6.455 6.224.61 4.397z" fill="#D33833"/><path d="M78.346 110.118c-.358-2.038-.772-2.62-.611-4.397 5.435-3.624 6.455 6.224.61 4.397z" stroke="#D33833" stroke-width="2.138"/><path fill-rule="evenodd" clip-rule="evenodd" d="M86.218 111.769s-1.69-2.414-.483-3.138c1.207-.724 2.414 0 3.138-1.207.725-1.207 0-1.931.242-3.38.24-1.448 1.449-1.69 2.655-1.931 1.207-.241 4.587-.724 5.07.483l-1.449-4.345-2.897-.966-9.173 5.311-.483 2.655v5.311M60.87 119.736c-.29-3.767-.597-7.53-.939-11.293-.51-5.62 1.35-4.639 6.222-4.639.743 0 4.58.887 4.855 1.448 1.317 2.689-2.201 2.091 1.517 4.119 3.138 1.711 8.683-1.039 7.415-4.843-.71-.846-3.698-.264-4.77-.819-1.885-.978-3.77-1.956-5.657-2.933-2.4-1.245-7.945-3.06-10.503-1.32-6.482 4.408.409 15.422 2.721 20.021" fill="#EF3D3A"/><path fill-rule="evenodd" clip-rule="evenodd" d="M67.222 34.208c-6.58-1.532-9.849 2.754-11.843 7.199-1.781-.432-1.072-2.853-.622-4.087 1.177-3.239 5.923-7.55 9.8-6.966 1.67.252 3.928 1.777 2.665 3.854M99.282 41.698l.312.012c1.487 3.089 2.774 6.36 4.65 9.087-1.257 2.927-9.515 5.517-9.387.262 1.786-.78 4.869-.16 6.452-1.157-.916-2.512-2.237-4.65-2.027-8.204M70.59 41.783c1.41 2.586 1.87 5.303 3.875 7.258.903.88 2.66 1.953 1.789 4.4-.204.577-1.69 1.864-2.549 2.116-3.135.926-10.44.191-7.966-3.717 2.593.121 6.078 1.684 8.016-.198-1.489-2.38-4.142-7.086-3.165-9.859M98.1 68.064c-4.72 3.032-9.983 6.33-17.717 5.565-1.653-1.437-2.283-4.635-.677-6.746.835 1.437.31 4.08 2.64 4.477 4.388.75 9.496-2.685 12.652-3.886 1.958-3.3-.169-4.514-1.932-6.638-3.61-4.351-8.453-9.745-8.277-16.26 1.459-1.058 1.585 1.615 1.794 2.102 1.885 4.412 6.63 10.054 10.092 13.83.85.93 2.25 1.822 2.406 2.437.449 1.788-1.168 3.93-.98 5.12M35.873 64.872c-1.48-.844-1.831-4.564-3.568-4.67-2.483-.15-2.03 4.826-2.02 7.736-1.709-1.552-2.01-6.328-.754-8.78-1.43-.703-2.07.774-2.863 1.295 1.02-7.408 10.838-3.436 9.205 4.42M101.104 71.15c-2.197 4.182-5.305 8.788-11.753 8.921-.131-1.35-.232-3.406.007-4.219 4.929-.474 7.972-2.982 11.746-4.703M70.218 73.861c4.113 2.162 11.67 2.395 17.26 2.231.3 1.225.292 2.738.304 4.231-7.185.359-15.68-1.42-17.564-6.462M69.436 77.893c2.844 7.14 12.618 6.318 20.86 6.121-.363.927-1.15 2.022-2.127 2.418-2.641 1.075-9.926 1.89-13.593-.057-2.325-1.236-3.819-4.03-5.093-5.667-.615-.79-3.679-2.81-.047-2.815" fill="#231F20"/><path fill-rule="evenodd" clip-rule="evenodd" d="M97.761 117.277c-3.337 5.716-6.53 11.586-10.49 16.627 1.66-4.88 2.37-13.049 2.621-19.276 3.473-1.625 6.447.366 7.87 2.649" fill="#81B0C4"/><path fill-rule="evenodd" clip-rule="evenodd" d="M85.8 99.156c-1.718 1.122-3.181 2.522-4.832 3.72-3.66.181-5.657-.253-8.347-2.355.045-.169.315-.093.325-.301 3.918 1.747 8.898-.71 12.854-1.064" fill="#F0D6B7"/><path fill-rule="evenodd" clip-rule="evenodd" d="M65.234 125.863c1.077-4.665 5.295-7.081 9.125-9.65 3.953 5.018 6.357 11.47 9.005 17.697-6.256-1.886-12.648-4.946-18.13-8.047" fill="#81B0C4"/><path fill-rule="evenodd" clip-rule="evenodd" d="M87.23 163.127c-.16 3.813.374 9.929.553 13.93 2.536.003 3.623-.555 5.515-1.193.214-4.708-1.49-9.063-1.981-13.361-1.002-.267-2.84.706-4.088.623v.001zm-39.48-21.689c1.672 15.37 4.094 28.29 8.535 41.9 9.857 2.993 21.741 3.254 30.454.553-1.6-7.682-.901-17.034-1.836-25.231-.705-6.161-.345-12.361-1.312-18.647-10.557-2.196-25.48-.513-35.84 1.425zm38.337-1.329c-.089 6.601.296 13.113.8 19.722 2.534-.38 4.254-.634 6.61-1.151-.765-6.362-.671-13.522-2.229-19.151-1.8.017-3.386-.021-5.18.58zm12.858-1.064c-1.202-.275-2.603-.01-3.752.012.54 5.381 1.85 11.319 2.312 16.967 1.808.056 2.774-.797 4.262-1.084.08-4.958-.433-11.789-2.822-15.895zm19.47 17.789c3.769-.916 6.139-5.532 5.085-10.273-.708-3.187-1.968-9.187-3.316-11.226-.997-1.507-3.699-3.481-5.856-2.1-3.51 2.247-9.692 2.9-12.251 5.62 1.283 4.273 1.681 10.142 2.211 15.555 4.384.274 9.779-1.206 13.425.364-2.546.825-5.849.831-8.048 2.033 1.797.868 6.005.693 8.749.027h.001zM83.361 133.91c-2.648-6.227-5.052-12.679-9.005-17.696-3.83 2.568-8.048 4.984-9.125 9.649 5.483 3.102 11.875 6.162 18.13 8.047zm6.526-19.282c-.25 6.228-.96 14.396-2.62 19.277 3.959-5.042 7.152-10.912 10.489-16.627-1.423-2.284-4.396-4.275-7.869-2.649v-.001zM82.49 112c-1.5-.162-2.773 1.724-4.723.908-.447.494-.854 1.03-1.309 1.512 4.308 5.191 6.265 12.556 9.592 18.657 1.785-5.86 1.58-12.28 1.973-18.676-2.453.155-3.814-2.219-5.533-2.401zm-4.757-6.279c-.16 1.778.253 2.359.61 4.397 5.845 1.827 4.825-8.021-.61-4.397zm-6.481-2.128c-2.519-1.376-6.302-2.874-9.555-3.495-4.031-.771-3.654 5.5-3.483 9.241.135 2.962 1.675 6.094 2.344 8.062.314.919.385 1.893 1.17 2.076 1.389.324 5.969-1.508 7.274-2.22 2.76-1.505 4.901-3.894 7.246-5.499l.091-2.342c-1.41-.702-3.038-1.2-5.107-1.291 1.403-.706 3.468-.696 4.747-1.536l.036-.935c-2.335-.179-3.225-1.219-4.764-2.061zm-24.054-4.369c-2.09 2.122 5.862 5.014 8.394 5.17-.014-1.343.765-2.608.608-3.572-3.007-.528-6.959-.179-9.002-1.598zm25.747.997c-.01.207-.28.131-.324.3 2.688 2.102 4.686 2.536 8.346 2.355 1.65-1.198 3.114-2.598 4.833-3.72-3.956.353-8.937 2.811-12.855 1.065zm23.632 7.165c-.113-2.357-.732-7.205-2.19-8.054-3.058-1.785-8.495 3.605-10.797 4.427.25.721.664 1.292.696 2.214 1.362-.335 3.02-.105 4.201.475-1.365.152-2.879.142-3.782.793-.33.956.081 2.26-.139 3.588 3.24.914 6.941 1.401 11.037 1.521.797-1.036 1.068-3.009.974-4.964zm-52.897-6.11c-.657-.467-5.096-6.244-5.705-6.005-8.034 3.169-15.546 8.647-22.259 13.829 6.4 13.734 8.984 30.56 9.441 46.777 7.332 3.429 13.772 8.373 23.721 8.889-1.15-8.146-2.202-15.413-2.855-23.083-2.5-1.054-6.087.048-8.426-.327-.02-2.819 3.572-1.234 3.872-3.13.225-1.434-1.977-1.543-1.26-3.801 1.829.665 2.79 2.134 4.74 2.685 1.782-3.899-.025-10.798.232-14.057.048-.611.305-3.389 1.676-2.902 1.213.431-.07 7.388.063 10.472.122 2.842-.343 5.592.808 7.376a274.518 274.518 0 0129.786-2.44c-2.289-.982-5.007-1.912-7.988-3.592-1.616-.91-6.71-2.806-7.175-4.341-.744-2.445 1.952-3.748 2.413-5.844-4.853 2.646-5.8-2.537-6.948-6.21-1.04-3.326-1.632-5.811-1.888-7.729-4.18-1.993-8.65-4.011-12.248-6.567zm48.65-5.306c6.695-3.246 7.901 12.131 5.277 17.085.406 1.477 1.8 2.043 2.37 3.371-3.736 6.692-7.884 12.938-11.696 19.551 2.835-1.765 6.885-.316 10.221-1.637 1.22-.483 2.103-3.274 3.026-5.508 2.54-6.144 5.206-13.891 6.392-19.755.268-1.337.998-4.248.835-5.437-.292-2.129-3.181-3.708-4.65-5.025-2.707-2.431-4.412-4.571-7.236-6.845-1.145 1.69-3.602 2.826-4.538 4.2zM28.37 36.61c-3.189 3.51-2.521 10.085-2.135 14.764 5.765-3.627 13.417.287 13.346 6.455 2.752-.073 1.028-3.437.53-5.605-1.627-7.08 2.741-14.771.198-21.246-4.938.375-8.994 2.391-11.938 5.632zM51.193 16.24c-7.22 2.047-16.474 7.294-19.442 13.78 2.298-.333 3.893-1.492 6.16-1.636.856-.055 1.978.36 2.963.115 1.961-.487 3.617-4.886 5.097-6.522 1.443-1.599 3.177-2.282 4.364-3.739.762-.367 1.89-.342 1.933-1.487-.33-.354-.678-.623-1.075-.51zm37.588 1.925c-7.494-4.228-20.18-7.41-28.153-3.435-6.433 3.208-15.128 8.515-18.093 15.24 2.77 6.49-.82 12.436-1.05 19.024-.121 3.506 1.651 6.567 1.787 10.383-.948 1.564-3.843 1.756-5.848 1.65-.674-3.377-1.855-7.172-5.332-7.553-4.92-.538-8.517 3.534-8.74 7.788-.264 5.003 3.843 13.296 9.665 12.72 2.249-.222 2.802-2.476 5.252-2.453 1.328 2.65-2.049 3.482-2.396 5.377-.09.49.28 2.403.495 3.3 1.058 4.37 3.415 10.024 5.735 13.35 2.945 4.22 8.73 4.856 14.956 5.269 1.111-2.395 5.207-2.198 7.875-1.572-3.198-1.266-6.17-4.337-8.635-7.055-2.83-3.118-5.697-6.463-5.842-10.54 5.348 7.42 9.767 13.901 19.493 17.165 7.359 2.468 15.954-1.131 21.609-5.102 2.346-1.65 3.747-4.269 5.414-6.666 6.241-8.977 9.153-21.789 8.512-34.208-.263-5.121-.252-10.226-1.97-13.67-1.796-3.604-7.87-6.827-11.427-3.568-.659-3.504 2.957-5.67 7.204-4.41-3.028-3.909-6.207-8.605-10.511-11.034zm13.964 115.557c5.856-2.912 16.799-7.836 20.47.011 1.355 2.892 2.945 7.782 3.647 10.768.991 4.212-1.075 13.066-5.405 14.48-3.825 1.249-8.287 1.172-12.894.247-.542-.451-1.146-1.238-1.569-2.057-3.289-.128-6.369.176-8.967 1.528.246 2.433-1.4 2.823-2.942 3.324-1.143 4.535 2.288 10.456 1.467 14.59-.586 2.946-4.21 3.401-6.874 3.952-.087 1.637.117 3.004.299 4.388-.61 2.245-3.341 3.522-5.93 3.835-8.515 1.024-21.445 1.484-29.637-1.461-2.285-5.607-4.086-12.426-5.99-18.828-7.988.853-14.45-3.447-20.54-6.264-2.11-.978-5.027-1.517-5.815-3.195-.764-1.626-.451-4.74-.64-7.683-.483-7.515-.896-14.764-2.88-22.458-.892-3.453-2.445-6.5-3.528-9.827-1.002-3.083-2.752-6.894-3.208-9.969-.676-4.557 3.615-4.811 6.359-6.785 4.242-3.054 7.572-4.743 12.166-7.5 1.36-.816 5.464-2.882 5.93-3.833.928-1.887-1.592-4.547-2.266-6.026-1.066-2.338-1.622-4.325-1.775-6.632-3.853-.61-6.775-2.903-8.54-5.489-2.918-4.28-4.943-12.198-2.417-18.221.198-.474 1.186-1.407 1.331-2.136.288-1.434-.54-3.342-.592-4.868-.265-7.828 1.325-14.574 6.595-16.934 2.14-8.523 9.796-11.357 17.011-15.593 2.697-1.583 5.67-2.595 8.74-3.725 11.014-4.053 27.912-3.29 37.053 3.623 3.876 2.932 10.071 9.121 12.287 13.603 5.853 11.831 5.438 31.604 1.344 45.996-.55 1.932-1.349 4.773-2.463 7.094-.777 1.62-3.192 4.863-2.9 6.295.303 1.48 5.508 5.431 6.624 6.507 2.009 1.939 5.827 4.512 6.137 6.958.332 2.604-1.147 6.165-1.897 8.678-2.506 8.383-4.951 16.133-7.792 23.608" fill="#231F20"/><path fill-rule="evenodd" clip-rule="evenodd" d="M63.675 75.687c.317-.423 2.064-1.065 4.508.112 0 0-2.897.483-2.656 5.312l-1.207-.242s-1.247-4.379-.645-5.182" fill="#F7E4CD"/><path fill-rule="evenodd" clip-rule="evenodd" d="M84.843 117.199a1.327 1.327 0 11-2.655-.001 1.327 1.327 0 012.655.001zM86.171 123.355a1.327 1.327 0 11-2.655 0 1.327 1.327 0 012.655 0z" fill="#1D1919"/><path d="M60.086 118.373h-42.28a.607.607 0 00-.606.607v1.331c0 .336.271.607.607.607h42.28a.606.606 0 00.606-.607v-1.331a.607.607 0 00-.607-.607zM105.43 118.372H68.01a.607.607 0 00-.608.607v1.331c0 .335.272.607.607.607h37.421a.607.607 0 00.607-.607v-1.331a.607.607 0 00-.607-.607z" fill="#000"/><path d="M58.93 117.137H17.805a.607.607 0 00-.607.607v1.331c0 .335.272.607.607.607H58.93a.607.607 0 00.607-.607v-1.331a.607.607 0 00-.607-.607zM105.43 117.137H71.711a.607.607 0 00-.607.607v1.331c0 .335.272.607.607.607h33.719a.607.607 0 00.607-.607v-1.331a.607.607 0 00-.607-.607z" fill="#000"/></g><defs><clipPath id="clip0"><path fill="#fff" d="M0 0h130v130H0z"/></clipPath></defs></svg>