<svg width="130" height="130" viewBox="0 0 130 130" fill="none" xmlns="http://www.w3.org/2000/svg">
<path d="M24.2775 10.2905C23.23 13.7913 22.6829 17.4225 22.6525 21.0765L28.4497 23.8837C28.3406 20.4374 28.4763 16.9878 28.8559 13.5609C28.8762 13.3252 28.9006 13.1871 28.9006 13.1871C28.9006 13.313 28.864 13.4349 28.8559 13.5609C28.5844 16.9502 28.5804 20.3556 28.8437 23.7455C31.8464 21.1891 34.713 18.477 37.4318 15.6205C36.8605 14.0998 35.9948 12.7066 34.8843 11.5209C33.7738 10.3351 32.4404 9.37998 30.9603 8.71023C30.9603 8.71023 25.8253 6.63835 24.2775 10.2905Z" fill="url(#paint0_linear)"/>
<path d="M44.3787 54.8239C44.1065 55.1204 43.8262 55.4007 43.5418 55.681C43.6881 55.547 43.8384 55.3885 43.9765 55.2423C44.1187 55.1108 44.253 54.9711 44.3787 54.8239V54.8239Z" fill="#BE202E"/>
<path opacity="0.35" d="M44.3787 54.8239C44.1065 55.1204 43.8262 55.4007 43.5418 55.681C43.6881 55.547 43.8384 55.3885 43.9765 55.2423C44.1187 55.1108 44.253 54.9711 44.3787 54.8239V54.8239Z" fill="#BE202E"/>
<path d="M42.25 50.1961C42.2987 50.1595 42.3353 50.1108 42.38 50.0742C42.5628 49.8914 42.7456 49.7086 42.9 49.5217C42.6968 49.7452 42.4653 49.9605 42.2459 50.1961H42.25Z" fill="#BE202E"/>
<path opacity="0.35" d="M42.25 50.1961C42.2987 50.1595 42.3353 50.1108 42.38 50.0742C42.5628 49.8914 42.7456 49.7086 42.9 49.5217C42.6968 49.7452 42.4653 49.9605 42.2459 50.1961H42.25Z" fill="#BE202E"/>
<path d="M29.9812 40.9984C29.7104 39.0701 29.4667 37.1743 29.25 35.3109C29.0266 33.3731 28.8437 31.4719 28.7178 29.5909C28.7178 29.4772 28.6975 29.3634 28.7178 29.2619C28.5675 27.4256 28.4781 25.6341 28.4375 23.8791L22.6484 21.0881C22.6484 21.4375 22.6078 21.7991 22.5956 22.1809C22.5387 23.5663 22.4941 25.0247 22.4819 26.5888C22.4819 28.3356 22.4819 30.1556 22.5144 32.0609C22.555 33.8159 22.6281 35.6441 22.7216 37.5047C22.815 39.0972 22.9206 40.7059 23.0506 42.3472C23.0506 42.4163 23.0506 42.4609 23.0506 42.5341L30.7937 46.4544C30.5378 44.6222 30.2534 42.8022 29.9812 40.9984Z" fill="url(#paint1_linear)"/>
<path d="M41.4375 86.7832C41.8437 88.2294 42.2987 89.7204 42.77 91.2316C42.77 91.2316 42.77 91.2763 42.77 91.2926C42.835 91.5119 42.8878 91.7191 42.969 91.9304C43.2778 92.9501 43.5743 93.856 44.2162 95.9279C45.7706 95.8327 47.318 96.2033 48.6606 96.9922C47.6073 95.7004 46.0884 94.8746 44.4315 94.6929C46.6617 93.5551 48.5346 91.8239 49.8442 89.6901C51.1537 87.5563 51.8491 85.1024 51.8537 82.5988C51.805 82.1682 51.7481 81.7213 51.6628 81.2744C51.6158 82.263 51.3015 83.2203 50.7535 84.0445C50.2056 84.8686 49.4443 85.5287 48.5509 85.9544V85.9544C50.4284 83.1071 51.3006 79.714 51.029 76.3141C50.9681 75.5301 50.8665 74.6891 50.7243 73.7994C50.4988 75.949 49.7161 78.0024 48.4535 79.7566C47.191 81.5108 45.4923 82.905 43.5256 83.8013L41.1775 85.9626C41.2628 86.2347 41.3359 86.5029 41.4375 86.7832Z" fill="url(#paint2_linear)"/>
<path d="M38.4028 80.1736C37.9113 78.3374 37.4197 76.4727 36.92 74.5917C36.4488 72.788 35.9978 70.968 35.5469 69.1236C35.096 67.2792 34.6613 65.4227 34.2306 63.5661C33.8 61.7095 33.3775 59.7717 32.9794 57.8786C32.5813 55.9855 32.2075 54.0964 31.8338 52.2195C31.6997 51.537 31.5778 50.8708 31.456 50.1883C31.2406 49.0264 31.0497 47.8564 30.8385 46.6824C30.8385 46.6214 30.8181 46.5524 30.7978 46.4914L23.0994 42.563C23.1171 42.6854 23.1266 42.8089 23.1278 42.9327C23.2822 44.6755 23.4325 46.4467 23.6397 48.2139C23.8469 49.9811 24.0703 51.8295 24.3385 53.6617C24.566 55.2055 24.8097 56.737 25.0656 58.2849C25.1185 58.5895 25.1794 58.9105 25.2322 59.2111C25.5856 61.1245 25.9675 62.973 26.3778 64.6995C26.8369 66.6577 27.3325 68.4939 27.8281 70.2083C28.1613 71.3295 28.4903 72.4102 28.8275 73.4339C29.12 74.2952 29.4369 75.1605 29.7416 76.0136C30.4769 78.0164 31.2935 79.9583 32.1791 81.8555L39.9588 85.7961C39.5525 84.3661 39.1463 82.9117 38.74 81.437C38.6263 81.0105 38.5206 80.6002 38.4028 80.1736Z" fill="url(#paint3_linear)"/>
<path d="M32.2847 82.0948C33.3393 84.3703 34.5346 86.5778 35.8638 88.7045C35.9084 88.7695 35.9531 88.8589 35.9978 88.9239C34.0681 88.3942 32.0548 88.2384 30.0666 88.4648C33.6786 89.4692 36.9708 91.3874 39.6256 94.0345C38.3381 95.1635 36.7828 95.9439 35.1081 96.3014C36.7708 96.5753 38.4757 96.4244 40.0644 95.8626C38.5376 97.5072 37.4944 99.5414 37.05 101.741C38.1453 99.5755 39.8459 97.7747 41.9453 96.5573C44.2813 104.3 47.0925 112.694 50.2084 121.501C50.4469 121.194 50.6052 120.832 50.6691 120.448C50.7329 120.065 50.7003 119.671 50.5741 119.303C50.0013 117.723 46.2922 107.246 42.0631 93.027C41.9413 92.6208 41.8356 92.2145 41.7016 91.8083C41.665 91.6905 41.6366 91.5889 41.6 91.467C41.1667 89.9774 40.7252 88.4445 40.2756 86.8683C40.1781 86.5026 40.0725 86.1614 39.975 85.7917L32.1953 81.8511C32.2178 81.9348 32.2477 82.0164 32.2847 82.0948V82.0948Z" fill="url(#paint4_linear)"/>
<path d="M31.7119 46.6214C31.7566 46.8814 31.8053 47.1129 31.85 47.377C32.0003 48.1489 32.1344 48.9289 32.2928 49.7129C32.4553 50.5701 32.6341 51.4435 32.8047 52.3414C32.89 52.7923 32.9753 53.2432 33.0728 53.7064C33.3531 55.0876 33.6578 56.5014 33.9707 57.9598C34.3769 59.7514 34.7832 61.5917 35.2341 63.5092C35.6403 65.321 36.1197 67.2101 36.5991 69.1317C37.0663 70.9639 37.5375 72.8407 38.0575 74.7826C38.5125 76.501 39.0041 78.2682 39.4997 80.0639C39.4997 80.1492 39.5566 80.2426 39.5728 80.3279C40.0725 82.1114 40.5966 83.9517 41.141 85.8245C41.1443 85.866 41.1567 85.9062 41.1775 85.9423L43.5257 83.781C43.4647 83.781 43.42 83.8338 43.3428 83.8663C46.5334 80.3566 48.5351 75.9295 49.0628 71.2157C49.313 68.8687 49.2884 66.5005 48.9897 64.1592C48.7413 62.125 48.3641 60.1087 47.8603 58.1223C47.3972 56.2617 46.8285 54.2873 46.1338 52.2073C45.6554 53.1464 45.0528 54.0168 44.3422 54.7951L43.936 55.242C43.8019 55.3923 43.6516 55.5223 43.5013 55.6807C45.3692 52.6354 45.9755 48.9815 45.1913 45.496C44.6668 46.9676 43.8795 48.3317 42.8675 49.522C42.7132 49.7089 42.5303 49.8917 42.3475 50.0745C42.2988 50.111 42.2622 50.1598 42.2013 50.2085C42.8423 49.1748 43.3487 48.0636 43.7085 46.9017C43.78 46.675 43.8384 46.4444 43.8832 46.211C43.9644 45.8576 44.0213 45.5001 44.0741 45.1426C44.0944 44.907 44.131 44.6876 44.1513 44.4479C44.1983 43.8896 44.1983 43.3284 44.1513 42.7701C44.1513 42.5832 44.1513 42.4167 44.1066 42.242C44.0619 41.982 44.0294 41.7382 43.9807 41.5026C43.7938 40.4179 43.5744 39.4714 43.3753 38.6589C43.2697 38.2526 43.1722 37.8789 43.0666 37.5417C43.0178 37.4076 42.9935 37.2776 42.9447 37.1354C42.8188 36.7657 42.7172 36.4245 42.6035 36.1401C42.479 35.805 42.3366 35.4768 42.1769 35.157C42.1382 35.3188 42.0809 35.4755 42.0063 35.6242C41.3243 37.016 40.4338 38.2955 39.3656 39.4185L41.531 37.4401L39.3535 39.4064C39.3438 39.4118 39.3354 39.4194 39.3291 39.4285C39.3227 39.4377 39.3186 39.4482 39.3169 39.4592C39.205 39.5712 39.0992 39.6892 39 39.8126C39 39.7842 39.0366 39.7598 39.0406 39.7354L31.6469 46.4995C31.7078 46.5523 31.716 46.5929 31.7119 46.6214Z" fill="url(#paint5_linear)"/>
<path d="M28.8438 23.7452C28.9331 25.3702 29.0753 27.1902 29.25 29.2052C29.2536 29.3117 29.2659 29.4176 29.2866 29.5221C29.4531 31.2812 29.6685 33.1784 29.9447 35.2462C30.1803 37.0296 30.4403 38.9024 30.7572 40.9337C31.0213 42.6927 31.3463 44.533 31.6794 46.4871L39.0731 39.7149C40.3305 37.7131 40.9758 35.3875 40.9297 33.024C40.9297 32.443 40.885 31.8337 40.8403 31.208C40.7241 29.2593 40.5099 27.3177 40.1985 25.3905C39.9238 23.6296 39.5563 21.8843 39.0975 20.1621C38.8591 19.2642 38.5757 18.3788 38.2485 17.5093C37.9844 16.8471 37.7081 16.2418 37.436 15.6649C34.7096 18.5011 31.8419 21.198 28.8438 23.7452V23.7452Z" fill="url(#paint6_linear)"/>
<path d="M43.9847 55.2502C43.8506 55.4006 43.7003 55.5306 43.55 55.689C43.6868 55.5349 43.8319 55.3885 43.9847 55.2502V55.2502Z" fill="#BE202E"/>
<path opacity="0.35" d="M43.9847 55.2502C43.8506 55.4006 43.7003 55.5306 43.55 55.689C43.6868 55.5349 43.8319 55.3885 43.9847 55.2502V55.2502Z" fill="#BE202E"/>
<path d="M43.9847 55.2502C43.8506 55.4006 43.7003 55.5306 43.55 55.689C43.6868 55.5349 43.8319 55.3885 43.9847 55.2502V55.2502Z" fill="url(#paint7_linear)"/>
<path d="M42.25 50.2082C42.2987 50.1716 42.3353 50.1228 42.3962 50.0741C42.3475 50.1107 42.3109 50.1594 42.25 50.2082Z" fill="#BE202E"/>
<path opacity="0.35" d="M42.25 50.2082C42.2987 50.1716 42.3353 50.1228 42.3962 50.0741C42.3475 50.1107 42.3109 50.1594 42.25 50.2082Z" fill="#BE202E"/>
<path d="M42.25 50.2082C42.2987 50.1716 42.3353 50.1228 42.3962 50.0741C42.3475 50.1107 42.3109 50.1594 42.25 50.2082Z" fill="url(#paint8_linear)"/>
<path d="M100.047 11.7448C96.4283 13.7353 93.1089 16.2272 90.1875 19.1467L92.625 26.0123C95.2763 23.1528 98.1272 20.4852 101.156 18.0295C101.363 17.8589 101.489 17.7614 101.489 17.7614C101.384 17.8589 101.262 17.932 101.156 18.0295C98.2373 20.5377 95.5205 23.2721 93.0313 26.2073C97.4756 26.5379 101.934 26.6355 106.389 26.4998C107.14 24.8198 107.553 23.0079 107.602 21.1681C107.652 19.3283 107.337 17.4969 106.677 15.7789C106.677 15.7789 104.191 10.0345 100.047 11.7448Z" fill="url(#paint9_linear)"/>
<path d="M80.8438 63.5619C80.3888 63.5863 79.9378 63.5863 79.4869 63.5863C79.7103 63.5863 79.9582 63.5863 80.1857 63.5863C80.4053 63.5911 80.6251 63.583 80.8438 63.5619V63.5619Z" fill="#BE202E"/>
<path opacity="0.35" d="M80.8438 63.5619C80.3888 63.5863 79.9378 63.5863 79.4869 63.5863C79.7103 63.5863 79.9582 63.5863 80.1857 63.5863C80.4053 63.5911 80.6251 63.583 80.8438 63.5619V63.5619Z" fill="#BE202E"/>
<path d="M82.81 58.1503C82.875 58.1503 82.9441 58.1503 83.0131 58.1503C83.3056 58.1503 83.5981 58.1503 83.8744 58.1178C83.5331 58.1178 83.1756 58.1178 82.8141 58.1422L82.81 58.1503Z" fill="#BE202E"/>
<path opacity="0.35" d="M82.81 58.1503C82.875 58.1503 82.9441 58.1503 83.0131 58.1503C83.3056 58.1503 83.5981 58.1503 83.8744 58.1178C83.5331 58.1178 83.1756 58.1178 82.8141 58.1422L82.81 58.1503Z" fill="#BE202E"/>
<path d="M80.2384 40.9946C81.5547 39.2287 82.8655 37.5062 84.1709 35.8271C85.5278 34.0883 86.9009 32.4227 88.2862 30.8017C88.3675 30.7002 88.4528 30.6027 88.53 30.5214C89.8869 28.9411 91.2356 27.4299 92.5925 25.9836L90.155 19.1383C89.8665 19.4105 89.5578 19.6827 89.245 19.9711C88.0953 21.0396 86.8928 22.1933 85.6537 23.4283C84.2562 24.8217 82.81 26.3005 81.3312 27.8605C79.9703 29.3067 78.5769 30.8342 77.1753 32.4064C75.985 33.7633 74.7906 35.1405 73.5922 36.5664L73.454 36.7249L76.57 46.0321C77.809 44.3542 79.0237 42.6561 80.2384 40.9946Z" fill="url(#paint10_linear)"/>
<path d="M53.0684 86.9378C52.2559 88.4409 51.4434 89.9846 50.6106 91.5771C50.6106 91.5975 50.5822 91.6178 50.5781 91.6381C50.4562 91.8696 50.3344 92.0768 50.2328 92.3084C49.6722 93.3728 49.1928 94.3396 48.0634 96.5171C49.3908 97.6752 50.3428 99.2028 50.7975 100.905C50.9755 99.0291 50.4094 97.1586 49.2212 95.6965C55.5506 96.9153 61.299 96.1028 64.805 91.8575C65.1097 91.4756 65.4144 91.0693 65.7028 90.6387C64.8791 91.3965 63.8653 91.9168 62.7694 92.1443C61.6734 92.3718 60.5363 92.2979 59.479 91.9306V91.9306C63.2539 91.126 66.6514 89.0826 69.1315 86.1253C69.7044 85.4428 70.2853 84.6953 70.8825 83.8584C68.993 85.4101 66.7311 86.4415 64.3206 86.8505C61.9101 87.2595 59.4346 87.0319 57.139 86.1903L53.5315 86.0643C53.3772 86.3731 53.2187 86.6453 53.0684 86.9378Z" fill="url(#paint11_linear)"/>
<path d="M55.8918 79.2186C56.9562 77.3458 58.0409 75.4567 59.1418 73.5311C60.1981 71.703 61.2747 69.8748 62.3918 68.0386C63.509 66.2023 64.6222 64.358 65.7475 62.5177C66.8728 60.6773 68.0753 58.7842 69.2697 56.9317C70.464 55.0792 71.6543 53.2755 72.8406 51.4636C73.2753 50.8055 73.7059 50.1717 74.1609 49.5177C74.9084 48.4127 75.6803 47.3077 76.4481 46.2067C76.4806 46.1458 76.5334 46.0848 76.5659 46.0198L73.4906 36.7411C73.4072 36.8541 73.3163 36.9613 73.2184 37.062C71.959 38.5895 70.6753 40.1333 69.424 41.7298C68.1728 43.3264 66.8972 44.9798 65.6581 46.6739C64.614 48.0958 63.5943 49.5177 62.5706 50.972C62.3715 51.2564 62.1643 51.5652 61.9693 51.8536C60.7506 53.6777 59.5684 55.4652 58.5284 57.1836C57.3422 59.1255 56.2778 60.9983 55.3231 62.7695C54.7015 63.9395 54.1043 65.0689 53.564 66.1617C53.1131 67.088 52.6825 68.0345 52.2518 68.9648C51.2525 71.1586 50.3668 73.3727 49.5665 75.5989L52.6987 84.9427C53.5112 83.4598 54.3481 81.9852 55.1809 80.4739C55.4043 80.0717 55.6562 79.6573 55.8918 79.2186Z" fill="url(#paint12_linear)"/>
<path d="M49.4407 75.9118C48.4823 78.5819 47.6913 81.309 47.0722 84.0774C47.0722 84.1668 47.0194 84.2724 47.0072 84.3618C45.8741 82.402 44.3766 80.6769 42.5954 79.2796C44.7051 82.9577 45.8314 87.1174 45.8657 91.3574C43.9313 91.2427 42.0585 90.6343 40.426 89.5903C41.5465 91.1328 43.0391 92.3668 44.7647 93.1774C42.2293 93.2893 39.7737 94.0975 37.6675 95.5134C40.2703 94.6412 43.0704 94.5438 45.7275 95.2331C41.4375 103.317 37.05 112.308 32.561 121.875C32.9955 121.816 33.4086 121.65 33.7631 121.392C34.1176 121.134 34.4025 120.792 34.5922 120.396C35.4047 118.666 40.7266 107.291 48.62 92.4787C48.8394 92.0724 49.0791 91.6459 49.3025 91.2031C49.3675 91.0771 49.4244 90.9715 49.4894 90.8496C50.3236 89.3059 51.1862 87.7215 52.0772 86.0965C52.2885 85.7228 52.4835 85.3653 52.6907 84.9915V84.9712L49.5585 75.6274C49.5103 75.7183 49.4709 75.8135 49.4407 75.9118V75.9118Z" fill="url(#paint13_linear)"/>
<path d="M77.1631 46.8974C76.9925 47.1412 76.8462 47.3687 76.6756 47.6124C76.184 48.3518 75.6722 49.0871 75.1765 49.8468C74.6809 50.6065 74.0756 51.5083 73.4987 52.3696C73.2103 52.8002 72.9219 53.2308 72.6294 53.6818C71.7559 55.0183 70.8784 56.3996 69.9725 57.8174C68.8594 59.5683 67.7381 61.3843 66.5803 63.2855C65.4834 65.0852 64.35 66.9662 63.2125 68.8958C62.1319 70.7402 61.0228 72.6293 59.8975 74.5833C58.8981 76.3302 57.8906 78.138 56.8506 79.9905C56.7937 80.0718 56.7572 80.1774 56.7003 80.2627C55.6887 82.0949 54.6447 83.9921 53.5925 85.9502C53.5616 85.9868 53.5394 86.0298 53.5275 86.0762L57.135 86.2021C57.074 86.1696 57.005 86.1615 56.9197 86.1249C62.2763 85.8329 67.4042 83.8582 71.5731 80.4821C73.6423 78.7941 75.5074 76.8703 77.1306 74.7499C78.5456 72.9151 79.8428 70.9924 81.0144 68.9933C82.1194 67.1287 83.2325 65.0852 84.3253 62.859C83.1942 63.2343 82.0177 63.4557 80.8275 63.5171L80.145 63.5537C79.9175 63.5537 79.694 63.5537 79.4462 63.5537C83.3686 62.585 86.7585 60.1249 88.8956 56.6962C87.3042 57.4652 85.5863 57.9387 83.8256 58.0937C83.5494 58.1221 83.2569 58.1221 82.9644 58.1262C82.8994 58.1262 82.8303 58.1262 82.7409 58.1262C84.0776 57.8038 85.3677 57.3124 86.58 56.6637C86.8178 56.5417 87.0484 56.406 87.2706 56.2574C87.62 56.038 87.945 55.7943 88.274 55.5505C88.4812 55.3799 88.6803 55.2255 88.8875 55.0549C89.3663 54.6392 89.8093 54.1839 90.2119 53.694C90.35 53.5355 90.48 53.3974 90.5937 53.2308C90.7644 52.9871 90.9309 52.7637 91.0772 52.5362C91.7881 51.5165 92.3772 50.5862 92.8606 49.7574C93.1003 49.3512 93.3156 48.9693 93.5025 48.6118C93.5675 48.4655 93.6528 48.3396 93.7219 48.2055C93.9169 47.7993 94.1037 47.4499 94.2378 47.133C94.4028 46.7646 94.5479 46.3876 94.6725 46.0037V46.0037C94.513 46.1029 94.3426 46.1833 94.1647 46.2433C92.5104 46.8225 90.7774 47.1458 89.0256 47.2021L92.3406 47.328L89.0256 47.2021C89.0148 47.197 89.003 47.1944 88.9911 47.1944C88.9791 47.1944 88.9673 47.197 88.9565 47.2021C88.7833 47.193 88.6098 47.193 88.4365 47.2021C88.4609 47.2021 88.5056 47.2021 88.53 47.1696L77.1956 46.7633C77.2159 46.8365 77.1875 46.8771 77.1631 46.8974Z" fill="url(#paint14_linear)"/>
<path d="M93.0312 26.2109C91.8125 27.5881 90.48 29.1684 89.0256 30.9397C88.9435 31.0283 88.8688 31.1234 88.8022 31.2241C87.5387 32.7719 86.2103 34.4741 84.7843 36.355C83.5656 37.98 82.2656 39.7025 80.9087 41.5956C79.7225 43.2206 78.524 44.9634 77.2525 46.7997L88.5868 47.2059C91.1899 46.5946 93.5578 45.2362 95.3997 43.2978C95.8506 42.8225 96.3097 42.3066 96.7728 41.7662C98.2229 40.1013 99.5882 38.3644 100.864 36.5622C102.036 34.9264 103.12 33.23 104.114 31.48C104.636 30.5687 105.112 29.6318 105.54 28.6728C105.852 27.9294 106.112 27.2266 106.352 26.54C101.909 26.654 97.4632 26.5442 93.0312 26.2109V26.2109Z" fill="url(#paint15_linear)"/>
<path d="M80.1857 63.5983C79.9582 63.5983 79.7347 63.5983 79.4869 63.5983C79.7197 63.5856 79.9529 63.5856 80.1857 63.5983V63.5983Z" fill="#BE202E"/>
<path opacity="0.35" d="M80.1857 63.5983C79.9582 63.5983 79.7347 63.5983 79.4869 63.5983C79.7197 63.5856 79.9529 63.5856 80.1857 63.5983V63.5983Z" fill="#BE202E"/>
<path d="M80.1857 63.5983C79.9582 63.5983 79.7347 63.5983 79.4869 63.5983C79.7197 63.5856 79.9529 63.5856 80.1857 63.5983V63.5983Z" fill="url(#paint16_linear)"/>
<defs>
<linearGradient id="paint0_linear" x1="22.0577" y1="9.30522" x2="36.2101" y2="-8.64867" gradientUnits="userSpaceOnUse">
<stop stop-color="#F69923"/>
<stop offset="0.312" stop-color="#F79A23"/>
<stop offset="0.838" stop-color="#E97826"/>
</linearGradient>
<linearGradient id="paint1_linear" x1="41.518" y1="117.551" x2="20.9008" y2="13.5679" gradientUnits="userSpaceOnUse">
<stop offset="0.323" stop-color="#9E2064"/>
<stop offset="0.63" stop-color="#C92037"/>
<stop offset="0.751" stop-color="#CD2335"/>
<stop offset="1" stop-color="#E97826"/>
</linearGradient>
<linearGradient id="paint2_linear" x1="49.4792" y1="102.927" x2="37.1934" y2="40.9635" gradientUnits="userSpaceOnUse">
<stop stop-color="#282662"/>
<stop offset="0.095" stop-color="#662E8D"/>
<stop offset="0.788" stop-color="#9F2064"/>
<stop offset="0.949" stop-color="#CD2032"/>
</linearGradient>
<linearGradient id="paint3_linear" x1="-126275" y1="90340.7" x2="-122555" y2="90340.7" gradientUnits="userSpaceOnUse">
<stop offset="0.323" stop-color="#9E2064"/>
<stop offset="0.63" stop-color="#C92037"/>
<stop offset="0.751" stop-color="#CD2335"/>
<stop offset="1" stop-color="#E97826"/>
</linearGradient>
<linearGradient id="paint4_linear" x1="-154215" y1="82776.3" x2="-151823" y2="82776.3" gradientUnits="userSpaceOnUse">
<stop stop-color="#282662"/>
<stop offset="0.095" stop-color="#662E8D"/>
<stop offset="0.788" stop-color="#9F2064"/>
<stop offset="0.949" stop-color="#CD2032"/>
</linearGradient>
<linearGradient id="paint5_linear" x1="-131716" y1="104947" x2="-127836" y2="104947" gradientUnits="userSpaceOnUse">
<stop offset="0.323" stop-color="#9E2064"/>
<stop offset="0.63" stop-color="#C92037"/>
<stop offset="0.751" stop-color="#CD2335"/>
<stop offset="1" stop-color="#E97826"/>
</linearGradient>
<linearGradient id="paint6_linear" x1="-90693.2" y1="63722.2" x2="-88025.9" y2="63722.2" gradientUnits="userSpaceOnUse">
<stop offset="0.323" stop-color="#9E2064"/>
<stop offset="0.63" stop-color="#C92037"/>
<stop offset="0.751" stop-color="#CD2335"/>
<stop offset="1" stop-color="#E97826"/>
</linearGradient>
<linearGradient id="paint7_linear" x1="-3212.83" y1="958.621" x2="-3116.92" y2="958.621" gradientUnits="userSpaceOnUse">
<stop offset="0.323" stop-color="#9E2064"/>
<stop offset="0.63" stop-color="#C92037"/>
<stop offset="0.751" stop-color="#CD2335"/>
<stop offset="1" stop-color="#E97826"/>
</linearGradient>
<linearGradient id="paint8_linear" x1="-1053.34" y1="326.213" x2="-1021.07" y2="326.213" gradientUnits="userSpaceOnUse">
<stop offset="0.323" stop-color="#9E2064"/>
<stop offset="0.63" stop-color="#C92037"/>
<stop offset="0.751" stop-color="#CD2335"/>
<stop offset="1" stop-color="#E97826"/>
</linearGradient>
<linearGradient id="paint9_linear" x1="-10650.8" y1="10762.6" x2="-10548.9" y2="10757" gradientUnits="userSpaceOnUse">
<stop stop-color="#F69923"/>
<stop offset="0.312" stop-color="#F79A23"/>
<stop offset="0.838" stop-color="#E97826"/>
</linearGradient>
<linearGradient id="paint10_linear" x1="-14733.2" y1="11069.9" x2="-14420.7" y2="10596.9" gradientUnits="userSpaceOnUse">
<stop offset="0.323" stop-color="#9E2064"/>
<stop offset="0.63" stop-color="#C92037"/>
<stop offset="0.751" stop-color="#CD2335"/>
<stop offset="1" stop-color="#E97826"/>
</linearGradient>
<linearGradient id="paint11_linear" x1="-14725.6" y1="16036.4" x2="-14503.6" y2="15700.4" gradientUnits="userSpaceOnUse">
<stop stop-color="#282662"/>
<stop offset="0.095" stop-color="#662E8D"/>
<stop offset="0.788" stop-color="#9F2064"/>
<stop offset="0.949" stop-color="#CD2032"/>
</linearGradient>
<linearGradient id="paint12_linear" x1="-24567.1" y1="15319.2" x2="-24126.3" y2="14652" gradientUnits="userSpaceOnUse">
<stop offset="0.323" stop-color="#9E2064"/>
<stop offset="0.63" stop-color="#C92037"/>
<stop offset="0.751" stop-color="#CD2335"/>
<stop offset="1" stop-color="#E97826"/>
</linearGradient>
<linearGradient id="paint13_linear" x1="-19752" y1="9029.66" x2="-19579.3" y2="8768.22" gradientUnits="userSpaceOnUse">
<stop stop-color="#282662"/>
<stop offset="0.095" stop-color="#662E8D"/>
<stop offset="0.788" stop-color="#9F2064"/>
<stop offset="0.949" stop-color="#CD2032"/>
</linearGradient>
<linearGradient id="paint14_linear" x1="-31553.9" y1="30102.6" x2="-30882" y2="29085.8" gradientUnits="userSpaceOnUse">
<stop offset="0.323" stop-color="#9E2064"/>
<stop offset="0.63" stop-color="#C92037"/>
<stop offset="0.751" stop-color="#CD2335"/>
<stop offset="1" stop-color="#E97826"/>
</linearGradient>
<linearGradient id="paint15_linear" x1="-19632.3" y1="21519.9" x2="-19157.1" y2="20800.7" gradientUnits="userSpaceOnUse">
<stop offset="0.323" stop-color="#9E2064"/>
<stop offset="0.63" stop-color="#C92037"/>
<stop offset="0.751" stop-color="#CD2335"/>
<stop offset="1" stop-color="#E97826"/>
</linearGradient>
<linearGradient id="paint16_linear" x1="3066.19" y1="-2498.95" x2="3077.6" y2="-2516.21" gradientUnits="userSpaceOnUse">
<stop offset="0.323" stop-color="#9E2064"/>
<stop offset="0.63" stop-color="#C92037"/>
<stop offset="0.751" stop-color="#CD2335"/>
<stop offset="1" stop-color="#E97826"/>
</linearGradient>
</defs>
</svg>
