<svg width="130" height="130" fill="none" xmlns="http://www.w3.org/2000/svg"><path d="M24.277 10.29a38.75 38.75 0 00-1.625 10.787l5.798 2.807a72.83 72.83 0 01.406-10.323c.02-.236.045-.374.045-.374 0 .126-.037.248-.045.374a64.751 64.751 0 00-.012 10.184 112.857 112.857 0 008.588-8.125 12.352 12.352 0 00-6.472-6.91s-5.135-2.072-6.683 1.58z" fill="url(#paint0_linear)"/><path d="M44.379 54.824c-.273.296-.553.577-.837.857.146-.134.296-.292.434-.439.143-.131.277-.27.403-.418z" fill="#BE202E"/><path opacity=".35" d="M44.379 54.824c-.273.296-.553.577-.837.857.146-.134.296-.292.434-.439.143-.131.277-.27.403-.418z" fill="#BE202E"/><path d="M42.25 50.196c.049-.036.085-.085.13-.122.183-.183.366-.365.52-.552-.203.223-.435.439-.654.674h.004z" fill="#BE202E"/><path opacity=".35" d="M42.25 50.196c.049-.036.085-.085.13-.122.183-.183.366-.365.52-.552-.203.223-.435.439-.654.674h.004z" fill="#BE202E"/><path d="M29.981 40.998c-.27-1.928-.514-3.824-.731-5.687a119.816 119.816 0 01-.532-5.72c0-.114-.02-.228 0-.33a91.955 91.955 0 01-.28-5.382l-5.79-2.79c0 .349-.04.71-.052 1.092a131.365 131.365 0 00-.114 4.408c0 1.747 0 3.567.032 5.472.041 1.755.114 3.583.208 5.444.093 1.592.199 3.2.329 4.842v.187l7.743 3.92c-.256-1.832-.54-3.652-.813-5.456z" fill="url(#paint1_linear)"/><path d="M41.438 86.783c.406 1.446.86 2.937 1.332 4.449v.06c.065.22.118.427.199.638.309 1.02.605 1.926 1.247 3.998a7.828 7.828 0 014.445 1.064 6.35 6.35 0 00-4.23-2.3A13.606 13.606 0 0051.855 82.6a17.61 17.61 0 00-.191-1.325 5.472 5.472 0 01-3.112 4.68 15.299 15.299 0 002.478-9.64 31.432 31.432 0 00-.305-2.515 12.415 12.415 0 01-7.198 10.002l-2.349 2.162c.086.272.159.54.26.82z" fill="url(#paint2_linear)"/><path d="M38.403 80.174c-.492-1.837-.983-3.701-1.483-5.582a357.928 357.928 0 01-1.373-5.468c-.451-1.845-.886-3.701-1.316-5.558a285.59 285.59 0 01-1.252-5.687c-.398-1.893-.771-3.783-1.145-5.66-.134-.682-.256-1.348-.378-2.03-.215-1.163-.406-2.333-.617-3.507 0-.06-.02-.13-.041-.19l-7.699-3.929c.018.122.028.246.029.37.154 1.742.305 3.514.512 5.28a192.5 192.5 0 00.698 5.449c.228 1.544.472 3.075.728 4.623.053.305.113.626.166.926.354 1.913.736 3.762 1.146 5.489.459 1.958.954 3.794 1.45 5.508.333 1.121.662 2.202 1 3.226.292.861.609 1.727.914 2.58a74.493 74.493 0 002.437 5.842l7.78 3.94a567.34 567.34 0 01-1.219-4.359c-.114-.427-.22-.837-.337-1.263z" fill="url(#paint3_linear)"/><path d="M32.285 82.095a60.357 60.357 0 003.579 6.61c.044.064.09.154.134.219a15.698 15.698 0 00-5.931-.46 21.816 21.816 0 019.559 5.57 10.027 10.027 0 01-4.518 2.267 9.994 9.994 0 004.956-.438 12.188 12.188 0 00-3.014 5.878 12.53 12.53 0 014.895-5.184c2.336 7.743 5.148 16.137 8.263 24.944a2.343 2.343 0 00.366-2.198c-.573-1.58-4.282-12.057-8.51-26.276-.123-.406-.228-.813-.362-1.219-.037-.118-.065-.22-.102-.341-.433-1.49-.875-3.022-1.324-4.599-.098-.365-.204-.707-.301-1.076l-7.78-3.94c.023.083.053.164.09.243z" fill="url(#paint4_linear)"/><path d="M31.712 46.621c.045.26.093.492.138.756.15.772.284 1.552.443 2.336.162.857.341 1.73.512 2.628.085.451.17.902.268 1.365.28 1.382.585 2.795.898 4.254.406 1.791.812 3.632 1.263 5.55.406 1.811.886 3.7 1.365 5.622.467 1.832.939 3.709 1.459 5.65.455 1.719.946 3.486 1.442 5.282 0 .085.057.179.073.264.5 1.783 1.024 3.624 1.568 5.496a.28.28 0 00.037.118l2.348-2.161c-.061 0-.106.053-.183.085a22.533 22.533 0 005.72-12.65c.25-2.347.225-4.715-.073-7.057a48.438 48.438 0 00-1.13-6.037 78.625 78.625 0 00-1.726-5.915c-.479.94-1.081 1.81-1.792 2.588l-.406.447c-.134.15-.284.28-.435.439a13.72 13.72 0 001.69-10.185 12.903 12.903 0 01-2.324 4.026c-.154.187-.337.37-.52.553-.048.036-.085.085-.146.133a14.302 14.302 0 001.508-3.306c.071-.227.13-.458.174-.691.081-.353.138-.71.191-1.068.02-.236.057-.455.077-.695a10 10 0 000-1.678c0-.187 0-.353-.044-.528-.045-.26-.078-.504-.126-.74a40.89 40.89 0 00-.606-2.843 24.29 24.29 0 00-.308-1.117c-.05-.134-.074-.264-.122-.407-.126-.37-.228-.71-.342-.995a9.981 9.981 0 00-.426-.983 2.165 2.165 0 01-.17.467 15.227 15.227 0 01-2.641 3.794l2.165-1.978-2.178 1.966a.073.073 0 00-.036.053c-.112.112-.218.23-.317.354 0-.029.037-.053.04-.078L31.648 46.5c.06.053.069.094.065.122z" fill="url(#paint5_linear)"/><path d="M28.844 23.745c.09 1.625.231 3.445.406 5.46.004.107.016.213.037.317.166 1.76.382 3.656.658 5.724.235 1.784.495 3.656.812 5.688.264 1.759.59 3.599.922 5.553l7.394-6.772a12.134 12.134 0 001.857-6.691c0-.581-.045-1.19-.09-1.816a58.181 58.181 0 00-.642-5.817 50.62 50.62 0 00-1.1-5.229 27.756 27.756 0 00-.85-2.653 32.445 32.445 0 00-.812-1.844 116.98 116.98 0 01-8.592 8.08z" fill="url(#paint6_linear)"/><path d="M43.985 55.25c-.134.15-.285.28-.435.439.137-.154.282-.3.435-.439z" fill="#BE202E"/><path opacity=".35" d="M43.985 55.25c-.134.15-.285.28-.435.439.137-.154.282-.3.435-.439z" fill="#BE202E"/><path d="M43.985 55.25c-.134.15-.285.28-.435.439.137-.154.282-.3.435-.439z" fill="url(#paint7_linear)"/><path d="M42.25 50.208c.049-.036.085-.085.146-.134-.049.037-.085.085-.146.134z" fill="#BE202E"/><path opacity=".35" d="M42.25 50.208c.049-.036.085-.085.146-.134-.049.037-.085.085-.146.134z" fill="#BE202E"/><path d="M42.25 50.208c.049-.036.085-.085.146-.134-.049.037-.085.085-.146.134z" fill="url(#paint8_linear)"/><path d="M100.047 11.745a43.836 43.836 0 00-9.86 7.402l2.438 6.865a82.417 82.417 0 018.531-7.983c.207-.17.333-.268.333-.268-.105.098-.227.171-.333.268a73.252 73.252 0 00-8.125 8.178c4.445.33 8.903.428 13.358.293a13.978 13.978 0 00.288-10.721s-2.486-5.745-6.63-4.034z" fill="url(#paint9_linear)"/><path d="M80.844 63.562c-.455.024-.906.024-1.357.024h.699c.22.005.44-.003.658-.024z" fill="#BE202E"/><path opacity=".35" d="M80.844 63.562c-.455.024-.906.024-1.357.024h.699c.22.005.44-.003.658-.024z" fill="#BE202E"/><path d="M82.81 58.15h.203c.293 0 .585 0 .861-.032-.34 0-.698 0-1.06.024l-.004.008z" fill="#BE202E"/><path opacity=".35" d="M82.81 58.15h.203c.293 0 .585 0 .861-.032-.34 0-.698 0-1.06.024l-.004.008z" fill="#BE202E"/><path d="M80.238 40.995a320.226 320.226 0 013.933-5.168 145.581 145.581 0 014.115-5.025c.082-.102.167-.2.244-.28a138.34 138.34 0 014.063-4.538l-2.438-6.846c-.288.272-.597.545-.91.833a142.843 142.843 0 00-3.591 3.457 219.753 219.753 0 00-4.323 4.432 229.972 229.972 0 00-4.156 4.546 258.342 258.342 0 00-3.583 4.16l-.138.159 3.116 9.307c1.239-1.678 2.454-3.376 3.668-5.037z" fill="url(#paint10_linear)"/><path d="M53.068 86.938a384.158 384.158 0 00-2.457 4.64c0 .02-.029.04-.033.06-.122.232-.244.439-.345.67-.56 1.065-1.04 2.032-2.17 4.21a8.856 8.856 0 012.734 4.387 7.183 7.183 0 00-1.576-5.209c6.33 1.22 12.078.407 15.584-3.838.305-.382.61-.789.898-1.22a6.191 6.191 0 01-6.224 1.293 17.306 17.306 0 009.653-5.806 36.359 36.359 0 001.75-2.267A14.04 14.04 0 0157.14 86.19l-3.608-.126c-.154.31-.312.581-.463.874z" fill="url(#paint11_linear)"/><path d="M55.892 79.219c1.064-1.873 2.149-3.762 3.25-5.688a281.672 281.672 0 013.25-5.492c1.117-1.837 2.23-3.681 3.355-5.521a279.565 279.565 0 013.523-5.586c1.194-1.853 2.384-3.657 3.57-5.468.435-.658.866-1.292 1.32-1.946.748-1.105 1.52-2.21 2.288-3.311.033-.061.085-.122.118-.187L73.49 36.74c-.084.113-.175.22-.273.321-1.259 1.528-2.543 3.071-3.794 4.668a187.401 187.401 0 00-3.766 4.944 263.19 263.19 0 00-3.087 4.298c-.2.284-.407.593-.602.882-1.218 1.824-2.4 3.611-3.44 5.33a119.265 119.265 0 00-4.965 8.978c-.45.926-.882 1.872-1.312 2.803a86.873 86.873 0 00-2.686 6.634l3.133 9.344c.812-1.483 1.65-2.958 2.482-4.47.223-.401.475-.816.71-1.254z" fill="url(#paint12_linear)"/><path d="M49.44 75.912a68.277 68.277 0 00-2.368 8.165c0 .09-.053.195-.065.285a17.754 17.754 0 00-4.412-5.082 24.676 24.676 0 013.27 12.077 11.343 11.343 0 01-5.439-1.767 11.302 11.302 0 004.339 3.587c-2.536.112-4.991.92-7.098 2.336a14.17 14.17 0 018.06-.28c-4.29 8.084-8.677 17.075-13.166 26.642a2.649 2.649 0 002.031-1.479c.813-1.73 6.135-13.105 14.028-27.917.22-.407.46-.833.683-1.276.065-.126.121-.231.186-.353a886.523 886.523 0 012.588-4.753c.212-.374.407-.732.614-1.105v-.02l-3.133-9.345c-.048.091-.087.187-.117.285z" fill="url(#paint13_linear)"/><path d="M77.163 46.897c-.17.244-.317.472-.487.715-.492.74-1.004 1.475-1.5 2.235-.495.76-1.1 1.661-1.677 2.523-.289.43-.577.86-.87 1.312-.873 1.336-1.75 2.718-2.657 4.135a334.524 334.524 0 00-3.392 5.468c-1.097 1.8-2.23 3.681-3.367 5.61-1.081 1.845-2.19 3.734-3.316 5.688-.999 1.747-2.006 3.555-3.046 5.407-.057.082-.094.187-.15.273a565.793 565.793 0 00-3.108 5.687.317.317 0 00-.066.126l3.608.126c-.061-.032-.13-.04-.215-.077a25.488 25.488 0 0014.653-5.643 34.321 34.321 0 005.558-5.732 54.792 54.792 0 003.883-5.757 88.693 88.693 0 003.311-6.134 13.28 13.28 0 01-3.498.658l-.682.037h-.699a15.52 15.52 0 009.45-6.858 14.594 14.594 0 01-5.07 1.398c-.277.028-.57.028-.862.032h-.223a16.176 16.176 0 003.839-1.462c.238-.122.468-.258.69-.407.35-.219.675-.463 1.004-.706.207-.171.406-.326.614-.496.478-.416.921-.871 1.324-1.361.138-.159.268-.297.382-.463.17-.244.337-.467.483-.695.711-1.02 1.3-1.95 1.784-2.779.24-.406.455-.788.641-1.145.066-.147.15-.272.22-.407.195-.406.382-.755.516-1.072.165-.368.31-.745.434-1.13-.159.1-.33.18-.507.24-1.655.58-3.388.903-5.14.96l3.316.125-3.315-.126a.08.08 0 00-.07 0 4.956 4.956 0 00-.52 0c.025 0 .07 0 .094-.032l-11.334-.407c.02.074-.008.114-.033.134z" fill="url(#paint14_linear)"/><path d="M93.031 26.21a170.478 170.478 0 00-4.005 4.73 2.22 2.22 0 00-.224.284 182.53 182.53 0 00-4.018 5.131c-1.218 1.625-2.518 3.348-3.875 5.24-1.187 1.626-2.385 3.368-3.657 5.205l11.335.406a13.727 13.727 0 006.813-3.908c.45-.476.91-.991 1.373-1.532a65.872 65.872 0 004.091-5.204 57.398 57.398 0 003.25-5.082 31.37 31.37 0 001.426-2.807 36.86 36.86 0 00.812-2.133c-4.443.114-8.889.004-13.32-.33z" fill="url(#paint15_linear)"/><path d="M80.186 63.598h-.7c.234-.012.467-.012.7 0z" fill="#BE202E"/><path opacity=".35" d="M80.186 63.598h-.7c.234-.012.467-.012.7 0z" fill="#BE202E"/><path d="M80.186 63.598h-.7c.234-.012.467-.012.7 0z" fill="url(#paint16_linear)"/><defs><linearGradient id="paint0_linear" x1="22.058" y1="9.305" x2="36.21" y2="-8.649" gradientUnits="userSpaceOnUse"><stop stop-color="#F69923"/><stop offset=".312" stop-color="#F79A23"/><stop offset=".838" stop-color="#E97826"/></linearGradient><linearGradient id="paint1_linear" x1="41.518" y1="117.551" x2="20.901" y2="13.568" gradientUnits="userSpaceOnUse"><stop offset=".323" stop-color="#9E2064"/><stop offset=".63" stop-color="#C92037"/><stop offset=".751" stop-color="#CD2335"/><stop offset="1" stop-color="#E97826"/></linearGradient><linearGradient id="paint2_linear" x1="49.479" y1="102.927" x2="37.193" y2="40.964" gradientUnits="userSpaceOnUse"><stop stop-color="#282662"/><stop offset=".095" stop-color="#662E8D"/><stop offset=".788" stop-color="#9F2064"/><stop offset=".949" stop-color="#CD2032"/></linearGradient><linearGradient id="paint3_linear" x1="-126275" y1="90340.7" x2="-122555" y2="90340.7" gradientUnits="userSpaceOnUse"><stop offset=".323" stop-color="#9E2064"/><stop offset=".63" stop-color="#C92037"/><stop offset=".751" stop-color="#CD2335"/><stop offset="1" stop-color="#E97826"/></linearGradient><linearGradient id="paint4_linear" x1="-154215" y1="82776.3" x2="-151823" y2="82776.3" gradientUnits="userSpaceOnUse"><stop stop-color="#282662"/><stop offset=".095" stop-color="#662E8D"/><stop offset=".788" stop-color="#9F2064"/><stop offset=".949" stop-color="#CD2032"/></linearGradient><linearGradient id="paint5_linear" x1="-131716" y1="104947" x2="-127836" y2="104947" gradientUnits="userSpaceOnUse"><stop offset=".323" stop-color="#9E2064"/><stop offset=".63" stop-color="#C92037"/><stop offset=".751" stop-color="#CD2335"/><stop offset="1" stop-color="#E97826"/></linearGradient><linearGradient id="paint6_linear" x1="-90693.2" y1="63722.2" x2="-88025.9" y2="63722.2" gradientUnits="userSpaceOnUse"><stop offset=".323" stop-color="#9E2064"/><stop offset=".63" stop-color="#C92037"/><stop offset=".751" stop-color="#CD2335"/><stop offset="1" stop-color="#E97826"/></linearGradient><linearGradient id="paint7_linear" x1="-3212.83" y1="958.621" x2="-3116.92" y2="958.621" gradientUnits="userSpaceOnUse"><stop offset=".323" stop-color="#9E2064"/><stop offset=".63" stop-color="#C92037"/><stop offset=".751" stop-color="#CD2335"/><stop offset="1" stop-color="#E97826"/></linearGradient><linearGradient id="paint8_linear" x1="-1053.34" y1="326.213" x2="-1021.07" y2="326.213" gradientUnits="userSpaceOnUse"><stop offset=".323" stop-color="#9E2064"/><stop offset=".63" stop-color="#C92037"/><stop offset=".751" stop-color="#CD2335"/><stop offset="1" stop-color="#E97826"/></linearGradient><linearGradient id="paint9_linear" x1="-10650.8" y1="10762.6" x2="-10548.9" y2="10757" gradientUnits="userSpaceOnUse"><stop stop-color="#F69923"/><stop offset=".312" stop-color="#F79A23"/><stop offset=".838" stop-color="#E97826"/></linearGradient><linearGradient id="paint10_linear" x1="-14733.2" y1="11069.9" x2="-14420.7" y2="10596.9" gradientUnits="userSpaceOnUse"><stop offset=".323" stop-color="#9E2064"/><stop offset=".63" stop-color="#C92037"/><stop offset=".751" stop-color="#CD2335"/><stop offset="1" stop-color="#E97826"/></linearGradient><linearGradient id="paint11_linear" x1="-14725.6" y1="16036.4" x2="-14503.6" y2="15700.4" gradientUnits="userSpaceOnUse"><stop stop-color="#282662"/><stop offset=".095" stop-color="#662E8D"/><stop offset=".788" stop-color="#9F2064"/><stop offset=".949" stop-color="#CD2032"/></linearGradient><linearGradient id="paint12_linear" x1="-24567.1" y1="15319.2" x2="-24126.3" y2="14652" gradientUnits="userSpaceOnUse"><stop offset=".323" stop-color="#9E2064"/><stop offset=".63" stop-color="#C92037"/><stop offset=".751" stop-color="#CD2335"/><stop offset="1" stop-color="#E97826"/></linearGradient><linearGradient id="paint13_linear" x1="-19752" y1="9029.66" x2="-19579.3" y2="8768.22" gradientUnits="userSpaceOnUse"><stop stop-color="#282662"/><stop offset=".095" stop-color="#662E8D"/><stop offset=".788" stop-color="#9F2064"/><stop offset=".949" stop-color="#CD2032"/></linearGradient><linearGradient id="paint14_linear" x1="-31553.9" y1="30102.6" x2="-30882" y2="29085.8" gradientUnits="userSpaceOnUse"><stop offset=".323" stop-color="#9E2064"/><stop offset=".63" stop-color="#C92037"/><stop offset=".751" stop-color="#CD2335"/><stop offset="1" stop-color="#E97826"/></linearGradient><linearGradient id="paint15_linear" x1="-19632.3" y1="21519.9" x2="-19157.1" y2="20800.7" gradientUnits="userSpaceOnUse"><stop offset=".323" stop-color="#9E2064"/><stop offset=".63" stop-color="#C92037"/><stop offset=".751" stop-color="#CD2335"/><stop offset="1" stop-color="#E97826"/></linearGradient><linearGradient id="paint16_linear" x1="3066.19" y1="-2498.95" x2="3077.6" y2="-2516.21" gradientUnits="userSpaceOnUse"><stop offset=".323" stop-color="#9E2064"/><stop offset=".63" stop-color="#C92037"/><stop offset=".751" stop-color="#CD2335"/><stop offset="1" stop-color="#E97826"/></linearGradient></defs></svg>