<svg width="130" height="130" fill="none" xmlns="http://www.w3.org/2000/svg"><path d="M65 10.021c-1.462 0-2.98.38-4.225 1.084l-40.3 23.291a8.551 8.551 0 00-4.225 7.367v46.475a8.551 8.551 0 004.225 7.367l10.563 6.066c5.145 2.492 6.879 2.546 9.262 2.546 7.583 0 11.97-4.604 11.97-12.62v-45.88c0-.65-.54-1.192-1.19-1.192h-5.038c-.705 0-1.246.542-1.246 1.192v45.88c0 3.574-3.684 7.095-9.588 4.116l-11.104-6.338a1.413 1.413 0 01-.596-1.137V41.763c0-.488.217-.92.596-1.138l40.3-23.237c.325-.217.867-.217 1.192 0l40.3 23.237c.379.217.596.65.596 1.138v46.475c0 .433-.217.867-.596 1.137l-40.3 23.238c-.325.217-.867.217-1.246 0l-10.183-6.175c-.434-.163-.867-.217-1.138-.054-2.87 1.625-3.412 1.95-6.067 2.762-.65.217-1.679.596.38 1.734l13.433 7.962A8.244 8.244 0 0065 119.98c1.517 0 2.925-.38 4.225-1.138l40.3-23.237a8.551 8.551 0 004.225-7.367V41.763a8.551 8.551 0 00-4.225-7.367l-40.3-23.291C67.979 10.4 66.517 10.02 65 10.02zm10.833 33.313c-11.483 0-18.362 4.82-18.362 12.946 0 8.72 6.825 11.266 17.875 12.35 13.162 1.3 14.191 3.25 14.191 5.85 0 4.495-3.629 6.391-12.079 6.391-10.725 0-13-2.654-13.812-7.962a1.222 1.222 0 00-1.192-.975h-5.2c-.65 0-1.137.487-1.137 1.191 0 6.717 3.683 14.842 21.341 14.842 12.73 0 20.042-5.037 20.042-13.812 0-8.721-5.85-10.996-18.254-12.675-12.513-1.625-13.758-2.492-13.758-5.417 0-2.438 1.083-5.688 10.345-5.688 8.125 0 11.321 1.788 12.567 7.367.108.542.596.92 1.137.92h5.255c.27 0 .596-.107.812-.378.217-.217.38-.542.271-.867-.758-9.642-7.15-14.083-20.042-14.083z" fill="#8BC34A"/></svg>