<svg width="130" height="130" fill="none" xmlns="http://www.w3.org/2000/svg"><path d="M16.25 16.25h97.5v97.5h-97.5v-97.5zm25.62 81.467c2.168 4.604 6.447 8.395 13.76 8.395 8.124 0 13.703-4.333 13.703-13.812V60.992h-9.208v31.091c0 4.659-1.896 5.85-4.875 5.85-3.142 0-4.442-2.166-5.904-4.712l-7.475 4.496zm32.393-.975c2.708 5.308 8.179 9.37 16.737 9.37 8.667 0 15.167-4.495 15.167-12.783 0-7.637-4.388-11.05-12.188-14.408l-2.275-.975c-3.954-1.68-5.633-2.817-5.633-5.525 0-2.221 1.679-3.954 4.387-3.954 2.6 0 4.334 1.137 5.904 3.954l7.096-4.713c-2.979-5.2-7.204-7.204-13-7.204-8.179 0-13.433 5.2-13.433 12.08 0 7.474 4.387 10.995 10.996 13.812l2.275.975c4.225 1.842 6.716 2.979 6.716 6.12 0 2.6-2.437 4.496-6.229 4.496-4.496 0-7.096-2.329-9.046-5.579l-7.474 4.334z" fill="#FFCA28"/></svg>