<svg width="130" height="130" fill="none" xmlns="http://www.w3.org/2000/svg"><path fill-rule="evenodd" clip-rule="evenodd" d="M65.125 1.43L5.72 22.05l8.505 78.812 50.9 27.727V1.43z" fill="#412846"/><path fill-rule="evenodd" clip-rule="evenodd" d="M64.87 1.43l59.405 20.62-8.504 78.812-50.901 27.727V1.43z" fill="#4B314F"/><path fill-rule="evenodd" clip-rule="evenodd" d="M94.607 44.943l-.01-.034c2.712 3.019 4.105 6.604 4.18 10.754.073 4.15-1.32 8.53-4.213 13.122 2.162-1.68 4.659-5.308 7.482-10.841 1.22 11.213-3.312 19.73-13.636 25.563 3.296-.304 7.673-2.475 13.101-6.519-5.793 13.946-16.443 21.304-31.952 22.074-14.988-.004-24.697-9.01-24.69-9.005-6.162-4.796-10.401-10.84-12.704-18.107-3.686-4.025-3.723-4.456-4.103-6.065-.38-1.608.24-2.057 1.32-3.63.72-1.05.89-2.56.52-4.501-.918-1.273-1.446-3.266-1.585-5.979 0-1.311.875-2.694 2.625-4.15 1.75-1.456 2.824-2.575 3.213-3.346.296-.42.41-2.242.343-5.465-.018-3.166 1.74-4.889 5.274-5.167 5.3-.419 8.29-4.405 9.955-6.218 1.11-1.209 2.753-1.796 4.826-1.808 2.917-.136 5.572.982 7.859 3.29 5.696-.295 11.53 1.241 17.442 4.57 8.401 4.99 12.986 10.394 13.755 16.185-.9 7.622-11.138 7.422-30.668-.6-10.22 2.896-15.245 9.169-15.078 18.82-.007 8.857 4.28 15.293 12.83 19.301-4.168-4.091-5.943-7.53-5.345-10.378C64.016 87.074 73.89 90.91 84.953 88.32c-4.878.17-8.74-1.399-11.648-4.731 7.477-.182 14.536-3.653 21.183-10.448-3.837 3.053-7.852 4.209-12.103 3.482 11.513-9.052 15.587-19.612 12.222-31.68zM73.71 43.55a1.69 1.69 0 100-3.38 1.69 1.69 0 000 3.38z" fill="#BA2BD2"/></svg>