<svg width="130" height="130" fill="none" xmlns="http://www.w3.org/2000/svg"><path fill-rule="evenodd" clip-rule="evenodd" d="M118.04 118.04H11.96V11.96h106.08v106.08zM17.16 17.16v95.68h95.68V17.16H17.16z" fill="#0288D1"/><path fill-rule="evenodd" clip-rule="evenodd" d="M90.948 61.841c-.61-.002-1.17.014-1.59.053-3.274.285-6.332 1.715-8.425 3.94-1.05 1.115-1.999 2.713-2.463 4.144-.512 1.577-.508 1.547-.505 4.017.002 3.156.163 3.938 1.236 6.037 1.08 2.11 2.725 3.835 5.099 5.343 1.04.661 3.703 1.99 5.879 2.932 4.734 2.05 6.232 2.997 6.927 4.377l.287.57v1.192c0 1.151-.004 1.21-.239 1.685-.534 1.099-1.794 1.998-3.409 2.432-.61.164-.89.188-2.254.188-1.335 0-1.66-.027-2.272-.18-1.068-.27-1.969-.644-2.673-1.11-.861-.571-2.556-2.282-3.245-3.277-.304-.44-.61-.8-.678-.8-.114 0-5.956 3.34-6.976 3.988-.344.219-.43.318-.43.493 0 .363 1.364 2.427 2.434 3.68 2.178 2.553 6.547 4.805 10.417 5.369 1.53.222 4.07.294 5.846.164a17.152 17.152 0 003.602-.677c4.571-1.341 7.69-4.189 8.845-8.08.472-1.586.662-3.538.507-5.184-.32-3.379-1.358-5.767-3.408-7.836-1.903-1.921-4.517-3.469-9.674-5.73-4.472-1.96-5.64-2.722-6.284-4.1-.556-1.189-.45-2.825.25-3.842.819-1.19 2.49-1.778 4.355-1.532 1.734.23 2.855.917 3.954 2.422.57.781.966 1.189 1.156 1.189.187 0 .993-.498 3.497-2.16 2.548-1.692 3.35-2.266 3.405-2.439.085-.268-.315-.896-1.483-2.33-2.346-2.876-5.104-4.404-8.645-4.787a31.495 31.495 0 00-3.042-.15l-.001-.001zm-28.171.488c-2.102-.001-4.503 0-7.172.003-13.836.013-17.048.036-17.135.126-.084.084-.106.932-.106 4.099v3.992l6.293.023 6.292.023.001 17.81c0 9.797.023 17.895.053 17.996l.048.185h4.573c4.094 0 4.577-.009 4.622-.13.027-.071.047-8.169.047-17.995V70.596l6.293-.023 6.292-.023v-4.04c0-3.503-.014-4.052-.123-4.12-.058-.036-3.673-.058-9.98-.061h.002z" fill="#0288D1"/></svg>