<svg width="130" height="130" fill="none" xmlns="http://www.w3.org/2000/svg"><path d="M104.953 86.602l-41.754 24.107-41.753-24.107V38.388L63.2 14.282l41.753 24.107v48.213z" fill="#fff" fill-opacity=".785"/><path d="M66.55 10.72c-1.138 0-2.223.324-3.09.974L20.666 35.741a5.374 5.374 0 00-2.867 4.772v48.75a5.374 5.374 0 002.867 4.771l42.794 24.047c.867.65 1.952.974 3.09.974 1.137 0 2.222-.324 3.088-.974l42.794-24.047a5.372 5.372 0 002.867-4.771v-48.75a5.372 5.372 0 00-2.867-4.772L69.638 11.694c-.866-.65-1.951-.973-3.089-.973zm0 11.649l37.916 21.339v11.394h-.085v28.046h.085v2.92l-37.917 21.338-37.917-21.339v-42.36L66.55 22.37zm0 11.267l-26.545 15.33 26.544 15.33 26.544-15.33-26.544-15.33zM39.465 61.153v19.392L61.132 93.05V73.658L39.466 61.153zm54.166 0L71.966 73.658V93.05l21.666-12.505V61.153z" fill="#8ED6FB"/><path d="M66.55 33.636l-26.545 15.33 26.544 15.33 26.544-15.33-26.544-15.33zM39.465 61.153v19.392L61.132 93.05V73.658L39.466 61.153zm54.166 0L71.966 73.658V93.05l21.666-12.505V61.153z" fill="#1C78C0"/></svg>