<svg width="512" height="512" viewBox="0 0 512 512" fill="none" xmlns="http://www.w3.org/2000/svg">
<path d="M420 396V156H92V396H420ZM420 76C430.874 76 441.302 80.2143 448.991 87.7157C456.68 95.2172 461 105.391 461 116V396C461 406.609 456.68 416.783 448.991 424.284C441.302 431.786 430.874 436 420 436H92C81.1261 436 70.6976 431.786 63.0086 424.284C55.3196 416.783 51 406.609 51 396V116C51 93.8 69.45 76 92 76H420ZM276.5 356V316H379V356H276.5ZM206.39 276L124.185 196H182.2L249.85 262C257.845 269.8 257.845 282.6 249.85 290.4L182.61 356H124.595L206.39 276Z" fill="#215968"/>
</svg>
