<svg width="512" height="512" viewBox="0 0 512 512" fill="none" xmlns="http://www.w3.org/2000/svg">
<path d="M400 372.667V172.667H112V372.667H400ZM400 106C409.548 106 418.705 109.512 425.456 115.763C432.207 122.014 436 130.493 436 139.333V372.667C436 381.507 432.207 389.986 425.456 396.237C418.705 402.488 409.548 406 400 406H112C102.452 406 93.2955 402.488 86.5442 396.237C79.7928 389.986 76 381.507 76 372.667V139.333C76 120.833 92.2 106 112 106H400ZM274 339.333V306H364V339.333H274ZM212.44 272.667L140.26 206H191.2L250.6 261C257.62 267.5 257.62 278.167 250.6 284.667L191.56 339.333H140.62L212.44 272.667Z" fill="#215968"/>
</svg>
