<svg width="130" height="130" fill="none" xmlns="http://www.w3.org/2000/svg"><circle cx="65" cy="65" r="65" fill="#215968"/><path d="M81.504 127.461l-1.32-3.047h2.64l-1.32 3.047z" fill="#fff"/><path d="M81.74 126.551c.089-.792 1.091-1.079 1.586-.455a.891.891 0 11-1.585.455zM48.75 126.953l-1.32-3.047h2.64l-1.32 3.047z" fill="#fff"/><path d="M47.04 126.181c.494-.624 1.496-.337 1.584.455a.892.892 0 11-1.585-.455z" fill="#fff"/><ellipse cx="43.291" cy="106.895" rx="13.33" ry="5.84" fill="#fff"/><ellipse cx="32.568" cy="103.949" rx="8.268" ry="4.241" transform="rotate(61 32.568 103.949)" fill="#fff"/><ellipse cx="23.638" cy="95.21" rx="7.287" ry="3.174" transform="rotate(30 23.638 95.21)" fill="#fff"/><ellipse cx="75.791" cy="63.857" rx="31.357" ry="30.088" fill="#fff"/><ellipse cx="53.955" cy="63.857" rx="31.357" ry="30.088" fill="#fff"/><ellipse cx="64.873" cy="63.603" rx="42.275" ry="31.611" fill="#fff"/><path d="M30.539 27.57a1 1 0 011.106-.747l2.218.307c.909.126 1.182 1.307.422 1.82l-2.763 1.864c-.761.513-1.753-.184-1.53-1.073l.547-2.171z" fill="#fff"/><ellipse cx="40.032" cy="32.214" rx="10.15" ry="3.174" transform="rotate(25 40.032 32.214)" fill="#fff"/><ellipse cx="32.161" cy="37.292" rx="10.15" ry="3.174" transform="rotate(-91 32.161 37.292)" fill="#fff"/><ellipse cx="37.959" cy="36.816" rx="4.443" ry="4.824" fill="#fff"/><path d="M98.749 26.698a1 1 0 011.107.747l.546 2.17c.224.89-.769 1.587-1.53 1.074l-2.763-1.864c-.76-.513-.486-1.694.423-1.82l2.217-.307z" fill="#fff"/><ellipse cx="98" cy="37.24" rx="10.15" ry="3.174" transform="rotate(93 98 37.24)" fill="#fff"/><ellipse cx="90.343" cy="31.845" rx="10.15" ry="3.174" transform="rotate(-23 90.343 31.845)" fill="#fff"/><ellipse cx="92.955" cy="37.042" rx="4.443" ry="4.824" transform="rotate(68 92.955 37.042)" fill="#fff"/><ellipse cx="64.873" cy="102.832" rx="16.377" ry="13.711" fill="#fff"/><path fill="#fff" d="M48.75 102.832h32.5v24.883h-32.5z"/><path d="M48.096 127.763a65.004 65.004 0 0033.917-.029L65 65l-16.904 62.763z" fill="#fff"/><ellipse cx="83.408" cy="125.074" rx="2.158" ry="2.184" fill="#215968"/><path fill="#215968" d="M81.25 123.652h1.016v1.523H81.25z"/><ellipse cx="46.592" cy="125.074" rx="2.158" ry="2.184" fill="#215968"/><path fill="#215968" d="M47.734 123.652h1.016v1.523h-1.016zM48.758 103.011c-1.176.718-2.786 1.23-4.594 1.461a17.211 17.211 0 01-5.448-.177c-1.731-.346-3.192-.958-4.168-1.746s-1.415-1.71-1.254-2.63l8.69.374 6.774 2.718z"/><path fill="#fff" d="M23.105 97.5h4.57v5.586h-4.57z"/><ellipse cx="21.822" cy="100.933" rx="4.208" ry="8.871" transform="rotate(-36 21.822 100.933)" fill="#215968"/><path fill="#215968" d="M42.402 99.277h6.348v3.809h-6.348z"/><ellipse cx="34.573" cy="100.171" rx="2.021" ry="3.682" transform="rotate(-49 34.573 100.171)" fill="#215968"/><ellipse cx="33.811" cy="99.409" rx="2.021" ry="3.682" transform="rotate(-49 33.811 99.41)" fill="#215968"/><path d="M27.387 93.926c.159-.285.382-.492.655-.605.273-.114.588-.132.924-.053.335.078.684.252 1.02.508.336.256.651.59.925.975.273.386.498.816.658 1.26.16.444.25.89.267 1.309.016.418-.043.798-.173 1.113-.13.314-.329.557-.582.709l-1.601-2.87-2.093-2.346zM17.963 93.493c-.008.117-.068.23-.178.269a.47.47 0 01-.28.02c-.133-.034-.244-.138-.324-.304a1.657 1.657 0 01-.134-.649c-.009-.261.02-.555.084-.857a4.56 4.56 0 01.283-.885c.123-.28.268-.528.425-.725.156-.198.319-.34.475-.414l.006-.003c.227-.106.36.163.278.4l-.12.348c-.038.11-.178.165-.282.214a.704.704 0 00-.235.205c-.076.097-.148.22-.209.358-.06.137-.108.287-.14.436-.031.149-.045.294-.041.423a.816.816 0 00.066.32c.04.082.094.133.16.15.092.024.21.085.203.18l-.037.514z" fill="#215968"/><ellipse cx="18.487" cy="94.317" rx="3.614" ry="1.149" transform="rotate(25 18.487 94.317)" fill="#215968"/></svg>