<svg width="130" height="130" fill="none" xmlns="http://www.w3.org/2000/svg"><circle cx="65" cy="65" r="65" fill="#215968"/><path fill="#fff" d="M32.246 50.02h15.742v46.973H32.246zM88.359 67.285h15.488v29.707H88.359z"/><path d="M103.464 69.956c.467-2.199.49-4.47.067-6.682a17.101 17.101 0 00-2.533-6.216 17.407 17.407 0 00-4.747-4.802 17.633 17.633 0 00-13.019-2.767 17.412 17.412 0 00-6.29 2.456 17.103 17.103 0 00-4.841 4.648 16.882 16.882 0 00-2.657 6.132l17.01 3.615 17.01 3.616z" fill="#fff"/><path fill="#fff" d="M68.047 62.969h26.914v8.125H68.047z"/><ellipse cx="79.855" cy="71.181" rx="8.409" ry="10.089" transform="rotate(14 79.855 71.18)" fill="#215968"/><path fill="#fff" d="M56.367 50.273h15.742v46.719H56.367z"/><ellipse cx="40.117" cy="35.801" rx="8.887" ry="8.379" fill="#fff"/></svg>