<svg width="130" height="130" viewBox="0 0 130 130" fill="none" xmlns="http://www.w3.org/2000/svg">
<circle cx="65" cy="65" r="65" fill="#215968"/>
<rect x="32.2461" y="50.0195" width="15.7422" height="46.9727" fill="white"/>
<rect x="88.3594" y="67.2852" width="15.4883" height="29.707" fill="white"/>
<path d="M103.464 69.9559C103.931 67.7572 103.954 65.4866 103.531 63.2736C103.108 61.0606 102.247 58.9486 100.998 57.0582C99.7492 55.1678 98.1362 53.536 96.2513 52.2559C94.3664 50.9759 92.2465 50.0727 90.0128 49.5979C87.779 49.1231 85.475 49.086 83.2325 49.4887C80.9899 49.8914 78.8526 50.7261 76.9426 51.945C75.0327 53.164 73.3874 54.7433 72.1008 56.5929C70.8142 58.4425 69.9115 60.5261 69.4442 62.7248L86.454 66.3403L103.464 69.9559Z" fill="white"/>
<rect x="68.0469" y="62.9688" width="26.9141" height="8.125" fill="white"/>
<ellipse cx="79.8547" cy="71.1808" rx="8.40895" ry="10.0889" transform="rotate(14 79.8547 71.1808)" fill="#215968"/>
<rect x="56.3672" y="50.2734" width="15.7422" height="46.7188" fill="white"/>
<ellipse cx="40.1172" cy="35.8008" rx="8.88672" ry="8.37891" fill="white"/>
</svg>
