<svg width="100" height="130" viewBox="0 0 100 130" fill="none" xmlns="http://www.w3.org/2000/svg">
<line x1="38" y1="127.969" x2="38" y2="0.253395" stroke="#848484" stroke-width="15"/>
<rect x="2" y="2" width="42" height="126" rx="1" fill="#B4B4B4"/>
<rect x="77.5" y="2.28516" width="20" height="125.684" fill="#E4E4E4"/>
<path d="M45.5 2H73C78.5228 2 83 6.47715 83 12V118C83 123.523 78.5228 128 73 128H45.5V2Z" fill="white"/>
<path fill-rule="evenodd" clip-rule="evenodd" d="M100 122C100 126.418 96.4183 130 92 130H8C3.58172 130 0 126.418 0 122V8C0 3.58172 3.58172 0 8 0H92C96.4183 0 100 3.58172 100 8V122ZM97.4684 10.8889C97.4684 6.47061 93.8866 2.88889 89.4684 2.88889H10.5316C6.11337 2.88889 2.53165 6.47061 2.53165 10.8889V119.111C2.53165 123.529 6.11337 127.111 10.5316 127.111H89.4684C93.8866 127.111 97.4684 123.529 97.4684 119.111V10.8889Z" fill="#848484"/>
<ellipse cx="22.625" cy="29.3262" rx="14.875" ry="15.1074" fill="#848484"/>
<ellipse cx="22.5" cy="29.4531" rx="11" ry="11.1719" fill="white"/>
<rect x="15" y="36.8164" width="14.5" height="5.58594" fill="#B4B4B4"/>
<ellipse cx="22.25" cy="26.5332" rx="4.25" ry="4.18945" fill="#B4B4B4"/>
<ellipse cx="22.25" cy="36.9434" rx="7.25" ry="5.20508" fill="#B4B4B4"/>
<path d="M22.2 20.3125L24.6898 23.3594H19.7102L22.2 20.3125Z" fill="#B4B4B4"/>
<path d="M32.2418 40.8518C29.3178 43.3683 25.5502 44.6415 21.7245 44.4059C17.8988 44.1702 14.3103 42.4439 11.7072 39.5869L14.4111 37.0457C16.3695 39.1952 19.0693 40.494 21.9475 40.6713C24.8257 40.8486 27.6603 39.8907 29.8601 37.9974L32.2418 40.8518Z" fill="#848484"/>
<rect x="7.5" y="58.6523" width="30" height="13.7109" rx="3" fill="#848484"/>
<rect x="11.25" y="62.4609" width="22.5" height="6.34766" fill="#E4E4E4"/>
<rect x="7.5" y="99.0234" width="30" height="13.7109" rx="3" fill="#848484"/>
<rect x="11.25" y="102.832" width="22.5" height="6.34766" fill="#E4E4E4"/>
<rect x="7.5" y="78.9648" width="30" height="13.7109" rx="3" fill="#848484"/>
<rect x="11.25" y="82.7734" width="22.5" height="6.09375" fill="#E4E4E4"/>
<path d="M13.5 86.8359C13.9925 86.8359 14.4801 86.9377 14.9351 87.1355C15.39 87.3333 15.8034 87.6232 16.1517 87.9886C16.4999 88.3541 16.7761 88.7879 16.9645 89.2654C17.153 89.7429 17.25 90.2547 17.25 90.7715C17.25 91.2883 17.153 91.8001 16.9645 92.2776C16.7761 92.755 16.4999 93.1889 16.1517 93.5543C15.8034 93.9198 15.39 94.2097 14.9351 94.4075C14.4801 94.6052 13.9925 94.707 13.5 94.707L13.5 92.6967C13.7409 92.6967 13.9795 92.6469 14.202 92.5502C14.4246 92.4534 14.6268 92.3116 14.7972 92.1328C14.9675 91.9541 15.1027 91.7418 15.1948 91.5082C15.287 91.2747 15.3345 91.0243 15.3345 90.7715C15.3345 90.5187 15.287 90.2683 15.1948 90.0347C15.1027 89.8011 14.9675 89.5889 14.7972 89.4101C14.6268 89.2313 14.4246 89.0895 14.202 88.9928C13.9795 88.896 13.7409 88.8462 13.5 88.8462V86.8359Z" fill="#E4E4E4"/>
<path d="M17.25 90.7715C17.25 91.7888 16.8746 92.7667 16.2026 93.4998C15.5305 94.233 14.6141 94.6646 13.6454 94.7041L13.5711 92.6953C14.045 92.676 14.4933 92.4649 14.8221 92.1062C15.1509 91.7475 15.3345 91.2692 15.3345 90.7715L17.25 90.7715Z" fill="#B4B4B4"/>
<path d="M22.5 94.707C22.0075 94.707 21.5199 94.6052 21.0649 94.4075C20.61 94.2097 20.1966 93.9198 19.8483 93.5543C19.5001 93.1889 19.2239 92.755 19.0355 92.2776C18.847 91.8001 18.75 91.2883 18.75 90.7715C18.75 90.2547 18.847 89.7429 19.0355 89.2654C19.2239 88.7879 19.5001 88.3541 19.8483 87.9886C20.1966 87.6232 20.61 87.3333 21.0649 87.1355C21.5199 86.9377 22.0075 86.8359 22.5 86.8359L22.5 88.8462C22.2591 88.8462 22.0205 88.896 21.798 88.9928C21.5754 89.0895 21.3732 89.2313 21.2028 89.4101C21.0325 89.5889 20.8973 89.8011 20.8052 90.0347C20.713 90.2683 20.6655 90.5187 20.6655 90.7715C20.6655 91.0243 20.713 91.2747 20.8052 91.5082C20.8973 91.7418 21.0325 91.9541 21.2028 92.1328C21.3732 92.3116 21.5754 92.4534 21.798 92.5502C22.0205 92.6469 22.2591 92.6967 22.5 92.6967V94.707Z" fill="#E4E4E4"/>
<path d="M22.5 94.707C22.0075 94.707 21.5199 94.6052 21.0649 94.4075C20.61 94.2097 20.1966 93.9198 19.8483 93.5543C19.5001 93.1889 19.2239 92.755 19.0355 92.2776C18.847 91.8001 18.75 91.2883 18.75 90.7715L20.6655 90.7715C20.6655 91.0243 20.713 91.2747 20.8052 91.5082C20.8973 91.7418 21.0325 91.9541 21.2028 92.1328C21.3732 92.3116 21.5754 92.4534 21.798 92.5502C22.0205 92.6469 22.2591 92.6967 22.5 92.6967V94.707Z" fill="#B4B4B4"/>
<rect x="16" y="87.8516" width="3.5" height="4.82422" fill="#E4E4E4"/>
<rect x="11.5" y="92.6758" width="13" height="3.04688" fill="#B4B4B4"/>
<rect x="15.75" y="90.7715" width="4.5" height="3.30078" fill="#B4B4B4"/>
<path d="M69.7209 33.5628C70.6429 34.1599 70.95 35.3951 70.2217 36.2175C69.3131 37.2435 68.2031 38.0593 66.9608 38.6025C65.1316 39.4023 63.1097 39.57 61.1847 39.0814C59.2598 38.5929 57.5307 37.4733 56.2452 35.883C54.9597 34.2927 54.1839 32.3134 54.0288 30.2287C53.8737 28.1441 54.3474 26.0611 55.382 24.2782C56.4166 22.4954 57.959 21.1043 59.7881 20.3042C61.6172 19.5042 63.6391 19.3362 65.5641 19.8245C66.8645 20.1544 68.0755 20.7722 69.1209 21.6286C69.9741 22.3277 69.8626 23.6009 69.0435 24.3398V24.3398C68.1594 25.1373 66.791 24.9767 65.7363 24.4242C65.3813 24.2382 65.0057 24.0937 64.6159 23.9948C63.5247 23.718 62.3785 23.8132 61.3416 24.2668C60.3048 24.7203 59.4304 25.5089 58.8439 26.5196C58.2574 27.5302 57.9889 28.711 58.0768 29.8928C58.1647 31.0745 58.6045 32.1966 59.3332 33.0981C60.062 33.9996 61.0422 34.6343 62.1334 34.9112C63.2246 35.1882 64.3708 35.0931 65.4077 34.6398C65.7925 34.4715 66.1549 34.2571 66.4885 34.0024C67.4239 33.2882 68.733 32.9231 69.7209 33.5628V33.5628Z" fill="#848484"/>
<rect width="3.8703" height="19.8733" rx="1.93515" transform="matrix(0.943944 -0.330105 0.321079 0.947052 74.411 20.7614)" fill="#848484"/>
<rect width="3.86966" height="19.8765" rx="1.93483" transform="matrix(-0.949629 -0.313374 0.304707 -0.952446 83.7373 39.6052)" fill="#848484"/>
<rect x="51.75" y="50.2734" width="38.75" height="3.80859" rx="1.9043" fill="#848484"/>
<rect x="51.75" y="61.9531" width="38.75" height="3.80859" rx="1.9043" fill="#848484"/>
<rect x="51.75" y="85.3125" width="38.75" height="3.80859" rx="1.9043" fill="#848484"/>
<rect x="51.75" y="96.9922" width="38.75" height="3.80859" rx="1.9043" fill="#848484"/>
<rect x="51.75" y="108.926" width="21.25" height="3.80859" rx="1.9043" fill="#848484"/>
<rect x="51.75" y="73.6328" width="21.25" height="3.80859" rx="1.9043" fill="#848484"/>
</svg>
