<svg width="130" height="130" fill="none" xmlns="http://www.w3.org/2000/svg"><path d="M98.746 60.72c-.163-.866-2.546-3.845-7.15-8.937-.109-1.029 1.57-2.437 4.875-4.333l9.425-8.396c2.112-2.708 3.358-6.933 3.737-12.892l-.108-1.408c-.379-4.225-3.412-7.583-9.154-10.237-3.413-2.275-9.533-3.521-18.308-3.684-7.313.596-16.846 3.196-28.6 7.746-3.25 2.33-6.934 4.658-11.05 6.933l.054.759 1.137-.434c.434-.054.704.163.758.596l.705-.379.379-.054.054.325c0 .38-2.546 2.383-9.533 7.312l-.325.65c-1.68.109-3.305 1.355-4.93 3.63l.434.65 1.354-.488.975 1.3c1.733-1.787 3.575-3.358 5.58-4.712 1.028.27 1.57.595 2.383.866 5.524-4.062 10.995-7.041 16.466-8.883l.054.758c-1.083 1.463-1.733 2.275-2.058 2.275l.542 1.246c.054 1.03-13.813 37.917-36.075 78.217l.433 1.029c1.896-.433 3.142-.921 4.063-1.408l.054.704 2.166-.163-3.629 9.534.758.325c3.088-3.467 5.417-6.988 7.042-10.184 9.046-2.654 15.925-5.254 20.692-7.8 4.767-.433 8.45-1.679 10.942-3.791l4.983-2.546c6.879-5.309 12.025-9.046 15.546-11.267C90.62 78.271 95.333 73.125 97.5 68.142l1.246-7.421zM80.004 73.234l-9.587 7.53c-6.988 4.604-10.834 7.041-11.321 7.041-11.213 6.12-18.2 9.317-20.908 9.533l-.271.055c.216-1.246 5.2-11.484 14.895-30.713 4.226-.325 10.942-2.33 20.096-5.958l2.221-.163c4.604-.433 8.071.488 10.346 2.654l.163 1.409c-1.68 4.875-3.63 7.8-5.634 8.612zm5.904-31.308c-.975 1.192-3.683 3.196-8.125 6.012-1.462.163-6.879 2.275-16.304 6.392l-1.517-.27-.054-.65c-.108-1.355.488-3.088 1.842-5.147.704-3.791 1.517-6.066 2.383-6.5l7.855-17.766c-.109-1.192 1.57-1.896 5.037-2.492l1.137-.108.055.975 6.283-.867c6.23-.542 9.48.758 9.75 3.792l.704-.109-.162-1.733.812-.108c1.896 1.029 2.817 2.166 2.925 3.683.109.975-.433 2.22-1.57 3.683-.488.055-.759-.325-.813-.975l-.758.055-.163 2.166c-3.142 4.713-5.47 7.096-6.88 7.259l-2.437 2.708z" fill="#FDD835"/></svg>