<svg width="130" height="130" fill="none" xmlns="http://www.w3.org/2000/svg"><path d="M42.24 52.373l21.71-12.534a1.756 1.756 0 011.756 0l21.71 12.534c.542.314.878.893.878 1.52v25.068a1.76 1.76 0 01-.879 1.521l-21.71 12.534a1.756 1.756 0 01-1.755 0L42.24 80.482a1.757 1.757 0 01-.878-1.521V53.894c0-.628.336-1.207.879-1.521" fill="#7986CB"/><path d="M121.274 63.791L95.335 18.667c-.942-1.632-2.682-2.835-4.566-2.835h-51.88c-1.884 0-3.625 1.203-4.567 2.835L8.384 63.693a5.367 5.367 0 000 5.323l25.938 44.756c.942 1.631 2.683 2.466 4.567 2.466h51.88c1.884 0 3.625-.81 4.566-2.442l25.939-44.828a5.089 5.089 0 000-5.176zm-21.478 21.7c0 .664-.4 1.278-.975 1.61l-33.04 19.062a1.878 1.878 0 01-1.869 0L30.848 87.101c-.574-.332-.977-.946-.977-1.61V47.366c0-.663.397-1.277.972-1.609L63.88 26.695a1.876 1.876 0 011.869 0l33.067 19.062c.575.332.98.946.98 1.61V85.49z" fill="#3F51B5"/></svg>