<svg width="130" height="130" fill="none" xmlns="http://www.w3.org/2000/svg"><path d="M107.552 33.719a8.125 8.125 0 00-11.273-11.272A52.572 52.572 0 0065 12.187c-29.17 0-52.813 23.644-52.813 52.812 0 29.169 23.645 52.813 52.812 52.813 29.166 0 52.813-23.645 52.813-52.813a52.58 52.58 0 00-10.26-31.281h.001zm-8.064 65.77a48.602 48.602 0 01-15.505 10.453c-6.01 2.543-12.397 3.832-18.984 3.832-6.586 0-12.973-1.289-18.983-3.832A48.603 48.603 0 0130.51 99.488a48.614 48.614 0 01-10.454-15.504c-2.542-6.01-3.832-12.398-3.832-18.984 0-6.587 1.29-12.974 3.832-18.984A48.613 48.613 0 0130.51 30.51a48.612 48.612 0 0115.504-10.454c6.011-2.542 12.398-3.832 18.984-3.832a48.552 48.552 0 0128.582 9.246 8.125 8.125 0 0010.946 10.946 48.516 48.516 0 015.415 9.599c2.543 6.01 3.832 12.397 3.832 18.983 0 6.587-1.289 12.974-3.832 18.985a48.594 48.594 0 01-10.454 15.504z" fill="#4F8FF7"/><path d="M65 89.375c13.462 0 24.375-10.913 24.375-24.375S78.462 40.625 65 40.625 40.625 51.538 40.625 65 51.538 89.375 65 89.375z" fill="#4F8FF7"/></svg>