<svg width="130" height="130" fill="none" xmlns="http://www.w3.org/2000/svg"><path d="M84.388 37.527L77.02 52.403a15.918 15.918 0 014.804 8.54h5.552a15.959 15.959 0 014.448-8.22l-7.438-15.196z" fill="#F4511E"/><path d="M70.829 48.809l13.559-27.403 13.523 27.58c.533-.177 1.067-.32 1.601-.462l12.847-37.9H56.381l12.81 37.793c.535.107 1.104.25 1.638.392zM66.167 73.043c4.947 0 8.968-4.021 8.968-8.968a8.948 8.948 0 00-1.46-4.91c-.284-.463-.64-.89-.996-1.282l-.035-.035a6.642 6.642 0 00-1.21-1.032l-.036-.036c-.106-.071-.249-.178-.391-.25-.036 0-.036-.035-.071-.035-.143-.07-.285-.178-.427-.249h-.036c-.142-.071-.32-.178-.463-.249h-.035c-.143-.071-.285-.142-.427-.178-.036 0-.072-.035-.107-.035-.107-.036-.25-.107-.356-.143-.035 0-.071-.035-.142-.035-.143-.036-.285-.107-.427-.143h-.036c-.178-.035-.32-.07-.498-.107-.036 0-.071 0-.142-.035-.143-.036-.25-.036-.392-.071-.071 0-.107 0-.178-.036-.107 0-.249-.035-.356-.035H65.526c-.142 0-.249.035-.391.035h-.142c-.143.036-.285.036-.427.071h-.107c-.178.036-.32.072-.498.107-3.915.961-6.833 4.52-6.833 8.719.071 4.875 4.092 8.932 9.039 8.932zM103.889 55.107h-.071c-.142 0-.249-.035-.391-.035h-.463c-.178 0-.356 0-.569.035h-.178c-.143 0-.285.036-.427.036-.036 0-.107 0-.143.035l-.534.107h-.035c-.178.036-.32.072-.498.107-.036 0-.107.036-.143.036-.142.035-.284.07-.427.142-.035 0-.07.036-.107.036-.178.07-.355.142-.498.213-.178.071-.32.142-.498.214-.036 0-.071.035-.107.035a2.661 2.661 0 00-.427.25s-.035 0-.035.035c-.32.178-.64.391-.926.64l-.035.036a9.73 9.73 0 00-1.246 1.174c-.391.427-.712.926-.996 1.424a9.02 9.02 0 00-1.175 4.448c0 4.947 4.022 8.968 8.968 8.968 4.947 0 8.968-4.021 8.968-8.968 0-4.341-3.131-8.007-7.224-8.825-.213-.072-.498-.107-.783-.143zM28.978 73.043c4.947 0 8.968-4.021 8.968-8.968 0-4.946-4.021-8.968-8.968-8.968-4.946 0-8.968 4.022-8.968 8.968 0 4.947 4.022 8.968 8.968 8.968z" fill="#F4511E"/><path d="M103 79.983c-7.403 0-13.63-5.09-15.41-11.922h-5.978c-1.78 6.833-8.007 11.922-15.41 11.922-.854 0-1.672-.072-2.455-.178-2.064 3.167-4.52 6.085-7.402 8.79-5.089 4.804-10.854 8.363-17.082 10.605l-1.459.534-1.352-.712c-7.473-3.844-11.317-11.637-9.965-19.182a13.818 13.818 0 01-2.455-.64c-.142.249-.25.534-.392.818-2.277 4.698-4.662 9.538-5.516 14.733-.925 5.552-1.316 15.694 6.513 21.103 3.416 2.349 7.01 3.524 11.032 3.524 7.722 0 16.05-4.129 24.875-8.506 6.904-3.416 14.022-6.975 21.424-8.79 2.811-.676 5.658-1.103 8.398-1.494 5.018-.712 9.787-1.424 13.666-3.666 4.128-2.384 6.939-6.37 7.722-10.925.498-2.776.214-5.587-.712-8.185a16.074 16.074 0 01-8.042 2.17z" fill="#F4511E"/></svg>