<svg width="130" height="130" fill="none" xmlns="http://www.w3.org/2000/svg"><path d="M65 54.762c5.58 0 10.13 4.55 10.13 10.238 0 5.416-4.55 10.02-10.13 10.02-5.58 0-10.13-4.603-10.13-10.02 0-5.688 4.55-10.238 10.13-10.238zm-25.08 53.571c3.413 2.059 10.888-1.083 19.5-9.208a131.216 131.216 0 01-8.178-10.292c-4.442-.433-8.83-1.083-13-1.95-2.763 11.592-1.734 19.554 1.679 21.45zm3.847-31.091l-1.571-2.763c-.596 1.57-1.192 3.142-1.571 4.658 1.462.325 3.087.596 4.767.867l-1.625-2.763zm35.425-4.117L83.579 65l-4.387-8.125c-1.625-2.871-3.359-5.417-4.93-7.963-2.924-.162-6.012-.162-9.262-.162-3.25 0-6.337 0-9.263.162-1.57 2.546-3.304 5.092-4.929 7.963L46.421 65l4.387 8.125c1.625 2.87 3.359 5.416 4.93 7.962 2.925.163 6.012.163 9.262.163 3.25 0 6.338 0 9.263-.163 1.57-2.546 3.304-5.091 4.929-7.962zM65 36.725c-1.03 1.191-2.112 2.437-3.196 3.9h6.392c-1.084-1.463-2.167-2.709-3.196-3.9zm0 56.55c1.03-1.192 2.112-2.438 3.196-3.9h-6.392c1.084 1.462 2.167 2.708 3.196 3.9zm25.025-71.609c-3.358-2.058-10.833 1.084-19.446 9.209a131.235 131.235 0 018.18 10.291c4.441.434 8.829 1.084 13 1.95 2.762-11.591 1.733-19.554-1.734-21.45zm-3.792 31.092l1.571 2.763c.596-1.571 1.192-3.142 1.571-4.659-1.463-.325-3.088-.596-4.767-.866l1.625 2.762zm7.855-38.187c7.962 4.55 8.829 16.52 5.47 30.495C113.317 49.13 123.23 55.846 123.23 65c0 9.154-9.912 15.87-23.67 19.933 3.358 13.975 2.491 25.946-5.471 30.496-7.909 4.55-18.688-.65-29.088-10.562-10.4 9.912-21.18 15.112-29.142 10.562-7.908-4.55-8.775-16.52-5.416-30.496C16.683 80.871 6.77 74.154 6.77 65s9.912-15.871 23.67-19.934c-3.358-13.975-2.491-25.945 5.417-30.495C43.821 10.02 54.6 15.22 65 25.133c10.4-9.912 21.18-15.112 29.088-10.562zM92.517 65c1.841 4.062 3.466 8.125 4.82 12.242 11.375-3.413 17.767-8.288 17.767-12.242 0-3.954-6.392-8.83-17.766-12.242-1.355 4.117-2.98 8.18-4.821 12.242zm-55.034 0c-1.841-4.063-3.466-8.125-4.82-12.242C21.288 56.171 14.896 61.046 14.896 65c0 3.954 6.392 8.829 17.767 12.242 1.354-4.117 2.979-8.18 4.82-12.242zm48.75 12.242l-1.625 2.762c1.68-.27 3.304-.542 4.767-.867-.38-1.516-.975-3.087-1.57-4.658l-1.572 2.763zM70.58 99.124c8.613 8.125 16.088 11.267 19.446 9.208 3.467-1.896 4.496-9.858 1.733-21.45-4.17.867-8.558 1.517-13 1.95-2.6 3.63-5.362 7.096-8.179 10.292zM43.767 52.758l1.625-2.762c-1.68.27-3.305.541-4.767.866.38 1.517.975 3.088 1.57 4.659l1.572-2.763zM59.42 30.875c-8.613-8.125-16.088-11.267-19.5-9.209-3.413 1.896-4.442 9.859-1.68 21.45 4.172-.866 8.559-1.516 13-1.95 2.6-3.629 5.363-7.095 8.18-10.291z" fill="#0288D1"/></svg>