<svg width="130" height="130" fill="none" xmlns="http://www.w3.org/2000/svg"><path fill-rule="evenodd" clip-rule="evenodd" d="M86.004 85.512c4.02-.416 7.069-3.88 6.93-8.038-.138-4.158-3.603-7.485-7.761-7.485h-.277c-4.297.139-7.623 3.742-7.485 8.039.139 2.079.97 3.88 2.218 5.128-4.712 9.286-11.92 16.077-22.73 21.76-7.345 3.88-14.968 5.266-22.591 4.296-6.237-.832-11.088-3.603-14.137-8.177-4.435-6.791-4.85-14.137-1.109-21.483 2.634-5.266 6.792-9.147 9.425-11.087-.554-1.802-1.386-4.851-1.802-7.069C6.59 75.95 8.668 95.63 14.765 104.916c4.575 6.929 13.86 11.226 24.117 11.226 2.772 0 5.544-.277 8.315-.97 17.74-3.465 31.185-13.999 38.807-29.66v0z" fill="#AB47BC" stroke="#AB47BC" stroke-width=".435" stroke-linejoin="round"/><path fill-rule="evenodd" clip-rule="evenodd" d="M110.397 68.326C99.864 55.991 84.341 49.2 66.601 49.2h-2.218c-1.247-2.495-3.88-4.158-6.79-4.158h-.278c-4.296.139-7.623 3.742-7.484 8.038.138 4.158 3.603 7.485 7.761 7.485h.277c3.05-.139 5.683-2.08 6.792-4.713h2.494c10.534 0 20.513 3.05 29.521 9.01 6.93 4.573 11.92 10.532 14.692 17.74 2.356 5.82 2.217 11.503-.278 16.354-3.88 7.345-10.394 11.365-18.987 11.365-5.544 0-10.81-1.663-13.583-2.911-1.524 1.386-4.296 3.604-6.237 4.99 5.96 2.772 12.058 4.296 17.88 4.296 13.305 0 23.145-7.345 26.887-14.691 4.019-8.039 3.742-21.898-6.653-33.679z" fill="#AB47BC" stroke="#AB47BC" stroke-width=".435" stroke-linejoin="round"/><path fill-rule="evenodd" clip-rule="evenodd" d="M39.99 87.868c.139 4.158 3.604 7.485 7.762 7.485h.277c4.296-.139 7.623-3.742 7.484-8.039-.138-4.158-3.603-7.484-7.761-7.484h-.277c-.278 0-.693 0-.97.138-5.683-9.424-8.04-19.68-7.208-30.768.555-8.316 3.327-15.523 8.178-21.482 4.019-5.128 11.78-7.623 17.047-7.762C79.213 19.68 85.45 37.974 85.866 45.32c1.802.416 4.85 1.386 6.93 2.08-1.664-22.453-15.523-34.095-28.829-34.095-12.473 0-23.977 9.008-28.55 22.314-6.376 17.74-2.218 34.787 5.544 48.231-.693.97-1.11 2.495-.97 4.02v0z" fill="#AB47BC" stroke="#AB47BC" stroke-width=".435" stroke-linejoin="round"/></svg>