<svg width="130" height="130" fill="none" xmlns="http://www.w3.org/2000/svg"><path d="M108.952 25.019c-3.17-12.438-23.792-16.525-43.31-9.592-11.616 4.128-24.187 10.604-33.23 19.061-10.75 10.056-12.465 18.805-11.756 22.463 2.492 12.901 20.172 21.338 27.44 27.592v.038c-2.145 1.053-17.828 8.992-21.499 17.108-3.872 8.562.617 14.704 3.59 15.533 9.21 2.563 18.658-2.045 23.74-9.623 4.902-7.311 4.493-16.75 2.362-21.447 2.939-.773 6.364-1.121 10.717-.613 12.285 1.435 14.695 9.104 14.234 12.315-.46 3.211-3.037 4.977-3.9 5.508-.861.532-1.124.72-1.052 1.115.105.576.504.556 1.237.429 1.012-.17 6.45-2.611 6.684-8.535.297-7.522-6.912-15.938-19.678-15.717-5.256.092-8.562.59-10.951 1.48-.178-.202-.355-.403-.542-.6-7.891-8.42-22.48-14.374-21.863-25.694.225-4.115 1.656-14.95 28.032-28.094 21.607-10.768 38.906-7.802 41.895-1.237 4.271 9.38-9.244 26.815-31.683 29.33-8.548.958-13.051-2.355-14.17-3.589-1.179-1.298-1.352-1.356-1.796-1.114-.715.398-.262 1.544 0 2.229.672 1.745 3.42 4.837 8.106 6.374 4.124 1.353 14.16 2.096 26.3-2.597 13.594-5.267 24.212-19.896 21.093-32.123v0zm-57.84 63.38c1.019 3.77.907 7.284-.147 10.464a16.826 16.826 0 01-.838 2.072c-.812 1.684-1.902 3.259-3.235 4.714-4.07 4.438-9.752 6.119-12.19 4.704-2.63-1.527-1.311-7.785 3.403-12.768C43.18 92.22 50.48 88.77 50.48 88.77l-.01-.02.64-.351z" fill="#EC407A" stroke="#EC407A" stroke-width="5"/></svg>