<svg width="130" height="120" fill="none" xmlns="http://www.w3.org/2000/svg"><path d="M28.512 90.088c-3.488 0-6.658-3.13-6.658-6.956 0-3.826 2.854-6.957 6.658-6.957 3.805 0 6.659 3.13 6.659 6.957 0 3.826-3.17 6.956-6.659 6.956zm81.805-37.913c-.634-5.565-3.805-10.087-7.927-13.565l-1.585-1.391-1.268 1.739c-2.537 3.13-3.488 8.695-3.171 12.87.317 3.13 1.268 6.26 2.854 8.695-1.269.696-2.854 1.391-4.122 2.087-2.854 1.043-5.708 1.391-8.561 1.391H4.415l-.317 2.087c-.634 6.609.317 13.565 2.853 19.826L8.22 88.35v.348c7.61 13.913 21.244 20.174 36.146 20.174 28.537 0 52-13.565 63.098-42.783 7.292.348 14.585-1.739 18.073-9.391l.951-1.74-1.585-1.043c-4.122-2.782-9.83-3.13-14.586-1.739zM69.415 46.61H57.049v13.565h12.366V46.61zm0-17.043H57.049v13.565h12.366V29.567zm0-17.392H57.049V25.74h12.366V12.175zm15.22 34.435H72.267v13.565h12.366V46.61zm-45.976 0H26.293v13.565h12.366V46.61zm15.536 0H41.83v13.565h12.366V46.61zm-30.756 0H11.073v13.565H23.44V46.61zm30.756-17.043H41.83v13.565h12.366V29.567zm-15.536 0H26.293v13.565h12.366V29.567z" fill="#0087C9"/></svg>