<svg width="130" height="130" fill="none" xmlns="http://www.w3.org/2000/svg"><path d="M74.699 10.577c-.777 0-1.517.185-2.183.407 1.443.962 2.22 2.22 2.626 3.662.037.185.074.333.111.518.037.185.074.332.074.517.111 2.479-.665 2.774-1.183 4.254-.814 1.886-.592 3.92.407 5.548.074.185.184.407.332.628-1.072-7.138 4.883-8.21 5.992-10.43.074-1.96-1.516-3.254-2.774-4.142-1.294-.74-2.404-.962-3.402-.962zm8.95 1.59c-.11.667-.037.482-.074.815-.037.221-.037.517-.074.74-.074.221-.11.443-.185.665l-.222.666c-.11.222-.185.406-.295.665l-.223.333c-.073.074-.11.185-.184.26-.148.184-.296.406-.407.554-.185.185-.296.37-.518.518v.037c-.185.148-.333.296-.518.444-.592.443-1.257.776-1.886 1.22-.185.148-.407.259-.555.407-.185.148-.37.296-.518.444l-.517.518c-.148.184-.296.37-.407.554a5.632 5.632 0 00-.407.592c-.111.222-.185.407-.296.666-.074.222-.185.407-.222.666-.074.259-.148.48-.185.702-.037.111-.037.26-.074.37-.037.111-.037.222-.074.333 0 .222-.037.48-.037.703 0 .185 0 .333.037.518 0 .222.037.444.074.702.037.222.074.444.148.666l.222.666c.074.148.148.296.185.407l-6.473-2.515c-1.11-.296-2.182-.592-3.254-.851-.592-.148-1.184-.296-1.776-.407a59.37 59.37 0 00-5.14-.777c-.075 0-.075-.037-.149-.037a46.302 46.302 0 00-5.03-.258c-1.257 0-2.478.074-3.698.148-1.702.11-3.44.332-5.141.628-.407.074-.851.148-1.258.222-.888.185-1.701.37-2.552.555-.407.11-.85.222-1.258.333-.406.185-.813.37-1.22.518a10.06 10.06 0 01-.925.407c-.074.037-.11.037-.148.074-.295.147-.517.258-.776.406-.074.037-.148.074-.185.074-.296.148-.629.296-.888.444a2.648 2.648 0 00-.555.296c-.074.074-.185.111-.259.148-.259.148-.517.296-.74.407-.258.148-.48.296-.665.407-.185.148-.407.259-.555.407-.037.037-.074.037-.074.074-.185.11-.37.258-.518.406l-.074.074c-.148.111-.295.222-.406.333-.074.037-.111.074-.185.111a4.049 4.049 0 00-.407.37c-.037.074-.074.074-.111.11-.185.186-.333.297-.518.482-.037 0-.037.037-.074.074a6.156 6.156 0 00-.518.48c-.037.038-.037.075-.074.075a4.43 4.43 0 00-.406.443c-.075.074-.148.111-.186.185a6.138 6.138 0 01-.48.518c-.037.074-.074.074-.111.148-.222.222-.407.444-.666.666l-.074.074c-.444.48-.925.961-1.442 1.368-.518.444-1.036.888-1.59 1.258-.556.407-1.11.74-1.702 1.072-.555.296-1.147.592-1.775.851-.592.259-1.221.48-1.85.666-1.183.259-2.404.74-3.44.813-.221 0-.48.074-.702.074-.26.074-.481.111-.703.185-.222.074-.444.185-.666.26-.222.073-.443.184-.665.295-.185.148-.407.259-.63.407-.184.148-.406.296-.554.48-.185.149-.407.334-.555.519-.185.184-.333.37-.48.554-.149.222-.296.407-.407.666a2.9 2.9 0 00-.407.666c-.111.259-.222.48-.296.74-.074.221-.185.48-.259.74-.074.221-.111.443-.148.665 0 .037-.037.074-.037.074-.074.259-.074.592-.074.777-.037.185-.074.37-.074.554 0 .111 0 .26.037.37.037.185.074.37.111.518.074.185.111.333.185.518v.037c.074.185.185.333.296.518.11.185.222.333.37.518.148.148.296.295.48.443.185.185.333.296.518.444.666.592.851.777 1.702 1.258l.444.222c.037 0 .074.037.074.037 0 .074 0 .074.037.148.037.221.073.443.147.665.074.26.148.481.222.666.074.185.148.333.222.518.037.074.074.11.074.148.111.222.222.407.333.629.148.184.296.406.407.591.148.185.296.37.48.518.186.185.334.296.519.481 0 0 .037.037.074.037.184.148.332.296.517.407.185.148.407.259.63.37.184.11.406.222.665.296.185.074.37.148.555.184.037.038.074.038.11.074.111.037.26.074.37.074-.074 1.517-.11 2.96.111 3.477.26.555 1.48-1.147 2.737-3.144-.185 1.96-.296 4.217 0 4.92.296.702 1.998-1.48 3.477-3.921 19.972-4.623 38.206 9.172 40.13 28.7-.37-3.032-4.106-4.733-5.844-4.326-.85 2.07-2.293 4.77-4.586 6.435.185-1.85.11-3.772-.296-5.622-.629 2.59-1.85 5.03-3.477 7.102-2.663.184-5.363-1.11-6.768-3.033-.111-.074-.148-.26-.222-.37-.074-.185-.185-.407-.222-.592a3.635 3.635 0 01-.185-.592c-.037-.185-.037-.406-.037-.628v-.407c.037-.185.074-.407.148-.592s.11-.407.185-.592c.11-.185.185-.407.333-.592.48-1.368.48-2.44-.407-3.106-.185-.111-.333-.185-.518-.296-.11-.037-.259-.074-.37-.111-.074-.037-.148-.074-.222-.074-.185-.074-.407-.111-.592-.148-.184-.074-.406-.074-.591-.074a3.263 3.263 0 00-.629-.074c-.148 0-.296.037-.407.037-.222 0-.407.037-.629.074-.185.037-.407.074-.591.11-.185.075-.407.112-.592.186s-.37.185-.555.259c-.185.074-.333.184-.518.295-6.583 4.29-2.663 14.314 1.85 17.199-1.702.296-3.403.666-3.884 1.035l-.074.075c1.22.74 2.478 1.368 3.81 1.886 1.812.592 3.735 1.109 4.549 1.368v.037c2.33.481 4.697.666 7.101.518 12.464-.888 22.71-10.356 24.559-22.894.074.259.11.48.185.74.074.517.185 1.035.259 1.59v.037c.074.259.074.518.11.74v.11c.037.26.075.518.075.74.036.296.073.629.073.925v.444c0 .148.037.296.037.444 0 .184-.037.332-.037.517v.407c0 .185-.037.37-.037.555 0 .111 0 .222-.036.37 0 .185-.038.407-.038.629-.036.074-.036.185-.036.259-.037.221-.074.406-.074.665 0 .074 0 .185-.037.26-.037.295-.074.517-.111.813v.074c-.074.259-.111.518-.185.777v.073c-.074.26-.111.518-.185.777 0 .037-.037.074-.037.111-.074.26-.111.518-.185.777v.074c-.074.296-.185.518-.222.777-.037.037-.037.073-.037.073-.074.296-.185.555-.259.851-.11.296-.185.518-.296.814-.11.296-.185.555-.296.814-.11.295-.222.517-.333.813h-.037c-.11.26-.221.518-.37.777-.036.074-.073.148-.073.185-.037.037-.037.074-.074.074-1.85 3.698-4.55 6.916-7.915 9.468a7.5 7.5 0 00-.666.481c-.074.074-.148.074-.185.148a3.668 3.668 0 01-.629.407l.074.185h.037c.407-.074.777-.111 1.184-.185h.037a38.08 38.08 0 002.182-.407c.185-.037.407-.074.629-.148.148-.037.258-.074.406-.074.185-.037.407-.074.592-.111.185-.074.333-.074.518-.148a51.59 51.59 0 008.174-2.7 44.881 44.881 0 01-17.494 14.277 47.15 47.15 0 009.616-1.665c11.355-3.365 20.897-10.984 26.63-21.266a44.62 44.62 0 01-7.582 18.123c2.737-1.813 5.252-3.884 7.508-6.251a44.577 44.577 0 0011.872-23.967c.962 4.439 1.258 9.062.814 13.574 20.342-28.368 1.701-57.809-6.103-65.539-.037-.074-.074-.074-.074-.148-.037.037-.037.037-.037.074 0-.037 0-.037-.037-.074 0 .333-.037.666-.074.999-.074.666-.185 1.257-.296 1.886a26.413 26.413 0 01-.48 1.85c-.185.591-.407 1.22-.666 1.812-.259.554-.518 1.146-.851 1.7-.296.519-.666 1.11-.998 1.591-.37.518-.777 1.036-1.147 1.517-.407.518-.888.961-1.331 1.405-.296.26-.518.481-.814.703-.222.185-.407.37-.666.555-.518.407-.998.776-1.59 1.11a24.33 24.33 0 01-1.665.96c-.591.297-1.183.519-1.775.778-.592.222-1.22.406-1.85.591-.628.185-1.257.296-1.886.407a18.07 18.07 0 01-1.923.222c-.444.037-.888.074-1.368.074-.666 0-1.295-.074-1.923-.11-.666-.075-1.295-.149-1.924-.297-.665-.11-1.257-.296-1.886-.48h-.037c.629-.075 1.258-.111 1.85-.222.665-.111 1.257-.26 1.885-.407.63-.185 1.258-.37 1.85-.592.629-.222 1.22-.518 1.775-.777.592-.296 1.11-.592 1.701-.924.518-.37 1.073-.74 1.59-1.11.519-.407 1-.814 1.443-1.258.481-.406.888-.887 1.332-1.368.407-.518.814-.999 1.183-1.516.074-.074.111-.185.185-.296.296-.444.555-.888.814-1.369.296-.555.592-1.11.85-1.701.26-.592.481-1.184.666-1.812.185-.592.333-1.22.481-1.85.111-.665.222-1.257.296-1.886.074-.666.111-1.294.111-1.923 0-.444-.037-.888-.074-1.369-.074-.666-.148-1.257-.222-1.886-.11-.666-.259-1.258-.407-1.886a35.094 35.094 0 00-.628-1.813c-.222-.591-.518-1.183-.777-1.738-.296-.555-.629-1.11-.962-1.664l-1.11-1.554c-.406-.48-.85-.961-1.294-1.442-.222-.222-.48-.481-.74-.703a47.06 47.06 0 00-3.92-2.774c-.185-.11-.37-.185-.555-.296-.888-.665-1.738-.961-2.626-1.257z" fill="#EA2845"/></svg>