<svg width="130" height="130" fill="none" xmlns="http://www.w3.org/2000/svg"><g clip-path="url(#clip0)"><path d="M118.219 6.835a59.937 59.937 0 01-6.945 12.317 65.191 65.191 0 10-91.033 93.322l2.41 2.127A65.163 65.163 0 00129.636 69.4c1.778-16.596-3.095-37.599-11.415-62.563l-.002-.002zM29.514 112.852a5.573 5.573 0 11-8.664-7.013 5.573 5.573 0 018.664 7.013zm88.437-19.52c-16.088 21.429-50.436 14.198-72.46 15.238 0 0-3.903.23-7.834.874 0 0 1.483-.63 3.378-1.347 15.466-5.383 22.777-6.419 32.171-11.253 17.688-8.993 35.186-28.685 38.821-49.156-6.729 19.692-27.163 36.627-45.764 43.505-12.748 4.698-35.778 9.275-35.778 9.275l-.928-.498C13.887 92.353 13.404 58.417 41.9 47.472c12.478-4.806 24.415-2.167 37.89-5.383 14.39-3.418 31.038-14.198 37.812-28.267 7.577 22.507 16.705 57.733.337 79.524l.011-.014z" fill="#68BD45"/></g><defs><clipPath id="clip0"><path fill="#fff" d="M0 0h130v130H0z"/></clipPath></defs></svg>