<svg width="130" height="130" fill="none" xmlns="http://www.w3.org/2000/svg"><g clip-path="url(#clip0)"><path fill-rule="evenodd" clip-rule="evenodd" d="M280.979 34.41l-1.227-5.826h-17.046v69.079h19.695V50.78c4.659-6.094 12.52-4.907 15.023-4.131V28.592c-2.625-.943-11.834-2.673-16.445 5.81v.007zm-39.528-22.938l-19.24 4.087-.082 63.221c0 11.66 8.767 20.284 20.467 20.284 6.439 0 11.196-1.227 13.833-2.612V80.405c-2.527 1.007-14.962 4.623-14.962-6.987V45.386h14.962V28.58h-14.962l-.016-17.108zm-53.357 37.156c0-3.08 2.559-4.266 6.695-4.266a44.155 44.155 0 0119.622 5.079V30.875a52.063 52.063 0 00-19.622-3.608c-15.941 0-26.638 8.353-26.638 22.295 0 21.816 29.961 18.274 29.961 27.678 0 3.68-3.169 4.818-7.569 4.818-6.524 0-14.95-2.697-21.559-6.297v18.81a54.682 54.682 0 0021.559 4.538c16.384 0 27.678-8.093 27.678-22.283 0-23.546-30.131-19.338-30.131-28.206l.004.008zM56.387 38.655c0-5.566 4.632-7.72 12.115-7.72A79.873 79.873 0 01104 40.122V6.524A94.185 94.185 0 0068.502.004c-28.844 0-48.19 15.108-48.19 40.337 0 39.47 54.202 33.06 54.202 50.074 0 6.654-5.687 8.718-13.69 8.718-11.802 0-27.044-4.883-39-11.383v34.036A98.94 98.94 0 0060.828 130c29.644 0 50.078-14.645 50.078-40.312 0-42.6-54.519-34.99-54.519-51.025v-.008z" fill="#6772E5"/></g><defs><clipPath id="clip0"><path fill="#fff" d="M0 0h130v130H0z"/></clipPath></defs></svg>